STARTFONT 2.1
FONT -FontForge-Bitstream Vera Sans Mono-Book-R-Normal-SansMono--72-690-75-75-P-428-ISO8859-1
SIZE 69 75 75
FONTBOUNDINGBOX 45 84 0 -17
COMMENT "Generated by fontforge, http://fontforge.sourceforge.net"
COMMENT "Copyright (c) 2003 by Bitstream, Inc. All Rights Reserved."
STARTPROPERTIES 40
FOUNDRY "FontForge"
FAMILY_NAME "Bitstream Vera Sans Mono"
WEIGHT_NAME "Book"
SLANT "R"
SETWIDTH_NAME "Normal"
ADD_STYLE_NAME "SansMono"
PIXEL_SIZE 72
POINT_SIZE 690
RESOLUTION_X 75
RESOLUTION_Y 75
SPACING "P"
AVERAGE_WIDTH 428
CHARSET_REGISTRY "ISO8859"
CHARSET_ENCODING "1"
FONTNAME_REGISTRY ""
CHARSET_COLLECTIONS "ISO8859-9 ISOLatin1Encoding"
FONT_NAME "BitstreamVeraSansMono-Roman"
FACE_NAME "Bitstream Vera Sans Mono"
COPYRIGHT "Copyright (c) 2003 by Bitstream, Inc. All Rights Reserved."
FONT_VERSION "Release 1.10"
FONT_ASCENT 55
FONT_DESCENT 17
UNDERLINE_POSITION -10
UNDERLINE_THICKNESS 5
X_HEIGHT 38
CAP_HEIGHT 51
RAW_ASCENT 759
RAW_DESCENT 240
NORM_SPACE 43
RELATIVE_WEIGHT 40
RELATIVE_SETWIDTH 50
SUPERSCRIPT_X 0
SUPERSCRIPT_Y 20
SUPERSCRIPT_SIZE 43
SUBSCRIPT_X 0
SUBSCRIPT_Y -15
SUBSCRIPT_SIZE 43
FIGURE_WIDTH 43
AVG_LOWERCASE_WIDTH 430
AVG_UPPERCASE_WIDTH 430
ENDPROPERTIES
CHARS 269
STARTCHAR space
ENCODING 32
SWIDTH 602 0
DWIDTH 43 0
BBX 1 1 0 0
BITMAP
00
ENDCHAR
STARTCHAR exclam
ENCODING 33
SWIDTH 602 0
DWIDTH 43 0
BBX 7 52 18 0
BITMAP
FE
FE
FE
FE
FE
FE
FE
FE
FE
FE
FE
FE
FE
FE
FE
FE
FE
FE
FE
FE
FE
FE
FE
FE
FE
FE
FE
FE
FE
FE
FE
7E
7C
7C
7C
00
00
00
00
00
00
00
00
FE
FE
FE
FE
FE
FE
FE
FE
FE
ENDCHAR
STARTCHAR quotedbl
ENCODING 34
SWIDTH 602 0
DWIDTH 43 0
BBX 19 20 12 32
BITMAP
FC07E0
FC07E0
FC07E0
FC07E0
FC07E0
FC07E0
FC07E0
FC07E0
FC07E0
FC07E0
FC07E0
FC07E0
FC07E0
FC07E0
FC07E0
FC07E0
FC07E0
FC07E0
FC07E0
FC07E0
ENDCHAR
STARTCHAR numbersign
ENCODING 35
SWIDTH 602 0
DWIDTH 43 0
BBX 43 52 0 0
BITMAP
00003F00FC00
00003F00FC00
00003E00FC00
00007E00F800
00007E01F800
00007E01F800
00007C01F800
0000FC01F000
0000FC03F000
0000FC03F000
0000F803F000
0001F803E000
0001F807E000
0001F807E000
0001F007E000
0FFFFFFFFFE0
0FFFFFFFFFE0
0FFFFFFFFFE0
0FFFFFFFFFE0
0FFFFFFFFFE0
0007E01F8000
0007E01F8000
0007C01F8000
000FC01F0000
000FC03F0000
000FC03F0000
000F803F0000
000F803E0000
001F807E0000
001F807E0000
001F007E0000
001F007C0000
FFFFFFFFFE00
FFFFFFFFFE00
FFFFFFFFFE00
FFFFFFFFFE00
FFFFFFFFFE00
007E01F80000
007C01F00000
00FC01F00000
00FC03F00000
00FC03F00000
00F803F00000
01F803E00000
01F807E00000
01F807E00000
01F007E00000
03F007C00000
03F00FC00000
03F00FC00000
03E00FC00000
03E00F800000
ENDCHAR
STARTCHAR dollar
ENCODING 36
SWIDTH 602 0
DWIDTH 43 0
BBX 33 65 7 -11
BITMAP
0003C00000
0003C00000
0003C00000
0003C00000
0003C00000
0003C00000
0003C00000
0003C00000
001FFE0000
01FFFFF000
07FFFFFC00
0FFFFFFC00
1FFFFFFC00
3FE3C3FC00
7F83C03C00
7F03C00400
7E03C00000
FC03C00000
FC03C00000
FC03C00000
FC03C00000
FC03C00000
FC03C00000
FE03C00000
7F03C00000
7F83C00000
7FE3C00000
3FFFC00000
1FFFF80000
0FFFFF0000
07FFFFC000
01FFFFF000
003FFFF800
0003FFFC00
0003CFFE00
0003C1FF00
0003C07F00
0003C03F00
0003C03F80
0003C01F80
0003C01F80
0003C01F80
0003C01F80
0003C01F80
0003C03F80
8003C03F00
E003C07F00
F803C0FE00
FF83C7FC00
FFFFFFFC00
FFFFFFF000
7FFFFFE000
0FFFFF8000
007FFC0000
0003C00000
0003C00000
0003C00000
0003C00000
0003C00000
0003C00000
0003C00000
0003C00000
0003C00000
0003C00000
0003C00000
ENDCHAR
STARTCHAR percent
ENCODING 37
SWIDTH 602 0
DWIDTH 43 0
BBX 41 50 1 0
BITMAP
00FC00000000
07FF80000000
0FFFC0000000
1FFFE0000000
3FFFF0000000
7F87F8000000
7E01F8000000
FC00F8000000
FC00FC000000
F8007C000000
F8007C000000
F8007C000000
F8007C000000
F800FC000000
FC00F8000000
7E01F8000000
7F07F8000E00
3FFFF0007E00
1FFFE001FF00
0FFFC007FC00
07FF803FF000
00FC00FF8000
000003FE0000
00001FF80000
00007FC00000
0001FF000000
000FFC000000
003FE0000000
00FF801F8000
07FC00FFE000
1FF001FFF800
3FC003FFFC00
1E0007FFFE00
18000FE0FE00
00000FC03F00
00001F801F00
00001F801F80
00001F000F80
00001F000F80
00001F000F80
00001F000F80
00001F001F80
00001F801F00
00000FC03F00
00000FF0FF00
000007FFFE00
000003FFFC00
000001FFF800
000000FFF000
0000003F8000
ENDCHAR
STARTCHAR ampersand
ENCODING 38
SWIDTH 602 0
DWIDTH 43 0
BBX 41 54 2 -1
BITMAP
0003FE000000
000FFFE00000
003FFFF00000
007FFFF00000
00FFFFF00000
01FFFFF00000
01FF80F00000
03FE00100000
03FC00000000
03F800000000
03F800000000
03F800000000
03F800000000
03F800000000
03FC00000000
01FC00000000
01FC00000000
00FE00000000
00FF00000000
007F00000000
003F80000000
007FC0000000
00FFC0000000
03FFE0000000
07FFF0000000
07F3F8000000
0FE3F8003F00
1FC1FC003F00
3F80FE003F00
3F807E003F00
7F007F003F00
7F003F803F00
7E001FC03F00
FE001FC03E00
FE000FE03E00
FE0007F07E00
FE0007F87E00
FE0003F87C00
FE0001FCFC00
FE0001FEFC00
FF0000FFF800
FF00007FF800
7F80003FF000
7F80003FE000
7FC0001FC000
3FE0003FE000
1FF800FFF000
1FFE03FFF800
0FFFFFFFFC00
07FFFFF9FC00
03FFFFF1FE00
00FFFFC0FF00
003FFF007F80
0007FC000000
ENDCHAR
STARTCHAR quotesingle
ENCODING 39
SWIDTH 602 0
DWIDTH 43 0
BBX 6 20 19 32
BITMAP
FC
FC
FC
FC
FC
FC
FC
FC
FC
FC
FC
FC
FC
FC
FC
FC
FC
FC
FC
FC
ENDCHAR
STARTCHAR parenleft
ENCODING 40
SWIDTH 602 0
DWIDTH 43 0
BBX 16 64 15 -9
BITMAP
003F
003E
007E
00FC
00FC
01F8
01F8
03F0
03F0
07E0
07E0
0FE0
0FC0
0FC0
1FC0
1F80
3F80
3F80
3F80
3F00
7F00
7F00
7F00
7F00
7E00
FE00
FE00
FE00
FE00
FE00
FE00
FE00
FE00
FE00
FE00
FE00
FE00
FE00
FE00
7E00
7F00
7F00
7F00
7F00
3F00
3F80
3F80
1F80
1F80
1FC0
0FC0
0FC0
0FE0
07E0
07E0
03F0
03F0
01F8
01F8
00FC
00FC
007E
003E
003F
ENDCHAR
STARTCHAR parenright
ENCODING 41
SWIDTH 602 0
DWIDTH 43 0
BBX 16 64 13 -9
BITMAP
FC00
7C00
7E00
3F00
3F00
1F80
1F80
0FC0
0FC0
07E0
07E0
07F0
03F0
03F0
03F8
01F8
01F8
01FC
01FC
00FC
00FE
00FE
00FE
00FE
007E
007F
007F
007F
007F
007F
007F
007F
007F
007F
007F
007F
007F
007F
007F
00FE
00FE
00FE
00FE
00FE
00FC
01FC
01FC
01F8
01F8
03F8
03F0
03F0
07F0
07E0
0FE0
0FC0
0FC0
1F80
1F80
3F00
3F00
7E00
7C00
FC00
ENDCHAR
STARTCHAR asterisk
ENCODING 42
SWIDTH 602 0
DWIDTH 43 0
BBX 32 32 6 21
BITMAP
0003C000
0003C000
0003C000
0003C000
0003C000
0003C000
2003C004
7803C01E
7C03C03E
FF03C0FF
3FC3C3FC
0FF3CFF0
03FBDFC0
00FFFF00
003FFC00
000FF000
000FF000
003FFC00
00FFFF00
03FBDFC0
0FF3CFF0
3FC3C3FC
FF03C0FF
7C03C03E
7803C01E
2003C004
0003C000
0003C000
0003C000
0003C000
0003C000
0003C000
ENDCHAR
STARTCHAR plus
ENCODING 43
SWIDTH 602 0
DWIDTH 43 0
BBX 38 38 3 4
BITMAP
0000FC0000
0000FC0000
0000FC0000
0000FC0000
0000FC0000
0000FC0000
0000FC0000
0000FC0000
0000FC0000
0000FC0000
0000FC0000
0000FC0000
0000FC0000
0000FC0000
0000FC0000
0000FC0000
FFFFFFFFFC
FFFFFFFFFC
FFFFFFFFFC
FFFFFFFFFC
FFFFFFFFFC
FFFFFFFFFC
0000FC0000
0000FC0000
0000FC0000
0000FC0000
0000FC0000
0000FC0000
0000FC0000
0000FC0000
0000FC0000
0000FC0000
0000FC0000
0000FC0000
0000FC0000
0000FC0000
0000FC0000
0000FC0000
ENDCHAR
STARTCHAR comma
ENCODING 44
SWIDTH 602 0
DWIDTH 43 0
BBX 12 21 15 -10
BITMAP
1FF0
1FF0
1FF0
1FF0
1FF0
1FF0
1FF0
1FF0
1FE0
1FE0
3FC0
3FC0
3F80
3F80
7F00
7F00
7E00
7E00
7C00
FC00
F800
ENDCHAR
STARTCHAR hyphen
ENCODING 45
SWIDTH 602 0
DWIDTH 43 0
BBX 18 6 13 17
BITMAP
FFFFC0
FFFFC0
FFFFC0
FFFFC0
FFFFC0
FFFFC0
ENDCHAR
STARTCHAR period
ENCODING 46
SWIDTH 602 0
DWIDTH 43 0
BBX 9 11 17 0
BITMAP
FF80
FF80
FF80
FF80
FF80
FF80
FF80
FF80
FF80
FF80
FF80
ENDCHAR
STARTCHAR slash
ENCODING 47
SWIDTH 602 0
DWIDTH 43 0
BBX 35 59 4 -7
BITMAP
0000000FE0
0000001FC0
0000001FC0
0000003F80
0000003F80
0000007F00
0000007F00
000000FE00
000000FE00
000001FE00
000001FC00
000001FC00
000003F800
000003F800
000007F000
000007F000
00000FE000
00000FE000
00001FC000
00001FC000
00003F8000
00003F8000
00007F0000
00007F0000
0000FE0000
0000FE0000
0001FC0000
0001FC0000
0003F80000
0003F80000
0003F80000
0007F00000
0007F00000
000FE00000
000FE00000
001FC00000
001FC00000
003F800000
003F800000
007F000000
007F000000
00FE000000
00FE000000
01FC000000
01FC000000
03F8000000
03F8000000
07F0000000
07F0000000
0FF0000000
0FE0000000
0FE0000000
1FC0000000
1FC0000000
3F80000000
3F80000000
7F00000000
7F00000000
FE00000000
ENDCHAR
STARTCHAR zero
ENCODING 48
SWIDTH 602 0
DWIDTH 43 0
BBX 34 54 5 -1
BITMAP
0007F80000
003FFF0000
00FFFFC000
01FFFFE000
03FFFFF000
07FFFFF800
0FFC0FF800
0FF003FC00
1FE001FE00
1FC000FE00
3FC000FE00
3F80007F00
3F80007F00
7F80007F00
7F00003F80
7F00003F80
7F00003F80
7F00003F80
FE00003F80
FE00001FC0
FE00001FC0
FE00001FC0
FE03C01FC0
FE07F01FC0
FE0FF81FC0
FE0FF81FC0
FE0FF81FC0
FE0FF81FC0
FE0FF81FC0
FE07F01FC0
FE03E01FC0
FE00001FC0
FE00001FC0
FE00001FC0
FE00001FC0
FE00003F80
7F00003F80
7F00003F80
7F00003F80
7F00003F80
7F80007F00
3F80007F00
3F80007F00
3FC000FF00
1FC000FE00
1FE001FE00
0FF003FC00
0FFC0FF800
07FFFFF800
03FFFFF000
01FFFFE000
00FFFFC000
003FFF0000
0007F80000
ENDCHAR
STARTCHAR one
ENCODING 49
SWIDTH 602 0
DWIDTH 43 0
BBX 30 52 9 0
BITMAP
003FE000
03FFE000
3FFFE000
FFFFE000
FFFFE000
FFFFE000
FFCFE000
FC0FE000
C00FE000
000FE000
000FE000
000FE000
000FE000
000FE000
000FE000
000FE000
000FE000
000FE000
000FE000
000FE000
000FE000
000FE000
000FE000
000FE000
000FE000
000FE000
000FE000
000FE000
000FE000
000FE000
000FE000
000FE000
000FE000
000FE000
000FE000
000FE000
000FE000
000FE000
000FE000
000FE000
000FE000
000FE000
000FE000
000FE000
000FE000
000FE000
7FFFFFFC
7FFFFFFC
7FFFFFFC
7FFFFFFC
7FFFFFFC
7FFFFFFC
ENDCHAR
STARTCHAR two
ENCODING 50
SWIDTH 602 0
DWIDTH 43 0
BBX 34 53 5 0
BITMAP
007FF80000
07FFFF0000
7FFFFFE000
FFFFFFF000
FFFFFFF800
FFFFFFFC00
FFE00FFE00
FE0001FF00
F00000FF80
8000007F80
0000003F80
0000003FC0
0000001FC0
0000001FC0
0000001FC0
0000001FC0
0000001FC0
0000001FC0
0000003F80
0000003F80
0000003F80
0000007F00
000000FF00
000000FE00
000001FC00
000003FC00
000007F800
00000FF000
00001FE000
00003FC000
00007F8000
0000FF0000
0001FE0000
0003FC0000
0007F80000
000FF00000
001FE00000
003FC00000
007F800000
00FF000000
01FE000000
03FC000000
07F8000000
0FF0000000
1FE0000000
3FC0000000
7F80000000
FFFFFFFFC0
FFFFFFFFC0
FFFFFFFFC0
FFFFFFFFC0
FFFFFFFFC0
FFFFFFFFC0
ENDCHAR
STARTCHAR three
ENCODING 51
SWIDTH 602 0
DWIDTH 43 0
BBX 34 54 5 -1
BITMAP
003FF80000
0FFFFF0000
3FFFFFC000
3FFFFFF000
3FFFFFF800
3FFFFFFC00
3FE00FFE00
3C0003FE00
200000FF00
0000007F00
0000007F80
0000003F80
0000003F80
0000003F80
0000003F80
0000003F80
0000003F80
0000007F00
0000007F00
000000FF00
000003FE00
00001FFC00
007FFFF800
007FFFE000
007FFF8000
007FFF8000
007FFFE000
007FFFF800
00001FFC00
000003FE00
000001FF00
0000007F00
0000007F80
0000003F80
0000003FC0
0000001FC0
0000001FC0
0000001FC0
0000001FC0
0000001FC0
0000001FC0
0000003FC0
0000003FC0
0000007F80
8000007F80
E00000FF80
FC0003FF00
FF801FFE00
FFFFFFFC00
FFFFFFF800
FFFFFFF000
7FFFFFE000
0FFFFF8000
007FF80000
ENDCHAR
STARTCHAR four
ENCODING 52
SWIDTH 602 0
DWIDTH 43 0
BBX 36 52 4 0
BITMAP
000007F800
00000FF800
00001FF800
00001FF800
00003FF800
00007FF800
00007FF800
0000FBF800
0000FBF800
0001F3F800
0003F3F800
0003E3F800
0007C3F800
000FC3F800
000F83F800
001F83F800
003F03F800
003E03F800
007E03F800
007C03F800
00FC03F800
01F803F800
01F003F800
03F003F800
07E003F800
07E003F800
0FC003F800
0F8003F800
1F8003F800
3F0003F800
3F0003F800
7E0003F800
FE0003F800
FC0003F800
FFFFFFFFF0
FFFFFFFFF0
FFFFFFFFF0
FFFFFFFFF0
FFFFFFFFF0
FFFFFFFFF0
000003F800
000003F800
000003F800
000003F800
000003F800
000003F800
000003F800
000003F800
000003F800
000003F800
000003F800
000003F800
ENDCHAR
STARTCHAR five
ENCODING 53
SWIDTH 602 0
DWIDTH 43 0
BBX 34 53 5 -1
BITMAP
3FFFFFFC00
3FFFFFFC00
3FFFFFFC00
3FFFFFFC00
3FFFFFFC00
3FFFFFFC00
3F80000000
3F80000000
3F80000000
3F80000000
3F80000000
3F80000000
3F80000000
3F80000000
3F80000000
3F80000000
3F80000000
3F9FF80000
3FFFFF0000
3FFFFFC000
3FFFFFE000
3FFFFFF800
3FFFFFFC00
3F803FFC00
380007FE00
200001FF00
000000FF00
0000007F80
0000007F80
0000003F80
0000003FC0
0000001FC0
0000001FC0
0000001FC0
0000001FC0
0000001FC0
0000001FC0
0000001FC0
0000001FC0
0000003FC0
0000003F80
0000007F80
0000007F80
000000FF00
800001FF00
F00007FE00
FF003FFC00
FFFFFFF800
FFFFFFF000
FFFFFFE000
FFFFFF8000
3FFFFE0000
03FFF00000
ENDCHAR
STARTCHAR six
ENCODING 54
SWIDTH 602 0
DWIDTH 43 0
BBX 34 54 5 -1
BITMAP
0001FF8000
000FFFF800
003FFFFC00
00FFFFFC00
01FFFFFC00
03FFFFFC00
07FF00FC00
07FC001C00
0FF0000400
1FE0000000
1FC0000000
1F80000000
3F80000000
3F00000000
7F00000000
7E00000000
7E00000000
7E00000000
7E00000000
FE03FC0000
FC0FFF8000
FC3FFFE000
FC7FFFF800
FCFFFFFC00
FDFFFFFE00
FDFC07FE00
FFF001FF00
FFE000FF00
FFC0007F80
FFC0003F80
FF80003F80
FF80003FC0
FF00001FC0
FF00001FC0
FF00001FC0
FF00001FC0
7F00001FC0
7F00001FC0
7F00001FC0
7F00001FC0
7F00001FC0
3F80003FC0
3F80003F80
3FC0003F80
1FC0007F80
1FE000FF00
0FF001FF00
0FFC07FE00
07FFFFFE00
03FFFFFC00
01FFFFF800
00FFFFE000
003FFF8000
0007FE0000
ENDCHAR
STARTCHAR seven
ENCODING 55
SWIDTH 602 0
DWIDTH 43 0
BBX 34 52 5 0
BITMAP
FFFFFFFFC0
FFFFFFFFC0
FFFFFFFFC0
FFFFFFFFC0
FFFFFFFF80
FFFFFFFF80
0000003F80
0000007F00
0000007F00
000000FE00
000000FE00
000000FE00
000001FC00
000001FC00
000003F800
000003F800
000003F800
000007F000
000007F000
00000FE000
00000FE000
00001FE000
00001FC000
00001FC000
00003FC000
00003F8000
00007F8000
00007F0000
00007F0000
0000FF0000
0000FE0000
0001FE0000
0001FC0000
0001FC0000
0003FC0000
0003F80000
0007F80000
0007F00000
0007F00000
000FF00000
000FE00000
001FE00000
001FC00000
003FC00000
003FC00000
003F800000
007F800000
007F000000
00FF000000
00FF000000
00FE000000
01FE000000
ENDCHAR
STARTCHAR eight
ENCODING 56
SWIDTH 602 0
DWIDTH 43 0
BBX 34 54 5 -1
BITMAP
000FFC0000
007FFF8000
01FFFFE000
07FFFFF800
0FFFFFFC00
1FFFFFFE00
1FF807FE00
3FE001FF00
3FC000FF00
7F80007F80
7F80007F80
7F00003F80
7F00003F80
7F00003F80
7F00003F80
7F00003F80
7F00003F80
3F80007F00
3F80007F00
1FC000FE00
1FE001FE00
0FF807FC00
07FFFFF800
01FFFFE000
007FFF8000
00FFFFC000
03FFFFF000
07FFFFF800
0FF807FC00
1FE001FE00
3FC000FF00
3F80007F00
7F00003F80
7F00003F80
FE00001FC0
FE00001FC0
FE00001FC0
FE00001FC0
FE00001FC0
FE00001FC0
FE00001FC0
FE00001FC0
FF00003FC0
7F00003F80
7F80007F80
7FC000FF80
3FE001FF00
3FF807FF00
1FFFFFFE00
0FFFFFFC00
07FFFFF800
01FFFFE000
00FFFF8000
000FFC0000
ENDCHAR
STARTCHAR nine
ENCODING 57
SWIDTH 602 0
DWIDTH 43 0
BBX 34 54 5 -1
BITMAP
000FF80000
007FFF0000
01FFFFC000
07FFFFE000
0FFFFFF000
1FFFFFF800
1FF80FFC00
3FE003FC00
3FC001FE00
7F8000FE00
7F0000FF00
7F00007F00
FF00007F00
FE00003F80
FE00003F80
FE00003F80
FE00003F80
FE00003F80
FE00003F80
FE00003FC0
FE00003FC0
FE00003FC0
FF00007FC0
7F00007FC0
7F0000FFC0
7F8000FFC0
3FC001FFC0
3FE003FFC0
1FF80FEFC0
1FFFFFEFC0
0FFFFFCFC0
07FFFF8FC0
01FFFF0FC0
00FFFC0FC0
000FF01FC0
0000001F80
0000001F80
0000001F80
0000003F80
0000003F80
0000003F00
0000007F00
0000007E00
000000FE00
000001FE00
080003FC00
0E000FF800
0FC03FF800
0FFFFFF000
0FFFFFE000
0FFFFFC000
0FFFFF0000
07FFFC0000
007FE00000
ENDCHAR
STARTCHAR colon
ENCODING 58
SWIDTH 602 0
DWIDTH 43 0
BBX 9 37 17 0
BITMAP
FF80
FF80
FF80
FF80
FF80
FF80
FF80
FF80
FF80
FF80
FF80
0000
0000
0000
0000
0000
0000
0000
0000
0000
0000
0000
0000
0000
0000
0000
FF80
FF80
FF80
FF80
FF80
FF80
FF80
FF80
FF80
FF80
FF80
ENDCHAR
STARTCHAR semicolon
ENCODING 59
SWIDTH 602 0
DWIDTH 43 0
BBX 12 47 14 -10
BITMAP
1FF0
1FF0
1FF0
1FF0
1FF0
1FF0
1FF0
1FF0
1FF0
1FF0
1FF0
0000
0000
0000
0000
0000
0000
0000
0000
0000
0000
0000
0000
0000
0000
0000
1FF0
1FF0
1FF0
1FF0
1FF0
1FF0
1FF0
1FF0
1FE0
1FE0
3FC0
3FC0
3F80
3F80
7F00
7F00
7E00
7E00
7C00
FC00
F800
ENDCHAR
STARTCHAR less
ENCODING 60
SWIDTH 602 0
DWIDTH 43 0
BBX 37 35 3 5
BITMAP
0000000008
0000000078
00000001F8
0000000FF8
0000003FF8
000001FFF8
000007FFF8
00003FFFC0
0001FFFE00
0007FFF800
003FFFC000
00FFFE0000
07FFF80000
1FFFC00000
FFFE000000
FFF8000000
FFC0000000
FE00000000
FFC0000000
FFF8000000
FFFE000000
1FFFC00000
07FFF80000
00FFFE0000
003FFFC000
0007FFF800
0001FFFE00
00003FFFC0
00000FFFF8
000001FFF8
0000003FF8
0000000FF8
00000001F8
0000000078
0000000008
ENDCHAR
STARTCHAR equal
ENCODING 61
SWIDTH 602 0
DWIDTH 43 0
BBX 37 20 3 12
BITMAP
FFFFFFFFF8
FFFFFFFFF8
FFFFFFFFF8
FFFFFFFFF8
FFFFFFFFF8
FFFFFFFFF8
0000000000
0000000000
0000000000
0000000000
0000000000
0000000000
0000000000
0000000000
FFFFFFFFF8
FFFFFFFFF8
FFFFFFFFF8
FFFFFFFFF8
FFFFFFFFF8
FFFFFFFFF8
ENDCHAR
STARTCHAR greater
ENCODING 62
SWIDTH 602 0
DWIDTH 43 0
BBX 37 35 3 5
BITMAP
8000000000
F000000000
FC00000000
FF80000000
FFE0000000
FFFC000000
FFFF800000
1FFFE00000
03FFFC0000
00FFFF0000
001FFFE000
0003FFF800
0000FFFF00
00001FFFC0
000003FFF8
000000FFF8
0000001FF8
00000003F8
0000001FF8
000000FFF8
000003FFF8
00001FFFC0
0000FFFF00
0003FFF800
001FFFE000
00FFFF0000
03FFFC0000
1FFFE00000
FFFF000000
FFFC000000
FFE0000000
FF80000000
FC00000000
F000000000
8000000000
ENDCHAR
STARTCHAR question
ENCODING 63
SWIDTH 602 0
DWIDTH 43 0
BBX 28 53 8 0
BITMAP
007FC000
07FFF800
1FFFFE00
7FFFFF00
FFFFFF80
FFFFFFC0
FF80FFE0
FC003FE0
F0001FE0
C0000FF0
800007F0
000007F0
000007F0
000007F0
000007F0
000007F0
00000FE0
00001FE0
00001FC0
00003FC0
00007F80
0000FF00
0001FE00
0003FC00
0007F800
000FF000
001FE000
003FC000
003F8000
003F8000
007F0000
007F0000
007F0000
007F0000
007F0000
007F0000
007F0000
007F0000
007F0000
00000000
00000000
00000000
00000000
00000000
007F0000
007F0000
007F0000
007F0000
007F0000
007F0000
007F0000
007F0000
007F0000
ENDCHAR
STARTCHAR at
ENCODING 64
SWIDTH 602 0
DWIDTH 43 0
BBX 40 60 1 -11
BITMAP
00001FF000
0001FFFE00
0007FFFF80
000FFFFFC0
003FFFFFE0
007FE01FF0
00FF8003F8
01FE0001FC
03F80000FC
07F000007E
07E000007E
0FC000003E
0FC000003F
1F8000001F
1F0000001F
3F0001FC1F
3E000FFF1F
3E001FFF9F
7E007FFFDF
7C00FFFFFF
7C00FF07FF
7C01FC01FF
7C01F800FF
F803F0007F
F803E0003F
F807E0003F
F807C0001F
F807C0001F
F807C0001F
F807C0001F
F807C0001F
F807C0001F
F807C0001F
F807C0001F
F807E0003F
F803E0003F
FC03F0007F
7C01F800FF
7C01FC01FF
7C00FF03FF
7E00FFFFFF
3E007FFFDF
3E001FFF9F
3F000FFF1F
1F0003FC00
1F80000000
0F80000000
0FC0000000
07E0000000
07F0000000
03F8000000
01FC000000
00FF000000
007FC00000
003FF801C0
001FFFFFC0
0007FFFFE0
0001FFFFE0
00007FFFE0
000007FE00
ENDCHAR
STARTCHAR A
ENCODING 65
SWIDTH 602 0
DWIDTH 43 0
BBX 41 52 1 0
BITMAP
0000FF800000
0000FF800000
0001FFC00000
0001FFC00000
0001FFC00000
0003FFE00000
0003F7E00000
0003F7E00000
0003F7E00000
0007F7F00000
0007E3F00000
0007E3F00000
000FE3F80000
000FC1F80000
000FC1F80000
001FC1FC0000
001FC1FC0000
001F80FC0000
003F80FE0000
003F80FE0000
003F00FE0000
007F007F0000
007F007F0000
007F007F0000
007E003F0000
00FE003F8000
00FE003F8000
00FE003F8000
01FC001FC000
01FC001FC000
01FC001FC000
03F8000FE000
03F8000FE000
03FFFFFFE000
07FFFFFFF000
07FFFFFFF000
07FFFFFFF000
0FFFFFFFF000
0FFFFFFFF800
0FE00003F800
0FE00003F800
1FE00003FC00
1FC00001FC00
1FC00001FC00
3FC00001FE00
3F800000FE00
3F800000FE00
7F800000FF00
7F0000007F00
7F0000007F00
FF0000007F80
FF0000007F80
ENDCHAR
STARTCHAR B
ENCODING 66
SWIDTH 602 0
DWIDTH 43 0
BBX 34 52 6 0
BITMAP
FFFFF80000
FFFFFF0000
FFFFFFC000
FFFFFFF000
FFFFFFF800
FFFFFFFC00
FE000FFC00
FE0003FE00
FE0000FE00
FE0000FF00
FE00007F00
FE00007F00
FE00007F00
FE00007F00
FE00007F00
FE00007F00
FE0000FF00
FE0000FE00
FE0001FE00
FE0003FC00
FE000FFC00
FFFFFFF800
FFFFFFE000
FFFFFF8000
FFFFFFC000
FFFFFFF000
FFFFFFF800
FE000FFC00
FE0001FE00
FE0000FF00
FE00007F00
FE00003F80
FE00003F80
FE00001FC0
FE00001FC0
FE00001FC0
FE00001FC0
FE00001FC0
FE00001FC0
FE00001FC0
FE00003FC0
FE00003FC0
FE00003F80
FE00007F80
FE0001FF80
FE0007FF00
FFFFFFFE00
FFFFFFFC00
FFFFFFF800
FFFFFFF000
FFFFFF8000
FFFFF80000
ENDCHAR
STARTCHAR C
ENCODING 67
SWIDTH 602 0
DWIDTH 43 0
BBX 33 54 5 -1
BITMAP
0000FFC000
0007FFF800
001FFFFE00
007FFFFF00
00FFFFFF80
01FFFFFF80
03FF807F80
07FE000F80
07F8000380
0FF0000180
1FE0000080
1FC0000000
3FC0000000
3F80000000
3F80000000
7F00000000
7F00000000
7F00000000
7F00000000
7F00000000
FE00000000
FE00000000
FE00000000
FE00000000
FE00000000
FE00000000
FE00000000
FE00000000
FE00000000
FE00000000
FE00000000
FE00000000
FE00000000
FE00000000
7F00000000
7F00000000
7F00000000
7F00000000
7F00000000
3F80000000
3F80000000
3FC0000000
1FC0000000
1FE0000080
0FF0000180
07F8000380
07FE000F80
03FF807F80
01FFFFFF80
00FFFFFF80
007FFFFF00
001FFFFE00
0007FFF800
0000FFC000
ENDCHAR
STARTCHAR D
ENCODING 68
SWIDTH 602 0
DWIDTH 43 0
BBX 34 52 5 0
BITMAP
FFFF800000
FFFFF80000
FFFFFE0000
FFFFFF8000
FFFFFFC000
FFFFFFE000
FE00FFF000
FE001FF800
FE0007FC00
FE0001FE00
FE0001FE00
FE0000FF00
FE00007F00
FE00007F00
FE00003F80
FE00003F80
FE00003F80
FE00003F80
FE00003F80
FE00001FC0
FE00001FC0
FE00001FC0
FE00001FC0
FE00001FC0
FE00001FC0
FE00001FC0
FE00001FC0
FE00001FC0
FE00001FC0
FE00001FC0
FE00001FC0
FE00001FC0
FE00001FC0
FE00003F80
FE00003F80
FE00003F80
FE00003F80
FE00003F80
FE00007F00
FE00007F00
FE0000FF00
FE0001FE00
FE0001FE00
FE0007FC00
FE001FF800
FE00FFF000
FFFFFFF000
FFFFFFC000
FFFFFF8000
FFFFFE0000
FFFFF80000
FFFF800000
ENDCHAR
STARTCHAR E
ENCODING 69
SWIDTH 602 0
DWIDTH 43 0
BBX 32 52 7 0
BITMAP
FFFFFFFE
FFFFFFFE
FFFFFFFE
FFFFFFFE
FFFFFFFE
FFFFFFFE
FE000000
FE000000
FE000000
FE000000
FE000000
FE000000
FE000000
FE000000
FE000000
FE000000
FE000000
FE000000
FE000000
FE000000
FE000000
FFFFFFFC
FFFFFFFC
FFFFFFFC
FFFFFFFC
FFFFFFFC
FFFFFFFC
FE000000
FE000000
FE000000
FE000000
FE000000
FE000000
FE000000
FE000000
FE000000
FE000000
FE000000
FE000000
FE000000
FE000000
FE000000
FE000000
FE000000
FE000000
FE000000
FFFFFFFF
FFFFFFFF
FFFFFFFF
FFFFFFFF
FFFFFFFF
FFFFFFFF
ENDCHAR
STARTCHAR F
ENCODING 70
SWIDTH 602 0
DWIDTH 43 0
BBX 31 52 8 0
BITMAP
FFFFFFFE
FFFFFFFE
FFFFFFFE
FFFFFFFE
FFFFFFFE
FFFFFFFE
FE000000
FE000000
FE000000
FE000000
FE000000
FE000000
FE000000
FE000000
FE000000
FE000000
FE000000
FE000000
FE000000
FE000000
FE000000
FFFFFFF8
FFFFFFF8
FFFFFFF8
FFFFFFF8
FFFFFFF8
FFFFFFF8
FE000000
FE000000
FE000000
FE000000
FE000000
FE000000
FE000000
FE000000
FE000000
FE000000
FE000000
FE000000
FE000000
FE000000
FE000000
FE000000
FE000000
FE000000
FE000000
FE000000
FE000000
FE000000
FE000000
FE000000
FE000000
ENDCHAR
STARTCHAR G
ENCODING 71
SWIDTH 602 0
DWIDTH 43 0
BBX 35 54 4 -1
BITMAP
0000FF8000
0007FFF800
001FFFFE00
007FFFFF00
00FFFFFF80
01FFFFFF80
03FF807F80
07FC000F80
07F8000380
0FF0000180
1FE0000080
1FC0000000
3FC0000000
3F80000000
3F80000000
7F00000000
7F00000000
7F00000000
7F00000000
7F00000000
FE00000000
FE00000000
FE00000000
FE00000000
FE00000000
FE00000000
FE000FFFE0
FE000FFFE0
FE000FFFE0
FE000FFFE0
FE000FFFE0
FE000FFFE0
FE00000FE0
FE00000FE0
7E00000FE0
7F00000FE0
7F00000FE0
7F00000FE0
7F00000FE0
3F80000FE0
3F80000FE0
3FC0000FE0
1FC0000FE0
1FE0000FE0
0FF0000FE0
0FF8000FE0
07FC001FE0
03FF807FE0
01FFFFFFE0
00FFFFFFC0
007FFFFF00
001FFFFE00
0007FFF800
0000FFC000
ENDCHAR
STARTCHAR H
ENCODING 72
SWIDTH 602 0
DWIDTH 43 0
BBX 34 52 5 0
BITMAP
FE00001FC0
FE00001FC0
FE00001FC0
FE00001FC0
FE00001FC0
FE00001FC0
FE00001FC0
FE00001FC0
FE00001FC0
FE00001FC0
FE00001FC0
FE00001FC0
FE00001FC0
FE00001FC0
FE00001FC0
FE00001FC0
FE00001FC0
FE00001FC0
FE00001FC0
FE00001FC0
FE00001FC0
FFFFFFFFC0
FFFFFFFFC0
FFFFFFFFC0
FFFFFFFFC0
FFFFFFFFC0
FFFFFFFFC0
FE00001FC0
FE00001FC0
FE00001FC0
FE00001FC0
FE00001FC0
FE00001FC0
FE00001FC0
FE00001FC0
FE00001FC0
FE00001FC0
FE00001FC0
FE00001FC0
FE00001FC0
FE00001FC0
FE00001FC0
FE00001FC0
FE00001FC0
FE00001FC0
FE00001FC0
FE00001FC0
FE00001FC0
FE00001FC0
FE00001FC0
FE00001FC0
FE00001FC0
ENDCHAR
STARTCHAR I
ENCODING 73
SWIDTH 602 0
DWIDTH 43 0
BBX 29 52 7 0
BITMAP
FFFFFFF8
FFFFFFF8
FFFFFFF8
FFFFFFF8
FFFFFFF8
FFFFFFF8
001FC000
001FC000
001FC000
001FC000
001FC000
001FC000
001FC000
001FC000
001FC000
001FC000
001FC000
001FC000
001FC000
001FC000
001FC000
001FC000
001FC000
001FC000
001FC000
001FC000
001FC000
001FC000
001FC000
001FC000
001FC000
001FC000
001FC000
001FC000
001FC000
001FC000
001FC000
001FC000
001FC000
001FC000
001FC000
001FC000
001FC000
001FC000
001FC000
001FC000
FFFFFFF8
FFFFFFF8
FFFFFFF8
FFFFFFF8
FFFFFFF8
FFFFFFF8
ENDCHAR
STARTCHAR J
ENCODING 74
SWIDTH 602 0
DWIDTH 43 0
BBX 30 53 4 -1
BITMAP
003FFFFC
003FFFFC
003FFFFC
003FFFFC
003FFFFC
003FFFFC
000001FC
000001FC
000001FC
000001FC
000001FC
000001FC
000001FC
000001FC
000001FC
000001FC
000001FC
000001FC
000001FC
000001FC
000001FC
000001FC
000001FC
000001FC
000001FC
000001FC
000001FC
000001FC
000001FC
000001FC
000001FC
000001FC
000001FC
000001FC
000001FC
000001FC
000001FC
000001FC
000001FC
000001FC
000003FC
800003F8
C00003F8
E00003F8
F80007F8
FE000FF0
FFC03FF0
FFFFFFE0
FFFFFFE0
7FFFFFC0
1FFFFF00
07FFFE00
007FE000
ENDCHAR
STARTCHAR K
ENCODING 75
SWIDTH 602 0
DWIDTH 43 0
BBX 38 52 5 0
BITMAP
FE000007F8
FE00000FF0
FE00001FE0
FE00003FC0
FE00007F80
FE0000FF00
FE0001FE00
FE0003FC00
FE0007F800
FE000FF000
FE001FE000
FE003FC000
FE007FC000
FE00FF8000
FE01FF0000
FE03FE0000
FE07FC0000
FE0FF80000
FE1FF00000
FE3FE00000
FE7FC00000
FE7F800000
FEFFC00000
FFFFE00000
FFFFE00000
FFFFF00000
FFF7F80000
FFE7F80000
FFC3FC0000
FF81FE0000
FF01FE0000
FE00FF0000
FE007F8000
FE007F8000
FE003FC000
FE001FE000
FE001FF000
FE000FF000
FE0007F800
FE0007FC00
FE0003FC00
FE0001FE00
FE0001FF00
FE0000FF00
FE00007F80
FE00007FC0
FE00003FC0
FE00001FE0
FE00001FF0
FE00000FF0
FE000007F8
FE000007FC
ENDCHAR
STARTCHAR L
ENCODING 76
SWIDTH 602 0
DWIDTH 43 0
BBX 32 52 8 0
BITMAP
FE000000
FE000000
FE000000
FE000000
FE000000
FE000000
FE000000
FE000000
FE000000
FE000000
FE000000
FE000000
FE000000
FE000000
FE000000
FE000000
FE000000
FE000000
FE000000
FE000000
FE000000
FE000000
FE000000
FE000000
FE000000
FE000000
FE000000
FE000000
FE000000
FE000000
FE000000
FE000000
FE000000
FE000000
FE000000
FE000000
FE000000
FE000000
FE000000
FE000000
FE000000
FE000000
FE000000
FE000000
FE000000
FE000000
FFFFFFFF
FFFFFFFF
FFFFFFFF
FFFFFFFF
FFFFFFFF
FFFFFFFF
ENDCHAR
STARTCHAR M
ENCODING 77
SWIDTH 602 0
DWIDTH 43 0
BBX 37 52 3 0
BITMAP
FF80000FF8
FFC0001FF8
FFC0001FF8
FFC0001FF8
FFE0003FF8
FFE0003FF8
FFE0003FF8
FDF0007DF8
FDF0007DF8
FDF000FDF8
FCF800F9F8
FCF800F9F8
FCFC01F9F8
FC7C01F1F8
FC7C01F1F8
FC7E03F1F8
FC3E03E1F8
FC3E03E1F8
FC1F07E1F8
FC1F07C1F8
FC1F0FC1F8
FC0F8F81F8
FC0F8F81F8
FC0FDF81F8
FC07DF01F8
FC07DF01F8
FC07FF01F8
FC03FE01F8
FC03FE01F8
FC03FE01F8
FC01FC01F8
FC01FC01F8
FC00FC01F8
FC000001F8
FC000001F8
FC000001F8
FC000001F8
FC000001F8
FC000001F8
FC000001F8
FC000001F8
FC000001F8
FC000001F8
FC000001F8
FC000001F8
FC000001F8
FC000001F8
FC000001F8
FC000001F8
FC000001F8
FC000001F8
FC000001F8
ENDCHAR
STARTCHAR N
ENCODING 78
SWIDTH 602 0
DWIDTH 43 0
BBX 34 52 5 0
BITMAP
FF80001FC0
FFC0001FC0
FFC0001FC0
FFE0001FC0
FFE0001FC0
FFE0001FC0
FFF0001FC0
FFF0001FC0
FFF8001FC0
FFF8001FC0
FEFC001FC0
FEFC001FC0
FEFC001FC0
FE7E001FC0
FE7E001FC0
FE3F001FC0
FE3F001FC0
FE3F001FC0
FE1F801FC0
FE1F801FC0
FE0FC01FC0
FE0FC01FC0
FE07E01FC0
FE07E01FC0
FE07E01FC0
FE03F01FC0
FE03F01FC0
FE01F81FC0
FE01F81FC0
FE01F81FC0
FE00FC1FC0
FE00FC1FC0
FE007E1FC0
FE007E1FC0
FE003F1FC0
FE003F1FC0
FE003F1FC0
FE001F9FC0
FE001F9FC0
FE000FDFC0
FE000FDFC0
FE000FDFC0
FE0007FFC0
FE0007FFC0
FE0003FFC0
FE0003FFC0
FE0001FFC0
FE0001FFC0
FE0001FFC0
FE0000FFC0
FE0000FFC0
FE00007FC0
ENDCHAR
STARTCHAR O
ENCODING 79
SWIDTH 602 0
DWIDTH 43 0
BBX 35 54 4 -1
BITMAP
0007FC0000
003FFF8000
00FFFFE000
01FFFFF000
03FFFFF800
07FFFFFC00
0FFC07FE00
0FF001FE00
1FE000FF00
1FC0007F00
3FC0007F80
3F80003F80
3F80003F80
7F00001F80
7F00001FC0
7F00001FC0
7F00001FC0
7F00001FC0
FF00000FC0
FE00000FE0
FE00000FE0
FE00000FE0
FE00000FE0
FE00000FE0
FE00000FE0
FE00000FE0
FE00000FE0
FE00000FE0
FE00000FE0
FE00000FE0
FE00000FE0
FE00000FE0
FE00000FE0
FE00000FE0
FE00000FE0
FE00000FC0
7F00001FC0
7F00001FC0
7F00001FC0
7F00001FC0
7F00001FC0
3F80003F80
3F80003F80
3FC0007F80
1FC0007F00
1FE000FF00
0FF001FE00
0FFC07FE00
07FFFFFC00
03FFFFF800
01FFFFF000
00FFFFE000
003FFF8000
0007FC0000
ENDCHAR
STARTCHAR P
ENCODING 80
SWIDTH 602 0
DWIDTH 43 0
BBX 34 52 7 0
BITMAP
FFFFFC0000
FFFFFF8000
FFFFFFE000
FFFFFFF800
FFFFFFFC00
FFFFFFFE00
FE000FFF00
FE0001FF00
FE0000FF80
FE00007F80
FE00003F80
FE00003FC0
FE00001FC0
FE00001FC0
FE00001FC0
FE00001FC0
FE00001FC0
FE00001FC0
FE00001FC0
FE00003FC0
FE00003F80
FE00007F80
FE0000FF80
FE0001FF00
FE000FFF00
FFFFFFFE00
FFFFFFFC00
FFFFFFF800
FFFFFFE000
FFFFFF8000
FFFFFC0000
FE00000000
FE00000000
FE00000000
FE00000000
FE00000000
FE00000000
FE00000000
FE00000000
FE00000000
FE00000000
FE00000000
FE00000000
FE00000000
FE00000000
FE00000000
FE00000000
FE00000000
FE00000000
FE00000000
FE00000000
FE00000000
ENDCHAR
STARTCHAR Q
ENCODING 81
SWIDTH 602 0
DWIDTH 43 0
BBX 35 63 4 -10
BITMAP
0007FC0000
003FFF8000
00FFFFE000
01FFFFF000
03FFFFF800
07FFFFFC00
0FFC07FE00
0FF001FE00
1FE000FF00
1FC0007F00
3FC0007F80
3F80003F80
3F80003F80
7F00001FC0
7F00001FC0
7F00001FC0
7F00001FC0
7F00001FC0
FF00000FC0
FE00000FE0
FE00000FE0
FE00000FE0
FE00000FE0
FE00000FE0
FE00000FE0
FE00000FE0
FE00000FE0
FE00000FE0
FE00000FE0
FE00000FE0
FE00000FE0
FE00000FE0
FE00000FE0
FE00000FE0
FE00000FE0
FE00000FE0
7F00001FC0
7F00001FC0
7F00001FC0
7F00001FC0
7F00001FC0
3F80003F80
3F80003F80
3FC0007F80
1FC0007F00
1FE000FF00
0FF001FE00
0FFC07FE00
07FFFFFC00
03FFFFF800
01FFFFF000
00FFFFE000
003FFFC000
0007FFE000
00001FF000
00000FF800
000007FC00
000003FE00
000001FF00
000000FF00
0000007E00
0000003800
0000001000
ENDCHAR
STARTCHAR R
ENCODING 82
SWIDTH 602 0
DWIDTH 43 0
BBX 38 52 5 0
BITMAP
FFFFF00000
FFFFFF0000
FFFFFFC000
FFFFFFE000
FFFFFFF000
FFFFFFF800
FE001FFC00
FE0007FC00
FE0003FE00
FE0001FE00
FE0000FE00
FE0000FF00
FE00007F00
FE00007F00
FE00007F00
FE00007F00
FE00007F00
FE00007F00
FE00007F00
FE0000FE00
FE0000FE00
FE0001FE00
FE0007FC00
FE001FF800
FFFFFFF000
FFFFFFE000
FFFFFF8000
FFFFFC0000
FFFFFF0000
FFFFFFC000
FE007FE000
FE001FE000
FE000FF000
FE0007F800
FE0003F800
FE0001FC00
FE0001FC00
FE0000FE00
FE0000FE00
FE00007F00
FE00007F00
FE00003F80
FE00003F80
FE00001FC0
FE00001FC0
FE00001FE0
FE00000FE0
FE00000FF0
FE000007F0
FE000007F8
FE000003F8
FE000003FC
ENDCHAR
STARTCHAR S
ENCODING 83
SWIDTH 602 0
DWIDTH 43 0
BBX 34 54 5 -1
BITMAP
0007FE0000
007FFFE000
01FFFFFC00
03FFFFFE00
0FFFFFFE00
0FFFFFFE00
1FFC03FE00
3FE0003E00
3FC0000E00
7F80000200
7F00000000
FF00000000
FE00000000
FE00000000
FE00000000
FE00000000
FE00000000
FE00000000
FF00000000
FF80000000
7FC0000000
7FF0000000
3FFC000000
3FFFE00000
1FFFFC0000
0FFFFF8000
03FFFFE000
00FFFFF800
003FFFFC00
0007FFFE00
00003FFF00
000007FF00
000001FF80
0000007F80
0000003F80
0000003FC0
0000001FC0
0000001FC0
0000001FC0
0000001FC0
0000001FC0
0000001FC0
0000003FC0
0000003F80
4000007F80
700000FF80
7E0001FF00
7FE00FFF00
7FFFFFFE00
7FFFFFFC00
7FFFFFF800
3FFFFFE000
07FFFF8000
003FFC0000
ENDCHAR
STARTCHAR T
ENCODING 84
SWIDTH 602 0
DWIDTH 43 0
BBX 39 52 2 0
BITMAP
FFFFFFFFFE
FFFFFFFFFE
FFFFFFFFFE
FFFFFFFFFE
FFFFFFFFFE
FFFFFFFFFE
0000FE0000
0000FE0000
0000FE0000
0000FE0000
0000FE0000
0000FE0000
0000FE0000
0000FE0000
0000FE0000
0000FE0000
0000FE0000
0000FE0000
0000FE0000
0000FE0000
0000FE0000
0000FE0000
0000FE0000
0000FE0000
0000FE0000
0000FE0000
0000FE0000
0000FE0000
0000FE0000
0000FE0000
0000FE0000
0000FE0000
0000FE0000
0000FE0000
0000FE0000
0000FE0000
0000FE0000
0000FE0000
0000FE0000
0000FE0000
0000FE0000
0000FE0000
0000FE0000
0000FE0000
0000FE0000
0000FE0000
0000FE0000
0000FE0000
0000FE0000
0000FE0000
0000FE0000
0000FE0000
ENDCHAR
STARTCHAR U
ENCODING 85
SWIDTH 602 0
DWIDTH 43 0
BBX 33 53 5 -1
BITMAP
FE00003F80
FE00003F80
FE00003F80
FE00003F80
FE00003F80
FE00003F80
FE00003F80
FE00003F80
FE00003F80
FE00003F80
FE00003F80
FE00003F80
FE00003F80
FE00003F80
FE00003F80
FE00003F80
FE00003F80
FE00003F80
FE00003F80
FE00003F80
FE00003F80
FE00003F80
FE00003F80
FE00003F80
FE00003F80
FE00003F80
FE00003F80
FE00003F80
FE00003F80
FE00003F80
FE00003F80
FE00003F80
FE00003F80
FE00003F80
FE00003F80
FE00003F80
FE00003F80
FE00003F80
FE00003F80
FE00003F80
FE00003F80
7E00003F00
7F00007F00
7F00007F00
7F8000FF00
3FC001FE00
3FF80FFE00
1FFFFFFC00
0FFFFFF800
07FFFFF000
01FFFFC000
007FFF8000
000FF80000
ENDCHAR
STARTCHAR V
ENCODING 86
SWIDTH 602 0
DWIDTH 43 0
BBX 39 52 2 0
BITMAP
FE000000FE
FF000001FE
7F000001FC
7F000001FC
7F000001FC
3F800003F8
3F800003F8
3F800003F8
3FC00007F8
1FC00007F0
1FC00007F0
1FC00007F0
0FE0000FE0
0FE0000FE0
0FE0000FE0
07E0000FC0
07F0001FC0
07F0001FC0
07F0001FC0
03F0001F80
03F8003F80
03F8003F80
01F8003F00
01F8007F00
01FC007F00
01FC007F00
00FC007E00
00FE00FE00
00FE00FE00
007E00FC00
007E00FC00
007F01FC00
003F01F800
003F01F800
003F01F800
003F83F800
001F83F000
001F83F000
001F87F000
000FC7E000
000FC7E000
000FC7E000
000FEFE000
0007EFC000
0007EFC000
0007EFC000
0003FF8000
0003FF8000
0003FF8000
0003FF8000
0001FF0000
0001FF0000
ENDCHAR
STARTCHAR W
ENCODING 87
SWIDTH 602 0
DWIDTH 43 0
BBX 43 52 0 0
BITMAP
FE0000000FE0
FE0000000FE0
FE0000000FE0
7E0000000FC0
7E0000000FC0
7F0000001FC0
7F0000001FC0
7F0000001FC0
7F0000001FC0
7F0000001FC0
3F0000001F80
3F0000001F80
3F0000001F80
3F0000001F80
3F803F803F80
3F807F803F80
3F807FC03F80
1F807FC03F00
1F807FC03F00
1F807FC03F00
1F80FFE03F00
1F80FBE03F00
1FC0FBE07F00
0FC0FBE07E00
0FC0FBE07E00
0FC1F1F07E00
0FC1F1F07E00
0FC1F1F07E00
0FC1F1F07E00
0FC1F1F07E00
07C3E0F87C00
07E3E0F8FC00
07E3E0F8FC00
07E3E0F8FC00
07E7C07CFC00
07E7C07CFC00
07E7C07CFC00
03E7C07CF800
03E7C07CF800
03FF803FF800
03FF803FF800
03FF803FF800
03FF803FF800
01FF001FF800
01FF001FF000
01FF001FF000
01FF001FF000
01FE000FF000
01FE000FF000
01FE000FF000
00FE000FE000
00FE000FE000
ENDCHAR
STARTCHAR X
ENCODING 88
SWIDTH 602 0
DWIDTH 43 0
BBX 42 52 1 0
BITMAP
3FC000007F80
1FE00000FF00
0FE00000FE00
0FF00001FE00
07F00001FC00
07F80003F800
03FC0007F800
01FC0007F000
01FE000FE000
00FE000FE000
007F001FC000
007F803FC000
003F803F8000
003FC07F0000
001FC0FF0000
000FE0FE0000
000FF1FC0000
0007F1FC0000
0003FBF80000
0003FFF00000
0001FFF00000
0000FFE00000
0000FFC00000
00007FC00000
00007F800000
00007FC00000
0000FFC00000
0001FFE00000
0001FFF00000
0003FFF00000
0003FBF80000
0007F3F80000
000FF1FC0000
000FE0FE0000
001FC0FE0000
003FC07F0000
003F807F8000
007F803F8000
00FF001FC000
00FE001FC000
01FE000FE000
01FC000FF000
03F80007F000
07F80007F800
07F00003F800
0FF00001FC00
1FE00001FE00
1FC00000FE00
3FC00000FF00
3F8000007F00
7F8000003F80
FF0000003FC0
ENDCHAR
STARTCHAR Y
ENCODING 89
SWIDTH 602 0
DWIDTH 43 0
BBX 41 52 1 0
BITMAP
FF0000007F80
7F800000FF00
7F800000FF00
3FC00001FE00
1FC00001FC00
1FE00003FC00
0FE00003F800
0FF00007F800
07F00007F000
03F8000FE000
03FC001FE000
01FC001FC000
01FE003FC000
00FE003F8000
007F007F0000
007F007F0000
003F80FE0000
003F80FE0000
001FC1FC0000
000FE3F80000
000FE3F80000
0007F7F00000
0007F7F00000
0003FFE00000
0001FFC00000
0001FFC00000
0000FF800000
0000FF800000
00007F000000
00007F000000
00007F000000
00007F000000
00007F000000
00007F000000
00007F000000
00007F000000
00007F000000
00007F000000
00007F000000
00007F000000
00007F000000
00007F000000
00007F000000
00007F000000
00007F000000
00007F000000
00007F000000
00007F000000
00007F000000
00007F000000
00007F000000
00007F000000
ENDCHAR
STARTCHAR Z
ENCODING 90
SWIDTH 602 0
DWIDTH 43 0
BBX 36 52 5 0
BITMAP
7FFFFFFFE0
7FFFFFFFE0
7FFFFFFFE0
7FFFFFFFE0
7FFFFFFFE0
7FFFFFFFE0
0000001FC0
0000003FC0
0000007F80
0000007F00
000000FF00
000001FE00
000001FC00
000003FC00
000007F800
000007F000
00000FF000
00001FE000
00001FC000
00003F8000
00007F8000
00007F0000
0000FE0000
0001FE0000
0001FC0000
0003F80000
0007F80000
0007F00000
000FE00000
001FE00000
001FC00000
003F800000
007F800000
007F000000
00FE000000
01FE000000
01FC000000
03F8000000
07F8000000
07F0000000
0FE0000000
1FE0000000
1FC0000000
3F80000000
7F80000000
7F00000000
FFFFFFFFF0
FFFFFFFFF0
FFFFFFFFF0
FFFFFFFFF0
FFFFFFFFF0
FFFFFFFFF0
ENDCHAR
STARTCHAR bracketleft
ENCODING 91
SWIDTH 602 0
DWIDTH 43 0
BBX 14 64 16 -9
BITMAP
FFFC
FFFC
FFFC
FFFC
FFFC
FC00
FC00
FC00
FC00
FC00
FC00
FC00
FC00
FC00
FC00
FC00
FC00
FC00
FC00
FC00
FC00
FC00
FC00
FC00
FC00
FC00
FC00
FC00
FC00
FC00
FC00
FC00
FC00
FC00
FC00
FC00
FC00
FC00
FC00
FC00
FC00
FC00
FC00
FC00
FC00
FC00
FC00
FC00
FC00
FC00
FC00
FC00
FC00
FC00
FC00
FC00
FC00
FC00
FC00
FFFC
FFFC
FFFC
FFFC
FFFC
ENDCHAR
STARTCHAR backslash
ENCODING 92
SWIDTH 602 0
DWIDTH 43 0
BBX 35 59 4 -7
BITMAP
FE00000000
7F00000000
7F00000000
3F80000000
3F80000000
1FC0000000
1FC0000000
0FE0000000
0FE0000000
0FF0000000
07F0000000
07F0000000
03F8000000
03F8000000
01FC000000
01FC000000
00FE000000
00FE000000
007F000000
007F000000
003F800000
003F800000
001FC00000
001FC00000
000FE00000
000FE00000
0007F00000
0007F00000
0003F80000
0003F80000
0003F80000
0001FC0000
0001FC0000
0000FE0000
0000FE0000
00007F0000
00007F0000
00003F8000
00003F8000
00001FC000
00001FC000
00000FE000
00000FE000
000007F000
000007F000
000003F800
000003F800
000001FC00
000001FC00
000001FE00
000000FE00
000000FE00
0000007F00
0000007F00
0000003F80
0000003F80
0000001FC0
0000001FC0
0000000FE0
ENDCHAR
STARTCHAR bracketright
ENCODING 93
SWIDTH 602 0
DWIDTH 43 0
BBX 14 64 13 -9
BITMAP
FFFC
FFFC
FFFC
FFFC
FFFC
00FC
00FC
00FC
00FC
00FC
00FC
00FC
00FC
00FC
00FC
00FC
00FC
00FC
00FC
00FC
00FC
00FC
00FC
00FC
00FC
00FC
00FC
00FC
00FC
00FC
00FC
00FC
00FC
00FC
00FC
00FC
00FC
00FC
00FC
00FC
00FC
00FC
00FC
00FC
00FC
00FC
00FC
00FC
00FC
00FC
00FC
00FC
00FC
00FC
00FC
00FC
00FC
00FC
00FC
FFFC
FFFC
FFFC
FFFC
FFFC
ENDCHAR
STARTCHAR asciicircum
ENCODING 94
SWIDTH 602 0
DWIDTH 43 0
BBX 38 20 3 32
BITMAP
0001FC0000
0001FE0000
0003FF0000
0007FF8000
000FFFC000
000FFFC000
001FCFE000
003F8FF000
007F87F800
00FF03FC00
00FE01FC00
01FC00FE00
03F8007F00
07F0003F80
0FE0001FC0
0FC0000FC0
1F800007E0
3F000003F0
7F000003F8
FE000001FC
ENDCHAR
STARTCHAR underscore
ENCODING 95
SWIDTH 602 0
DWIDTH 43 0
BBX 36 5 0 -17
BITMAP
FFFFFFFFF0
FFFFFFFFF0
FFFFFFFFF0
FFFFFFFFF0
FFFFFFFFF0
ENDCHAR
STARTCHAR grave
ENCODING 96
SWIDTH 602 0
DWIDTH 43 0
BBX 17 13 10 45
BITMAP
FE0000
7F0000
3F8000
1FC000
0FC000
07E000
03F000
01F800
00FC00
00FC00
007E00
003F00
001F80
ENDCHAR
STARTCHAR a
ENCODING 97
SWIDTH 602 0
DWIDTH 43 0
BBX 33 41 5 -1
BITMAP
001FFC0000
01FFFF8000
0FFFFFE000
1FFFFFF000
1FFFFFFC00
1FF007FC00
1F0000FE00
1C00007F00
1000003F00
0000003F00
0000001F80
0000001F80
0000001F80
0000001F80
0000001F80
000FFFFF80
00FFFFFF80
03FFFFFF80
0FFFFFFF80
1FFFFFFF80
3FF8001F80
3FC0001F80
7F80001F80
7E00001F80
FE00001F80
FC00001F80
FC00003F80
FC00003F80
FC00003F80
FC00007F80
FC00007F80
FE0000FF80
7E0001FF80
7F0003FF80
7F8007FF80
3FE03FDF80
1FFFFFDF80
0FFFFF1F80
07FFFE1F80
03FFF81F80
007FE00000
ENDCHAR
STARTCHAR b
ENCODING 98
SWIDTH 602 0
DWIDTH 43 0
BBX 34 56 7 -1
BITMAP
FC00000000
FC00000000
FC00000000
FC00000000
FC00000000
FC00000000
FC00000000
FC00000000
FC00000000
FC00000000
FC00000000
FC00000000
FC00000000
FC00000000
FC00000000
FC07FC0000
FC3FFF8000
FC7FFFC000
FCFFFFF000
FDFFFFF800
FFF80FFC00
FFE003FC00
FFC001FE00
FF8000FF00
FF00007F00
FF00007F00
FE00003F80
FE00003F80
FE00003F80
FE00003F80
FC00001FC0
FC00001FC0
FC00001FC0
FC00001FC0
FC00001FC0
FC00001FC0
FC00001FC0
FC00001FC0
FC00001FC0
FC00001FC0
FC00001FC0
FC00003F80
FE00003F80
FE00003F80
FE00003F80
FF00007F00
FF00007F00
FF8000FF00
FFC001FE00
FFE003FC00
FFF80FFC00
FDFFFFF800
FCFFFFF000
FC7FFFC000
FC3FFF8000
0007FC0000
ENDCHAR
STARTCHAR c
ENCODING 99
SWIDTH 602 0
DWIDTH 43 0
BBX 30 41 7 -1
BITMAP
0003FF80
001FFFF8
007FFFFC
01FFFFFC
03FFFFFC
07FF01FC
0FF8003C
1FF0000C
1FE00004
3FC00000
3F800000
7F800000
7F000000
7F000000
7F000000
FE000000
FE000000
FE000000
FE000000
FE000000
FE000000
FE000000
FE000000
FE000000
FE000000
FE000000
7F000000
7F000000
7F000000
7F800000
3F800000
3FC00000
1FE00004
1FF0000C
0FF8003C
07FF00FC
03FFFFFC
01FFFFFC
007FFFFC
001FFFF8
0003FF80
ENDCHAR
STARTCHAR d
ENCODING 100
SWIDTH 602 0
DWIDTH 43 0
BBX 34 56 4 -1
BITMAP
0000000FC0
0000000FC0
0000000FC0
0000000FC0
0000000FC0
0000000FC0
0000000FC0
0000000FC0
0000000FC0
0000000FC0
0000000FC0
0000000FC0
0000000FC0
0000000FC0
0000000FC0
000FF80FC0
007FFF0FC0
00FFFF8FC0
03FFFFCFC0
07FFFFEFC0
0FFC07FFC0
0FF001FFC0
1FE000FFC0
3FC0007FC0
3F80003FC0
3F80003FC0
7F00001FC0
7F00001FC0
7F00001FC0
FE00001FC0
FE00000FC0
FE00000FC0
FE00000FC0
FE00000FC0
FE00000FC0
FE00000FC0
FE00000FC0
FE00000FC0
FE00000FC0
FE00000FC0
FE00000FC0
FE00001FC0
7F00001FC0
7F00001FC0
7F00001FC0
3F80003FC0
3F80003FC0
3FC0007FC0
1FE000FFC0
0FF001FFC0
0FFC07FFC0
07FFFFEFC0
03FFFFCFC0
00FFFF8FC0
007FFF0FC0
000FF80000
ENDCHAR
STARTCHAR e
ENCODING 101
SWIDTH 602 0
DWIDTH 43 0
BBX 35 41 4 -1
BITMAP
0003FE0000
001FFFC000
007FFFF000
01FFFFF800
03FFFFFC00
07FE03FE00
0FF800FF00
0FE0003F00
1FC0001F80
3FC0001F80
3F80000FC0
7F00000FC0
7F00000FC0
7F000007E0
7E000007E0
FE000007E0
FE000007E0
FFFFFFFFE0
FFFFFFFFE0
FFFFFFFFE0
FFFFFFFFE0
FFFFFFFFE0
FE00000000
FE00000000
FE00000000
FE00000000
7E00000000
7E00000000
7F00000000
7F00000000
3F80000000
3F80000000
1FC0000080
1FE0000380
0FF8001F80
07FE00FF80
03FFFFFF80
01FFFFFF80
007FFFFF00
001FFFF800
0003FF8000
ENDCHAR
STARTCHAR f
ENCODING 102
SWIDTH 602 0
DWIDTH 43 0
BBX 31 55 6 0
BITMAP
00001FFE
0000FFFE
0001FFFE
0003FFFE
0007FFFE
000FF000
000FC000
000FC000
001F8000
001F8000
001F8000
001F8000
001F8000
001F8000
001F8000
001F8000
FFFFFFFE
FFFFFFFE
FFFFFFFE
FFFFFFFE
FFFFFFFE
001F8000
001F8000
001F8000
001F8000
001F8000
001F8000
001F8000
001F8000
001F8000
001F8000
001F8000
001F8000
001F8000
001F8000
001F8000
001F8000
001F8000
001F8000
001F8000
001F8000
001F8000
001F8000
001F8000
001F8000
001F8000
001F8000
001F8000
001F8000
001F8000
001F8000
001F8000
001F8000
001F8000
001F8000
ENDCHAR
STARTCHAR g
ENCODING 103
SWIDTH 602 0
DWIDTH 43 0
BBX 34 55 4 -15
BITMAP
000FF80000
007FFF0FC0
00FFFF8FC0
03FFFFCFC0
07FFFFEFC0
0FFC07FFC0
0FF001FFC0
1FE000FFC0
3FC0007FC0
3F80003FC0
3F80003FC0
7F00001FC0
7F00001FC0
7F00001FC0
FE00000FC0
FE00000FC0
FE00000FC0
FE00000FC0
FE00000FC0
FE00000FC0
FE00000FC0
FE00000FC0
FE00000FC0
FE00000FC0
FE00000FC0
FE00000FC0
7F00001FC0
7F00001FC0
7F00001FC0
3F80003FC0
3F80003FC0
3FC0007FC0
1FE000FFC0
0FF001FFC0
0FFC07FFC0
07FFFFEFC0
03FFFFCFC0
00FFFF8FC0
007FFE0FC0
000FF80FC0
0000000FC0
0000000FC0
0000000FC0
0000001F80
0000001F80
0000001F80
0000003F00
0800007F00
0F0000FE00
0FF007FC00
0FFFFFFC00
0FFFFFF000
0FFFFFE000
03FFFF8000
003FFC0000
ENDCHAR
STARTCHAR h
ENCODING 104
SWIDTH 602 0
DWIDTH 43 0
BBX 30 55 7 0
BITMAP
FC000000
FC000000
FC000000
FC000000
FC000000
FC000000
FC000000
FC000000
FC000000
FC000000
FC000000
FC000000
FC000000
FC000000
FC000000
FC03FC00
FC1FFF00
FC7FFFC0
FCFFFFE0
FDFFFFE0
FFF81FF0
FFC007F8
FF8003F8
FF0001F8
FF0001F8
FE0001FC
FE0000FC
FE0000FC
FC0000FC
FC0000FC
FC0000FC
FC0000FC
FC0000FC
FC0000FC
FC0000FC
FC0000FC
FC0000FC
FC0000FC
FC0000FC
FC0000FC
FC0000FC
FC0000FC
FC0000FC
FC0000FC
FC0000FC
FC0000FC
FC0000FC
FC0000FC
FC0000FC
FC0000FC
FC0000FC
FC0000FC
FC0000FC
FC0000FC
FC0000FC
ENDCHAR
STARTCHAR i
ENCODING 105
SWIDTH 602 0
DWIDTH 43 0
BBX 32 55 6 0
BITMAP
0007E000
0007E000
0007E000
0007E000
0007E000
0007E000
0007E000
0007E000
00000000
00000000
00000000
00000000
00000000
00000000
00000000
00000000
1FFFE000
1FFFE000
1FFFE000
1FFFE000
1FFFE000
0007E000
0007E000
0007E000
0007E000
0007E000
0007E000
0007E000
0007E000
0007E000
0007E000
0007E000
0007E000
0007E000
0007E000
0007E000
0007E000
0007E000
0007E000
0007E000
0007E000
0007E000
0007E000
0007E000
0007E000
0007E000
0007E000
0007E000
0007E000
0007E000
FFFFFFFF
FFFFFFFF
FFFFFFFF
FFFFFFFF
FFFFFFFF
ENDCHAR
STARTCHAR j
ENCODING 106
SWIDTH 602 0
DWIDTH 43 0
BBX 21 70 6 -15
BITMAP
0001F8
0001F8
0001F8
0001F8
0001F8
0001F8
0001F8
0001F8
000000
000000
000000
000000
000000
000000
000000
000000
0FFFF8
0FFFF8
0FFFF8
0FFFF8
0FFFF8
0001F8
0001F8
0001F8
0001F8
0001F8
0001F8
0001F8
0001F8
0001F8
0001F8
0001F8
0001F8
0001F8
0001F8
0001F8
0001F8
0001F8
0001F8
0001F8
0001F8
0001F8
0001F8
0001F8
0001F8
0001F8
0001F8
0001F8
0001F8
0001F8
0001F8
0001F8
0001F8
0001F8
0001F8
0001F8
0001F8
0001F8
0001F8
0001F8
0003F8
0003F0
0003F0
0007F0
001FE0
FFFFE0
FFFFC0
FFFF80
FFFF00
FFF800
ENDCHAR
STARTCHAR k
ENCODING 107
SWIDTH 602 0
DWIDTH 43 0
BBX 34 55 8 0
BITMAP
FC00000000
FC00000000
FC00000000
FC00000000
FC00000000
FC00000000
FC00000000
FC00000000
FC00000000
FC00000000
FC00000000
FC00000000
FC00000000
FC00000000
FC00000000
FC00000000
FC0001FE00
FC0003FC00
FC0007F800
FC000FF000
FC001FE000
FC007FC000
FC00FF0000
FC01FE0000
FC03FC0000
FC07F80000
FC0FF00000
FC1FE00000
FC3FC00000
FC7F800000
FCFF000000
FDFF000000
FFFF800000
FFFFC00000
FFFFC00000
FFDFE00000
FF8FF00000
FF07F80000
FE03FC0000
FC03FC0000
FC01FE0000
FC00FF0000
FC007F8000
FC007F8000
FC003FC000
FC001FE000
FC000FF000
FC000FF000
FC0007F800
FC0003FC00
FC0001FE00
FC0001FE00
FC0000FF00
FC00007F80
FC00007FC0
ENDCHAR
STARTCHAR l
ENCODING 108
SWIDTH 602 0
DWIDTH 43 0
BBX 33 55 3 0
BITMAP
FFFFE00000
FFFFE00000
FFFFE00000
FFFFE00000
FFFFE00000
0007E00000
0007E00000
0007E00000
0007E00000
0007E00000
0007E00000
0007E00000
0007E00000
0007E00000
0007E00000
0007E00000
0007E00000
0007E00000
0007E00000
0007E00000
0007E00000
0007E00000
0007E00000
0007E00000
0007E00000
0007E00000
0007E00000
0007E00000
0007E00000
0007E00000
0007E00000
0007E00000
0007E00000
0007E00000
0007E00000
0007E00000
0007E00000
0007E00000
0007E00000
0007E00000
0007E00000
0007E00000
0007E00000
0007E00000
0007E00000
0007F00000
0003F00000
0003F00000
0003F80000
0001FE0000
0001FFFF80
0000FFFF80
00007FFF80
00001FFF80
000007FF80
ENDCHAR
STARTCHAR m
ENCODING 109
SWIDTH 602 0
DWIDTH 43 0
BBX 36 40 4 0
BITMAP
003F00FE00
FCFFC3FF00
FDFFE7FF80
FFFFE7FFC0
FFFFFFFFC0
FF07FF0FE0
FE03FC07E0
FE03FC07E0
FE03FC07E0
FC01F803F0
FC01F803F0
FC01F803F0
FC01F803F0
FC01F803F0
FC01F803F0
FC01F803F0
FC01F803F0
FC01F803F0
FC01F803F0
FC01F803F0
FC01F803F0
FC01F803F0
FC01F803F0
FC01F803F0
FC01F803F0
FC01F803F0
FC01F803F0
FC01F803F0
FC01F803F0
FC01F803F0
FC01F803F0
FC01F803F0
FC01F803F0
FC01F803F0
FC01F803F0
FC01F803F0
FC01F803F0
FC01F803F0
FC01F803F0
FC01F803F0
ENDCHAR
STARTCHAR n
ENCODING 110
SWIDTH 602 0
DWIDTH 43 0
BBX 30 40 7 0
BITMAP
0003FC00
FC1FFF00
FC7FFFC0
FCFFFFE0
FDFFFFE0
FFF81FF0
FFC007F8
FF8003F8
FF0001F8
FF0001F8
FE0001FC
FE0000FC
FE0000FC
FC0000FC
FC0000FC
FC0000FC
FC0000FC
FC0000FC
FC0000FC
FC0000FC
FC0000FC
FC0000FC
FC0000FC
FC0000FC
FC0000FC
FC0000FC
FC0000FC
FC0000FC
FC0000FC
FC0000FC
FC0000FC
FC0000FC
FC0000FC
FC0000FC
FC0000FC
FC0000FC
FC0000FC
FC0000FC
FC0000FC
FC0000FC
ENDCHAR
STARTCHAR o
ENCODING 111
SWIDTH 602 0
DWIDTH 43 0
BBX 34 41 5 -1
BITMAP
000FFC0000
007FFF8000
01FFFFE000
03FFFFF000
07FFFFF800
0FFC0FFC00
1FF003FE00
1FE001FE00
3FC000FF00
3F80007F00
7F80007F80
7F00003F80
7F00003F80
7F00003F80
FE00003FC0
FE00001FC0
FE00001FC0
FE00001FC0
FE00001FC0
FE00001FC0
FE00001FC0
FE00001FC0
FE00001FC0
FE00001FC0
FE00001FC0
FE00001FC0
FE00003FC0
7F00003F80
7F00003F80
7F00003F80
7F80007F80
3F80007F00
3FC000FF00
1FE001FE00
1FF003FE00
0FFC0FFC00
07FFFFF800
03FFFFF000
01FFFFE000
007FFF8000
000FFC0000
ENDCHAR
STARTCHAR p
ENCODING 112
SWIDTH 602 0
DWIDTH 43 0
BBX 34 55 7 -15
BITMAP
0007FC0000
FC3FFF8000
FC7FFFC000
FCFFFFF000
FDFFFFF800
FFF80FFC00
FFE003FC00
FFC001FE00
FF8000FF00
FF00007F00
FF00007F00
FE00003F80
FE00003F80
FE00003F80
FE00003F80
FC00001FC0
FC00001FC0
FC00001FC0
FC00001FC0
FC00001FC0
FC00001FC0
FC00001FC0
FC00001FC0
FC00001FC0
FC00001FC0
FC00001FC0
FC00003FC0
FE00003F80
FE00003F80
FE00003F80
FF00007F00
FF00007F00
FF8000FF00
FFC001FE00
FFE003FC00
FFF80FFC00
FDFFFFF800
FCFFFFF000
FC7FFFC000
FC3FFF8000
FC07FC0000
FC00000000
FC00000000
FC00000000
FC00000000
FC00000000
FC00000000
FC00000000
FC00000000
FC00000000
FC00000000
FC00000000
FC00000000
FC00000000
FC00000000
ENDCHAR
STARTCHAR q
ENCODING 113
SWIDTH 602 0
DWIDTH 43 0
BBX 34 55 5 -15
BITMAP
000FF80000
007FFE0FC0
00FFFF8FC0
03FFFFCFC0
07FFFFEFC0
0FFC07FFC0
0FF001FFC0
1FE000FFC0
3FC0007FC0
3F80003FC0
3F80003FC0
7F00001FC0
7F00001FC0
7F00001FC0
FE00001FC0
FE00000FC0
FE00000FC0
FE00000FC0
FE00000FC0
FE00000FC0
FE00000FC0
FE00000FC0
FE00000FC0
FE00000FC0
FE00000FC0
FE00000FC0
FE00001FC0
7F00001FC0
7F00001FC0
7F00001FC0
3F80003FC0
3F80003FC0
3FC0007FC0
1FE000FFC0
0FF001FFC0
0FFC07FFC0
07FFFFEFC0
03FFFFCFC0
00FFFF8FC0
007FFE0FC0
000FF80FC0
0000000FC0
0000000FC0
0000000FC0
0000000FC0
0000000FC0
0000000FC0
0000000FC0
0000000FC0
0000000FC0
0000000FC0
0000000FC0
0000000FC0
0000000FC0
0000000FC0
ENDCHAR
STARTCHAR r
ENCODING 114
SWIDTH 602 0
DWIDTH 43 0
BBX 28 40 13 0
BITMAP
0001FF00
FC0FFFE0
FC1FFFF0
FC7FFFF0
FCFFFFF0
FCFFFFF0
FDFE01F0
FFF00070
FFE00010
FFC00000
FF800000
FF000000
FF000000
FE000000
FE000000
FE000000
FC000000
FC000000
FC000000
FC000000
FC000000
FC000000
FC000000
FC000000
FC000000
FC000000
FC000000
FC000000
FC000000
FC000000
FC000000
FC000000
FC000000
FC000000
FC000000
FC000000
FC000000
FC000000
FC000000
FC000000
ENDCHAR
STARTCHAR s
ENCODING 115
SWIDTH 602 0
DWIDTH 43 0
BBX 29 41 8 -1
BITMAP
003FF800
01FFFF80
07FFFFE0
1FFFFFE0
3FFFFFE0
3FE00FE0
7F0000E0
7E000020
FC000000
FC000000
FC000000
FC000000
FC000000
FE000000
FF000000
7FC00000
7FF80000
3FFFE000
3FFFFC00
0FFFFF00
07FFFFC0
00FFFFE0
000FFFE0
00007FF0
00001FF0
000007F8
000003F8
000001F8
000001F8
000001F8
000001F8
000001F8
800003F0
E00007F0
FC000FF0
FF803FE0
FFFFFFC0
FFFFFF80
FFFFFF00
3FFFFC00
01FFE000
ENDCHAR
STARTCHAR t
ENCODING 116
SWIDTH 602 0
DWIDTH 43 0
BBX 32 50 4 0
BITMAP
001F8000
001F8000
001F8000
001F8000
001F8000
001F8000
001F8000
001F8000
001F8000
001F8000
001F8000
FFFFFFFF
FFFFFFFF
FFFFFFFF
FFFFFFFF
FFFFFFFF
001F8000
001F8000
001F8000
001F8000
001F8000
001F8000
001F8000
001F8000
001F8000
001F8000
001F8000
001F8000
001F8000
001F8000
001F8000
001F8000
001F8000
001F8000
001F8000
001F8000
001F8000
001F8000
001F8000
001F8000
001F8000
001FC000
000FC000
000FE000
000FF800
0007FFFF
0007FFFF
0003FFFF
0000FFFF
00001FFF
ENDCHAR
STARTCHAR u
ENCODING 117
SWIDTH 602 0
DWIDTH 43 0
BBX 30 40 7 -1
BITMAP
FC0000FC
FC0000FC
FC0000FC
FC0000FC
FC0000FC
FC0000FC
FC0000FC
FC0000FC
FC0000FC
FC0000FC
FC0000FC
FC0000FC
FC0000FC
FC0000FC
FC0000FC
FC0000FC
FC0000FC
FC0000FC
FC0000FC
FC0000FC
FC0000FC
FC0000FC
FC0000FC
FC0000FC
FC0000FC
FC0000FC
FC0000FC
FC0001FC
FC0001FC
FE0001FC
7E0003FC
7E0003FC
7F0007FC
7F800FFC
3FE03EFC
3FFFFEFC
1FFFFCFC
0FFFF8FC
03FFE0FC
00FF0000
ENDCHAR
STARTCHAR v
ENCODING 118
SWIDTH 602 0
DWIDTH 43 0
BBX 36 39 4 0
BITMAP
FE000007F0
7E000007E0
7F00000FE0
7F00000FE0
3F00000FC0
3F80001FC0
3F80001FC0
1F80001F80
1FC0003F80
1FC0003F80
0FC0003F00
0FE0007F00
0FE0007F00
07E0007E00
07F000FE00
03F000FE00
03F000FC00
03F801FC00
01F801F800
01F801F800
01FC03F800
00FC03F000
00FC03F000
00FE07F000
007E07E000
007E0FE000
007F0FE000
003F0FC000
003F9FC000
001F9FC000
001F9F8000
001FFF8000
000FFF0000
000FFF0000
000FFF0000
0007FE0000
0007FE0000
0007FE0000
0003FC0000
ENDCHAR
STARTCHAR w
ENCODING 119
SWIDTH 602 0
DWIDTH 43 0
BBX 43 39 0 0
BITMAP
FC00000007E0
FE0000000FE0
7E0000000FC0
7E0000000FC0
7E0000000FC0
7F0000001FC0
3F0000001F80
3F0000001F80
3F0000001F80
3F0000001F80
3F8000003F80
1F8000003F00
1F801F003F00
1F803F803F00
1F803F803F00
0FC03F807E00
0FC07FC07E00
0FC07FC07E00
0FC07BC07E00
07E07BC0FC00
07E0FBE0FC00
07E0F3E0FC00
07E0F1E0FC00
07E1F1F0F800
03F1F1F1F800
03F1E0F1F800
03F1E0F1F800
03F3E0F9F800
01F3C079F000
01FBC07BF000
01FFC07FF000
01FFC07FF000
00FF803FE000
00FF803FE000
00FF803FE000
00FF001FE000
007F001FC000
007F001FC000
007E000FC000
ENDCHAR
STARTCHAR x
ENCODING 120
SWIDTH 602 0
DWIDTH 43 0
BBX 38 39 3 0
BITMAP
7F800007F8
3F80000FF0
1FC0000FE0
0FE0001FC0
0FF0003FC0
07F0007F80
03F8007F00
01FC00FE00
00FE01FC00
00FF03FC00
007F03F800
003F87F000
001FCFE000
001FFFE000
000FFFC000
0007FF8000
0003FF0000
0003FF0000
0001FE0000
0001FE0000
0003FF0000
0007FF8000
000FFFC000
000FFFC000
001FCFE000
003F87F000
007F87F800
007F03F800
00FE01FC00
01FC01FE00
03FC00FF00
03F8007F00
07F0003F80
0FF0003FC0
1FE0001FE0
1FC0000FE0
3F800007F0
7F800007F8
FF000003FC
ENDCHAR
STARTCHAR y
ENCODING 121
SWIDTH 602 0
DWIDTH 43 0
BBX 37 54 4 -15
BITMAP
FE000003F8
7F000003F0
7F000007F0
7F000007F0
3F80000FE0
3F80000FE0
1FC0000FE0
1FC0001FC0
1FC0001FC0
0FE0001F80
0FE0003F80
07E0003F80
07F0007F00
07F0007F00
03F8007E00
03F800FE00
01F800FE00
01FC00FC00
01FC01FC00
00FC01F800
00FE03F800
007E03F800
007F03F000
007F07F000
003F07F000
003F87E000
001F8FE000
001FCFC000
001FDFC000
000FDFC000
000FFF8000
000FFF8000
0007FF0000
0007FF0000
0003FF0000
0003FE0000
0003FE0000
0001FE0000
0001FC0000
0001FC0000
0001F80000
0003F80000
0003F80000
0007F00000
0007F00000
0007E00000
000FE00000
001FC00000
003FC00000
1FFF800000
1FFF000000
1FFE000000
1FFC000000
1FF0000000
ENDCHAR
STARTCHAR z
ENCODING 122
SWIDTH 602 0
DWIDTH 43 0
BBX 29 39 7 0
BITMAP
7FFFFFF8
7FFFFFF8
7FFFFFF8
7FFFFFF8
7FFFFFF8
000003F8
000007F8
00000FF0
00000FE0
00001FC0
00003F80
00007F80
0000FF00
0000FE00
0001FC00
0003F800
0007F800
000FF000
000FE000
001FC000
003FC000
007F8000
00FF0000
00FE0000
01FC0000
03FC0000
07F80000
0FF00000
0FE00000
1FC00000
3FC00000
7F800000
FF000000
FE000000
FFFFFFF8
FFFFFFF8
FFFFFFF8
FFFFFFF8
FFFFFFF8
ENDCHAR
STARTCHAR braceleft
ENCODING 123
SWIDTH 602 0
DWIDTH 43 0
BBX 27 66 8 -11
BITMAP
00001FE0
0001FFE0
0003FFE0
0007FFE0
000FFFE0
000FF000
000FE000
001FC000
001F8000
001F8000
001F8000
001F8000
001F8000
001F8000
001F8000
001F8000
001F8000
001F8000
001F8000
001F8000
001F8000
001F8000
001F8000
001F8000
001F8000
001F8000
003F8000
003F0000
007F0000
00FF0000
03FE0000
FFFC0000
FFF80000
FFE00000
FFF80000
FFFC0000
03FE0000
00FF0000
007F0000
003F8000
003F8000
001F8000
001F8000
001F8000
001F8000
001F8000
001F8000
001F8000
001F8000
001F8000
001F8000
001F8000
001F8000
001F8000
001F8000
001F8000
001F8000
001F8000
001FC000
000FC000
000FF000
000FFFE0
0007FFE0
0003FFE0
0001FFE0
00003FE0
ENDCHAR
STARTCHAR bar
ENCODING 124
SWIDTH 602 0
DWIDTH 43 0
BBX 6 72 19 -17
BITMAP
FC
FC
FC
FC
FC
FC
FC
FC
FC
FC
FC
FC
FC
FC
FC
FC
FC
FC
FC
FC
FC
FC
FC
FC
FC
FC
FC
FC
FC
FC
FC
FC
FC
FC
FC
FC
FC
FC
FC
FC
FC
FC
FC
FC
FC
FC
FC
FC
FC
FC
FC
FC
FC
FC
FC
FC
FC
FC
FC
FC
FC
FC
FC
FC
FC
FC
FC
FC
FC
FC
FC
FC
ENDCHAR
STARTCHAR braceright
ENCODING 125
SWIDTH 602 0
DWIDTH 43 0
BBX 27 66 8 -11
BITMAP
FF000000
FFF00000
FFF80000
FFFC0000
FFFE0000
01FE0000
00FE0000
007F0000
007F0000
003F0000
003F0000
003F0000
003F0000
003F0000
003F0000
003F0000
003F0000
003F0000
003F0000
003F0000
003F0000
003F0000
003F0000
003F0000
003F0000
003F0000
003F8000
003F8000
001FC000
001FE000
000FF800
0007FFE0
0003FFE0
0000FFE0
0003FFE0
0007FFE0
000FF800
001FE000
001FC000
003F8000
003F8000
003F0000
003F0000
003F0000
003F0000
003F0000
003F0000
003F0000
003F0000
003F0000
003F0000
003F0000
003F0000
003F0000
003F0000
003F0000
003F0000
003F0000
007F0000
007E0000
01FE0000
FFFE0000
FFFC0000
FFF80000
FFF00000
FF000000
ENDCHAR
STARTCHAR asciitilde
ENCODING 126
SWIDTH 602 0
DWIDTH 43 0
BBX 37 10 3 18
BITMAP
01FE000008
0FFFC00018
3FFFF80078
FFFFFF01F8
FFFFFFFFF8
FFFFFFFFF8
FC03FFFFF8
F0007FFFE0
C0000FFF80
800001FE00
ENDCHAR
STARTCHAR nonbreakingspace
ENCODING 160
SWIDTH 602 0
DWIDTH 43 0
BBX 1 1 0 0
BITMAP
00
ENDCHAR
STARTCHAR exclamdown
ENCODING 161
SWIDTH 602 0
DWIDTH 43 0
BBX 7 52 18 0
BITMAP
FE
FE
FE
FE
FE
FE
FE
FE
FE
00
00
00
00
00
00
00
00
7C
7C
7C
FC
FE
FE
FE
FE
FE
FE
FE
FE
FE
FE
FE
FE
FE
FE
FE
FE
FE
FE
FE
FE
FE
FE
FE
FE
FE
FE
FE
FE
FE
FE
FE
ENDCHAR
STARTCHAR cent
ENCODING 162
SWIDTH 602 0
DWIDTH 43 0
BBX 30 61 7 -11
BITMAP
00007800
00007800
00007800
00007800
00007800
00007800
00007800
00007800
00007800
00007800
0003FF80
001FFFF8
007FFFFC
01FFFFFC
03FFFFFC
07FE78FC
0FF8781C
0FE07804
1FE07800
3FC07800
3F807800
7F807800
7F007800
7F007800
7F007800
FE007800
FE007800
FE007800
FE007800
FE007800
FE007800
FE007800
FE007800
FE007800
FE007800
FE007800
7F007800
7F007800
7F007800
7F807800
3F807800
3FC07800
1FE07800
0FF07804
0FF8781C
07FE78FC
03FFFFFC
01FFFFFC
007FFFFC
001FFFF8
0003FF80
00007800
00007800
00007800
00007800
00007800
00007800
00007800
00007800
00007800
00007800
ENDCHAR
STARTCHAR sterling
ENCODING 163
SWIDTH 602 0
DWIDTH 43 0
BBX 34 53 5 0
BITMAP
00001FF000
0000FFFF00
0003FFFF80
0007FFFF80
000FFFFF80
001FFFFF80
003FF80780
003FE00080
007FC00000
007F800000
007F000000
007F000000
00FF000000
00FE000000
00FE000000
00FE000000
00FE000000
00FE000000
00FE000000
00FE000000
00FE000000
00FE000000
00FE000000
00FE000000
00FE000000
00FE000000
7FFFFFF000
7FFFFFF000
7FFFFFF000
7FFFFFF000
7FFFFFF000
00FE000000
00FE000000
00FE000000
00FE000000
00FE000000
00FE000000
00FE000000
00FE000000
00FE000000
00FE000000
00FE000000
00FE000000
00FE000000
00FE000000
00FE000000
00FE000000
FFFFFFFFC0
FFFFFFFFC0
FFFFFFFFC0
FFFFFFFFC0
FFFFFFFFC0
FFFFFFFFC0
ENDCHAR
STARTCHAR currency
ENCODING 164
SWIDTH 602 0
DWIDTH 43 0
BBX 32 32 7 7
BITMAP
10000008
3800001C
7C00003E
FE00007F
7F0FF0FE
3FBFFDFC
1FFFFFF8
0FFFFFF0
07F81FE0
03E007C0
07C003E0
078001E0
0F8001F0
0F0000F0
0F0000F0
0F0000F0
0F0000F0
0F0000F0
0F0000F0
0F8001F0
078001E0
07C003E0
03E007C0
07F81FE0
0FFFFFF0
1FFFFFF8
3FFFFDFC
7F0FF0FE
FE00007F
7C00003E
3800001C
10000008
ENDCHAR
STARTCHAR yen
ENCODING 165
SWIDTH 602 0
DWIDTH 43 0
BBX 41 52 1 0
BITMAP
FF0000007F80
7F800000FF00
3F800000FE00
3FC00001FE00
1FC00001FC00
1FE00003FC00
0FE00007F800
07F00007F000
07F8000FF000
03F8000FE000
03FC001FC000
01FC001FC000
00FE003F8000
00FE003F8000
007F007F0000
007F80FE0000
003F80FE0000
001FC1FC0000
001FC1FC0000
1FFFE3FFFC00
1FFFE3FFFC00
1FFFF7FFFC00
1FFFFFFFFC00
0003FFE00000
0001FFC00000
0001FFC00000
0000FF800000
0000FF800000
00007F000000
00007F000000
1FFFFFFFFC00
1FFFFFFFFC00
1FFFFFFFFC00
1FFFFFFFFC00
00007F000000
00007F000000
00007F000000
00007F000000
00007F000000
00007F000000
00007F000000
00007F000000
00007F000000
00007F000000
00007F000000
00007F000000
00007F000000
00007F000000
00007F000000
00007F000000
00007F000000
00007F000000
ENDCHAR
STARTCHAR brokenbar
ENCODING 166
SWIDTH 602 0
DWIDTH 43 0
BBX 6 63 19 -12
BITMAP
FC
FC
FC
FC
FC
FC
FC
FC
FC
FC
FC
FC
FC
FC
FC
FC
FC
FC
FC
FC
FC
FC
FC
FC
FC
FC
FC
00
00
00
00
00
00
00
00
00
FC
FC
FC
FC
FC
FC
FC
FC
FC
FC
FC
FC
FC
FC
FC
FC
FC
FC
FC
FC
FC
FC
FC
FC
FC
FC
FC
ENDCHAR
STARTCHAR section
ENCODING 167
SWIDTH 602 0
DWIDTH 43 0
BBX 29 60 7 -7
BITMAP
003FF000
01FFFF00
03FFFF80
07FFFF80
0FFFFF80
1FF81F80
1FE00380
3FC00080
3F800000
3F800000
3F800000
3F800000
3FC00000
1FC00000
1FE00000
0FF80000
07FC0000
03FF0000
03FF8000
0FFFE000
1FFFF800
3F8FFC00
3F03FF00
7E01FF80
7E007FC0
FC003FE0
FC001FF0
FC0007F0
FC0003F8
FE0003F8
FE0001F8
7F0001F8
7F8001F8
3FC001F8
1FF001F8
0FF803F0
07FE07F0
03FF8FE0
00FFDFC0
003FFF80
001FFF00
0007FE00
0003FF00
0000FF80
00007FC0
00003FC0
00001FE0
00000FE0
00000FE0
00000FE0
00000FE0
00000FE0
10001FE0
1C003FC0
1F80FFC0
1FFFFF80
1FFFFF00
1FFFFE00
07FFF800
007FE000
ENDCHAR
STARTCHAR dieresis
ENCODING 168
SWIDTH 602 0
DWIDTH 43 0
BBX 21 7 11 48
BITMAP
FE03F8
FE03F8
FE03F8
FE03F8
FE03F8
FE03F8
FE03F8
ENDCHAR
STARTCHAR copyright
ENCODING 169
SWIDTH 602 0
DWIDTH 43 0
BBX 43 43 0 5
BITMAP
00007FC00000
0007FFFC0000
001FFFFF0000
003FFFFF8000
00FF803FE000
01FC0007F000
03F00001F800
07E00000FC00
0FC000007E00
0F803FC03E00
1F01FFF81F00
3E03FFFC0F80
3C0FFFFC0780
7C0FE03C0780
781F800403C0
783F000003C0
783E000003C0
F07E000001E0
F07C000001E0
F07C000001E0
F07C000001E0
F07C000001E0
F07C000001E0
F07C000001E0
F07C000001E0
F07E000001E0
783E000003C0
783F000003C0
781F800403C0
7C1FE01C0780
3E0FFFFC0F80
3E03FFFC0F80
1F01FFF81F00
0F803FC03E00
0FC000007E00
07E00000FC00
03F80003F800
01FC0007F000
00FF803FE000
003FFFFF8000
001FFFFF0000
0003FFF80000
00007FC00000
ENDCHAR
STARTCHAR ordfeminine
ENCODING 170
SWIDTH 602 0
DWIDTH 43 0
BBX 24 37 10 16
BITMAP
01FF00
1FFFE0
3FFFF0
3FFFF8
3E03FC
20007E
00003E
00003E
00001F
00001F
00001F
00FFFF
07FFFF
1FFFFF
3FFFFF
7F801F
7E001F
FC001F
F8001F
F8003F
F8003F
F8007F
FC007F
FC00FF
7F03FF
3FFFDF
3FFF9F
0FFF1F
03FC00
000000
000000
000000
000000
7FFFFF
7FFFFF
7FFFFF
7FFFFF
ENDCHAR
STARTCHAR guillemotleft
ENCODING 171
SWIDTH 602 0
DWIDTH 43 0
BBX 31 32 4 5
BITMAP
00010002
00030006
0007000E
000F001E
001F003E
003F007E
007F00FE
00FE01FC
01FC03F8
03F807F0
0FF01FE0
1FE03FC0
3F807F80
7F00FF00
FE01FE00
FC01FC00
FC01FC00
FE01FE00
7F00FF00
3F807F80
1FE03FC0
0FF01FE0
03F807F0
01FC03F8
00FE01FC
007F00FE
003F007E
001F003E
000F001E
0007000E
00030006
00010002
ENDCHAR
STARTCHAR logicalnot
ENCODING 172
SWIDTH 602 0
DWIDTH 43 0
BBX 37 17 3 13
BITMAP
FFFFFFFFF8
FFFFFFFFF8
FFFFFFFFF8
FFFFFFFFF8
FFFFFFFFF8
FFFFFFFFF8
00000001F8
00000001F8
00000001F8
00000001F8
00000001F8
00000001F8
00000001F8
00000001F8
00000001F8
00000001F8
00000001F8
ENDCHAR
STARTCHAR sfthyphen
ENCODING 173
SWIDTH 602 0
DWIDTH 43 0
BBX 18 6 13 17
BITMAP
FFFFC0
FFFFC0
FFFFC0
FFFFC0
FFFFC0
FFFFC0
ENDCHAR
STARTCHAR registered
ENCODING 174
SWIDTH 602 0
DWIDTH 43 0
BBX 43 43 0 5
BITMAP
00007FC00000
0007FFFC0000
001FFFFF0000
003FFFFF8000
00FF803FE000
01FC0007F000
03F00001F800
07E00000FC00
0FC000007E00
0F87FFC03E00
1F07FFF01F00
3E07FFF80F80
3C07FFFC0780
7C07C0FE0780
7807C03E03C0
7807C03E03C0
7807C03E03C0
F007C03E01E0
F007C0FC01E0
F007FFFC01E0
F007FFF801E0
F007FFE001E0
F007FFC001E0
F007C3E001E0
F007C1F001E0
F007C1F001E0
7807C0F803C0
7807C07C03C0
7807C07C03C0
7C07C03E0780
3E07C03E0F80
3E07C01F0F80
1F07C00F9F00
0F8000003E00
0FC000007E00
07E00000FC00
03F80003F800
01FC0007F000
00FF803FE000
003FFFFF8000
001FFFFF0000
0003FFF80000
00007FC00000
ENDCHAR
STARTCHAR macron
ENCODING 175
SWIDTH 602 0
DWIDTH 43 0
BBX 21 5 11 49
BITMAP
FFFFF8
FFFFF8
FFFFF8
FFFFF8
FFFFF8
ENDCHAR
STARTCHAR degree
ENCODING 176
SWIDTH 602 0
DWIDTH 43 0
BBX 22 22 11 31
BITMAP
00FC00
07FF80
0FFFC0
1FFFE0
3F03F0
7E01F8
7C00F8
780078
F0003C
F0003C
F0003C
F0003C
F0003C
F0003C
F80078
7C00F8
7E01F8
3F03F0
1FFFE0
0FFFC0
07FF80
01FC00
ENDCHAR
STARTCHAR plusminus
ENCODING 177
SWIDTH 602 0
DWIDTH 43 0
BBX 38 42 3 0
BITMAP
0000FC0000
0000FC0000
0000FC0000
0000FC0000
0000FC0000
0000FC0000
0000FC0000
0000FC0000
0000FC0000
0000FC0000
0000FC0000
0000FC0000
FFFFFFFFFC
FFFFFFFFFC
FFFFFFFFFC
FFFFFFFFFC
FFFFFFFFFC
FFFFFFFFFC
0000FC0000
0000FC0000
0000FC0000
0000FC0000
0000FC0000
0000FC0000
0000FC0000
0000FC0000
0000FC0000
0000FC0000
0000FC0000
0000FC0000
0000000000
0000000000
0000000000
0000000000
0000000000
0000000000
FFFFFFFFFC
FFFFFFFFFC
FFFFFFFFFC
FFFFFFFFFC
FFFFFFFFFC
FFFFFFFFFC
ENDCHAR
STARTCHAR twosuperior
ENCODING 178
SWIDTH 602 0
DWIDTH 43 0
BBX 20 29 11 24
BITMAP
0FF800
7FFF00
FFFF80
FFFFC0
F00FE0
8007F0
0003F0
0001F0
0001F0
0001F0
0001F0
0003E0
0007C0
000FC0
001F80
003F00
007E00
00FC00
01F800
03F000
07E000
0FC000
1F0000
3E0000
7C0000
FFFFF0
FFFFF0
FFFFF0
FFFFF0
ENDCHAR
STARTCHAR threesuperior
ENCODING 179
SWIDTH 602 0
DWIDTH 43 0
BBX 21 29 11 24
BITMAP
0FFC00
7FFF00
7FFFC0
7FFFE0
700FE0
0003F0
0001F0
0001F0
0001F0
0003E0
000FE0
03FFC0
03FF00
03FF00
03FFC0
000FE0
0003F0
0001F8
0000F8
0000F8
0000F8
0000F8
0001F8
0003F0
E00FF0
FFFFE0
FFFFC0
FFFF00
3FF800
ENDCHAR
STARTCHAR acute
ENCODING 180
SWIDTH 602 0
DWIDTH 43 0
BBX 17 13 17 45
BITMAP
003F80
007F00
00FE00
01FC00
01F800
03F000
07E000
0FC000
1F8000
1F8000
3F0000
7E0000
FC0000
ENDCHAR
STARTCHAR mu
ENCODING 181
SWIDTH 602 0
DWIDTH 43 0
BBX 35 54 7 -15
BITMAP
FC0000FC00
FC0000FC00
FC0000FC00
FC0000FC00
FC0000FC00
FC0000FC00
FC0000FC00
FC0000FC00
FC0000FC00
FC0000FC00
FC0000FC00
FC0000FC00
FC0000FC00
FC0000FC00
FC0000FC00
FC0000FC00
FC0000FC00
FC0000FC00
FC0000FC00
FC0000FC00
FC0000FC00
FC0000FC00
FC0000FC00
FC0000FC00
FC0000FC00
FC0000FC00
FC0000FC00
FC0000FC00
FC0001FC00
FE0001FC00
FE0001FC00
FF0003FC00
FF0007FC00
FF800FFE00
FFE03FFFE0
FBFFFFFFE0
FBFFFF7FE0
F9FFFE3FE0
F87FF83FE0
F81FE00F80
F800000000
F800000000
F800000000
F800000000
F800000000
F800000000
F800000000
F800000000
F800000000
F800000000
F800000000
F800000000
F800000000
F800000000
ENDCHAR
STARTCHAR paragraph
ENCODING 182
SWIDTH 602 0
DWIDTH 43 0
BBX 32 59 4 -7
BITMAP
001FFFFF
00FFFFFF
03FFFFFF
07FFFFFF
0FFFF01F
1FFFF01F
3FFFF01F
3FFFF01F
7FFFF01F
7FFFF01F
7FFFF01F
FFFFF01F
FFFFF01F
FFFFF01F
FFFFF01F
FFFFF01F
FFFFF01F
FFFFF01F
FFFFF01F
7FFFF01F
7FFFF01F
7FFFF01F
3FFFF01F
3FFFF01F
1FFFF01F
0FFFF01F
07FFF01F
03FFF01F
00FFF01F
000FF01F
0001F01F
0001F01F
0001F01F
0001F01F
0001F01F
0001F01F
0001F01F
0001F01F
0001F01F
0001F01F
0001F01F
0001F01F
0001F01F
0001F01F
0001F01F
0001F01F
0001F01F
0001F01F
0001F01F
0001F01F
0001F01F
0001F01F
0001F01F
0001F01F
0001F01F
0001F01F
0001F01F
0001F01F
0001F01F
ENDCHAR
STARTCHAR periodcentered
ENCODING 183
SWIDTH 602 0
DWIDTH 43 0
BBX 9 11 17 19
BITMAP
FF80
FF80
FF80
FF80
FF80
FF80
FF80
FF80
FF80
FF80
FF80
ENDCHAR
STARTCHAR cedilla
ENCODING 184
SWIDTH 602 0
DWIDTH 43 0
BBX 15 14 13 -14
BITMAP
01E0
00F0
0078
007C
003C
003E
003E
003E
007E
80FE
FFFC
FFFC
FFF8
7FC0
ENDCHAR
STARTCHAR onesuperior
ENCODING 185
SWIDTH 602 0
DWIDTH 43 0
BBX 20 29 12 24
BITMAP
0FF800
FFF800
FFF800
FFF800
F0F800
00F800
00F800
00F800
00F800
00F800
00F800
00F800
00F800
00F800
00F800
00F800
00F800
00F800
00F800
00F800
00F800
00F800
00F800
00F800
00F800
7FFFF0
7FFFF0
7FFFF0
7FFFF0
ENDCHAR
STARTCHAR ordmasculine
ENCODING 186
SWIDTH 602 0
DWIDTH 43 0
BBX 26 37 9 16
BITMAP
007F8000
01FFE000
07FFF800
0FFFFC00
1FC0FE00
3F003F00
3E001F00
7E001F80
7C000F80
7C000F80
F80007C0
F80007C0
F80007C0
F80007C0
F80007C0
F80007C0
F80007C0
F80007C0
F80007C0
7C000F80
7C000F80
7E001F80
3E001F00
3F003F00
1FC0FE00
0FFFFC00
07FFF800
01FFE000
007F8000
00000000
00000000
00000000
00000000
7FFFFF80
7FFFFF80
7FFFFF80
7FFFFF80
ENDCHAR
STARTCHAR guillemotright
ENCODING 187
SWIDTH 602 0
DWIDTH 43 0
BBX 31 32 7 5
BITMAP
80010000
C0018000
E001C000
F001E000
F801F000
FC01F800
FE01FC00
7F00FE00
3F807F00
1FC03F80
0FF01FE0
07F80FF0
03FC03F8
01FE01FC
00FF00FE
007F007E
007F007E
00FF00FE
01FE01FC
03FC03F8
07F80FF0
0FF01FE0
1FC03F80
3F807F00
7F00FE00
FE01FC00
FC01F800
F801F000
F001E000
E001C000
C0018000
80010000
ENDCHAR
STARTCHAR onequarter
ENCODING 188
SWIDTH 602 0
DWIDTH 43 0
BBX 38 67 1 -9
BITMAP
03FE000000
3FFE000000
3FFE000000
3FFE000000
3C3E000000
003E000000
003E000000
003E000000
003E000000
003E000000
003E000000
003E000000
003E000000
003E000000
003E000000
003E000000
003E000000
003E000000
003E000000
003E000000
003E000000
003E000000
003E000000
003E000000
003E000000
1FFFFC0000
1FFFFC0000
1FFFFC0018
1FFFFC01F8
0000001FFC
000001FFFC
00001FFFF0
0003FFFF00
003FFFF000
03FFFF0000
3FFFE00000
FFFE000000
FFE0000000
7E00003F00
6000007F00
0000007F00
000000FF00
000001FF00
000001DF00
0000039F00
0000079F00
0000071F00
00000E1F00
00001E1F00
00003C1F00
0000381F00
0000781F00
0000F01F00
0000E01F00
0001E01F00
0003C01F00
0003FFFFF0
0003FFFFF0
0003FFFFF0
0003FFFFF0
0000001F00
0000001F00
0000001F00
0000001F00
0000001F00
0000001F00
0000001F00
ENDCHAR
STARTCHAR onehalf
ENCODING 189
SWIDTH 602 0
DWIDTH 43 0
BBX 38 67 1 -9
BITMAP
03FE000000
3FFE000000
3FFE000000
3FFE000000
3C3E000000
003E000000
003E000000
003E000000
003E000000
003E000000
003E000000
003E000000
003E000000
003E000000
003E000000
003E000000
003E000000
003E000000
003E000000
003E000000
003E000000
003E000000
003E000000
003E000000
003E000000
1FFFFC0000
1FFFFC0000
1FFFFC0018
1FFFFC01F8
0000001FFC
000001FFFC
00001FFFF0
0003FFFF00
003FFFF000
03FFFF0000
3FFFE00000
FFFE000000
FFE0000000
7E0007FC00
60003FFF80
00007FFFC0
00007FFFE0
00007807F0
00004003F8
00000001F8
00000000F8
00000000F8
00000000F8
00000000F8
00000001F0
00000003E0
00000007E0
0000000FC0
0000001F80
0000003F00
0000007E00
000000FC00
000001F800
000003F000
000007E000
00000F8000
00001F0000
00003E0000
00007FFFF8
00007FFFF8
00007FFFF8
00007FFFF8
ENDCHAR
STARTCHAR threequarters
ENCODING 190
SWIDTH 602 0
DWIDTH 43 0
BBX 38 67 1 -9
BITMAP
03FF000000
1FFFC00000
1FFFF00000
1FFFF80000
1C03F80000
0000FC0000
00007C0000
00007C0000
00007C0000
0000F80000
0003F80000
00FFF00000
00FFC00000
00FFC00000
00FFF00000
0003F80000
0000FC0000
00007E0000
00003E0000
00003E0000
00003E0000
00003E0000
00007E0000
0000FC0000
3803FC0000
3FFFF80000
3FFFF00000
3FFFC00018
0FFE0001F8
0000001FFC
000001FFFC
00001FFFF0
0003FFFF00
003FFFF000
03FFFF0000
3FFFE00000
FFFE000000
FFE0000000
7E00003F00
6000007F00
0000007F00
000000FF00
000001FF00
000001DF00
0000039F00
0000079F00
0000071F00
00000E1F00
00001E1F00
00003C1F00
0000381F00
0000781F00
0000F01F00
0000E01F00
0001E01F00
0003C01F00
0003FFFFF0
0003FFFFF0
0003FFFFF0
0003FFFFF0
0000001F00
0000001F00
0000001F00
0000001F00
0000001F00
0000001F00
0000001F00
ENDCHAR
STARTCHAR questiondown
ENCODING 191
SWIDTH 602 0
DWIDTH 43 0
BBX 28 53 7 -1
BITMAP
000FE000
000FE000
000FE000
000FE000
000FE000
000FE000
000FE000
000FE000
000FE000
00000000
00000000
00000000
00000000
00000000
000FE000
000FE000
000FE000
000FE000
000FE000
000FE000
000FE000
000FE000
000FE000
001FC000
001FC000
003FC000
007F8000
00FF0000
01FE0000
03FC0000
07F80000
0FF00000
1FE00000
3FC00000
3F800000
7F800000
7F000000
FE000000
FE000000
FE000000
FE000000
FE000000
FE000010
FF000030
7F8000F0
7FC003F0
7FF01FF0
3FFFFFF0
1FFFFFF0
0FFFFFE0
07FFFF80
01FFFE00
003FE000
ENDCHAR
STARTCHAR Agrave
ENCODING 192
SWIDTH 602 0
DWIDTH 43 0
BBX 41 66 1 0
BITMAP
000FE0000000
0007E0000000
0003F0000000
0001F8000000
0000FC000000
00007C000000
00003E000000
00003F000000
00001F800000
000000000000
000000000000
000000000000
000000000000
000000000000
0000FF800000
0000FF800000
0001FFC00000
0001FFC00000
0001FFC00000
0003FFE00000
0003F7E00000
0003F7E00000
0003F7E00000
0007F7F00000
0007E3F00000
0007E3F00000
000FE3F80000
000FC1F80000
000FC1F80000
001FC1FC0000
001FC1FC0000
001F80FC0000
003F80FE0000
003F80FE0000
003F00FE0000
007F007F0000
007F007F0000
007F007F0000
007E003F0000
00FE003F8000
00FE003F8000
00FE003F8000
01FC001FC000
01FC001FC000
01FC001FC000
03F8000FE000
03F8000FE000
03FFFFFFE000
07FFFFFFF000
07FFFFFFF000
07FFFFFFF000
0FFFFFFFF000
0FFFFFFFF800
0FE00003F800
0FE00003F800
1FE00003FC00
1FC00001FC00
1FC00001FC00
3FC00001FE00
3F800000FE00
3F800000FE00
7F800000FF00
7F0000007F00
7F0000007F00
FF0000007F80
FF0000007F80
ENDCHAR
STARTCHAR Aacute
ENCODING 193
SWIDTH 602 0
DWIDTH 43 0
BBX 41 66 1 0
BITMAP
000003F80000
000003F00000
000007E00000
00000FC00000
00001F800000
00001F000000
00003E000000
00007E000000
0000FC000000
000000000000
000000000000
000000000000
000000000000
000000000000
0000FF800000
0000FF800000
0001FFC00000
0001FFC00000
0001FFC00000
0003FFE00000
0003F7E00000
0003F7E00000
0003F7E00000
0007F7F00000
0007E3F00000
0007E3F00000
000FE3F80000
000FC1F80000
000FC1F80000
001FC1FC0000
001FC1FC0000
001F80FC0000
003F80FE0000
003F80FE0000
003F00FE0000
007F007F0000
007F007F0000
007F007F0000
007E003F0000
00FE003F8000
00FE003F8000
00FE003F8000
01FC001FC000
01FC001FC000
01FC001FC000
03F8000FE000
03F8000FE000
03FFFFFFE000
07FFFFFFF000
07FFFFFFF000
07FFFFFFF000
0FFFFFFFF000
0FFFFFFFF800
0FE00003F800
0FE00003F800
1FE00003FC00
1FC00001FC00
1FC00001FC00
3FC00001FE00
3F800000FE00
3F800000FE00
7F800000FF00
7F0000007F00
7F0000007F00
FF0000007F80
FF0000007F80
ENDCHAR
STARTCHAR Acircumflex
ENCODING 194
SWIDTH 602 0
DWIDTH 43 0
BBX 41 66 1 0
BITMAP
00007F000000
0000FF800000
0001FFC00000
0003F7E00000
0003E3E00000
0007C1F00000
000F80F80000
001F007C0000
003E003E0000
000000000000
000000000000
000000000000
000000000000
000000000000
0000FF800000
0000FF800000
0001FFC00000
0001FFC00000
0001FFC00000
0003FFE00000
0003F7E00000
0003F7E00000
0003F7E00000
0007F7F00000
0007E3F00000
0007E3F00000
000FE3F80000
000FC1F80000
000FC1F80000
001FC1FC0000
001FC1FC0000
001F80FC0000
003F80FE0000
003F80FE0000
003F00FE0000
007F007F0000
007F007F0000
007F007F0000
007E003F0000
00FE003F8000
00FE003F8000
00FE003F8000
01FC001FC000
01FC001FC000
01FC001FC000
03F8000FE000
03F8000FE000
03FFFFFFE000
07FFFFFFF000
07FFFFFFF000
07FFFFFFF000
0FFFFFFFF000
0FFFFFFFF800
0FE00003F800
0FE00003F800
1FE00003FC00
1FC00001FC00
1FC00001FC00
3FC00001FE00
3F800000FE00
3F800000FE00
7F800000FF00
7F0000007F00
7F0000007F00
FF0000007F80
FF0000007F80
ENDCHAR
STARTCHAR Atilde
ENCODING 195
SWIDTH 602 0
DWIDTH 43 0
BBX 41 66 1 0
BITMAP
0007E00F0000
001FF80F0000
003FFE1F0000
003FFFFE0000
007C3FFE0000
00780FFC0000
007803F00000
000000000000
000000000000
000000000000
000000000000
000000000000
000000000000
000000000000
0000FF800000
0000FF800000
0001FFC00000
0001FFC00000
0001FFC00000
0003FFE00000
0003F7E00000
0003F7E00000
0003F7E00000
0007F7F00000
0007E3F00000
0007E3F00000
000FE3F80000
000FC1F80000
000FC1F80000
001FC1FC0000
001FC1FC0000
001F80FC0000
003F80FE0000
003F80FE0000
003F00FE0000
007F007F0000
007F007F0000
007F007F0000
007E003F0000
00FE003F8000
00FE003F8000
00FE003F8000
01FC001FC000
01FC001FC000
01FC001FC000
03F8000FE000
03F8000FE000
03FFFFFFE000
07FFFFFFF000
07FFFFFFF000
07FFFFFFF000
0FFFFFFFF000
0FFFFFFFF800
0FE00003F800
0FE00003F800
1FE00003FC00
1FC00001FC00
1FC00001FC00
3FC00001FE00
3F800000FE00
3F800000FE00
7F800000FF00
7F0000007F00
7F0000007F00
FF0000007F80
FF0000007F80
ENDCHAR
STARTCHAR Adieresis
ENCODING 196
SWIDTH 602 0
DWIDTH 43 0
BBX 41 66 1 0
BITMAP
003F80FE0000
003F80FE0000
003F80FE0000
003F80FE0000
003F80FE0000
003F80FE0000
003F80FE0000
000000000000
000000000000
000000000000
000000000000
000000000000
000000000000
000000000000
0000FF800000
0000FF800000
0001FFC00000
0001FFC00000
0001FFC00000
0003FFE00000
0003F7E00000
0003F7E00000
0003F7E00000
0007F7F00000
0007E3F00000
0007E3F00000
000FE3F80000
000FC1F80000
000FC1F80000
001FC1FC0000
001FC1FC0000
001F80FC0000
003F80FE0000
003F80FE0000
003F00FE0000
007F007F0000
007F007F0000
007F007F0000
007E003F0000
00FE003F8000
00FE003F8000
00FE003F8000
01FC001FC000
01FC001FC000
01FC001FC000
03F8000FE000
03F8000FE000
03FFFFFFE000
07FFFFFFF000
07FFFFFFF000
07FFFFFFF000
0FFFFFFFF000
0FFFFFFFF800
0FE00003F800
0FE00003F800
1FE00003FC00
1FC00001FC00
1FC00001FC00
3FC00001FE00
3F800000FE00
3F800000FE00
7F800000FF00
7F0000007F00
7F0000007F00
FF0000007F80
FF0000007F80
ENDCHAR
STARTCHAR Aring
ENCODING 197
SWIDTH 602 0
DWIDTH 43 0
BBX 41 67 1 0
BITMAP
00007F000000
0001FFC00000
0003FFE00000
0007FFF00000
000FC1F80000
000F80F80000
001F00780000
001E003C0000
001E003C0000
001E003C0000
001E003C0000
001E003C0000
001F007C0000
000F80F80000
000FC1F80000
0007FFF00000
0007FFE00000
0001FFC00000
0001FFC00000
0003FFE00000
0003FFE00000
0003F7E00000
0003F7E00000
0007F7F00000
0007E7F00000
0007E3F00000
000FE3F80000
000FE3F80000
000FC1F80000
001FC1FC0000
001FC1FC0000
001FC1FC0000
003F80FE0000
003F80FE0000
003F80FE0000
003F007E0000
007F007F0000
007F007F0000
007F007F0000
00FE003F8000
00FE003F8000
00FE003F8000
01FE003FC000
01FC001FC000
01FC001FC000
01FC001FC000
03F8000FE000
03F8000FE000
03FFFFFFE000
07FFFFFFF000
07FFFFFFF000
07FFFFFFF000
0FFFFFFFF800
0FFFFFFFF800
0FE00003F800
1FE00003F800
1FE00003FC00
1FC00001FC00
1FC00001FC00
3FC00001FE00
3F800000FE00
3F800000FE00
7F800000FF00
7F800000FF00
7F0000007F00
FF0000007F80
FF0000007F80
ENDCHAR
STARTCHAR AE
ENCODING 198
SWIDTH 602 0
DWIDTH 43 0
BBX 41 52 0 0
BITMAP
0003FFFFFF00
0003FFFFFF00
0007FFFFFF00
0007FFFFFF00
0007FFFFFF00
0007FFFFFF00
000FC3F00000
000FC3F00000
000FC3F00000
000F83F00000
001F83F00000
001F83F00000
001F83F00000
003F03F00000
003F03F00000
003F03F00000
003F03F00000
007E03F00000
007E03F00000
007E03F00000
007E03F00000
00FC03FFFE00
00FC03FFFE00
00FC03FFFE00
01FC03FFFE00
01F803FFFE00
01F803FFFE00
01F803F00000
03F803F00000
03F003F00000
03F003F00000
03F003F00000
07E003F00000
07FFFFF00000
07FFFFF00000
0FFFFFF00000
0FFFFFF00000
0FFFFFF00000
0FFFFFF00000
1FC003F00000
1F8003F00000
1F8003F00000
1F8003F00000
3F8003F00000
3F0003F00000
3F0003F00000
7F0003FFFF80
7F0003FFFF80
7E0003FFFF80
7E0003FFFF80
FE0003FFFF80
FE0003FFFF80
ENDCHAR
STARTCHAR Ccedilla
ENCODING 199
SWIDTH 602 0
DWIDTH 43 0
BBX 33 67 5 -14
BITMAP
0000FFC000
0007FFF800
001FFFFE00
007FFFFF00
00FFFFFF80
01FFFFFF80
03FF807F80
07FE000F80
07F8000380
0FF0000180
1FE0000080
1FC0000000
3FC0000000
3F80000000
3F80000000
7F00000000
7F00000000
7F00000000
7F00000000
7F00000000
FE00000000
FE00000000
FE00000000
FE00000000
FE00000000
FE00000000
FE00000000
FE00000000
FE00000000
FE00000000
FE00000000
FE00000000
FE00000000
FE00000000
7F00000000
7F00000000
7F00000000
7F00000000
7F00000000
3F80000000
3F80000000
3FC0000000
1FC0000000
1FE0000080
0FF0000180
07F8000380
07FE000F80
03FF807F80
01FFFFFF80
00FFFFFF80
007FFFFF00
001FFFFE00
0007FFF800
0000FFC000
00000F0000
0000078000
000007C000
000003C000
000003E000
000003E000
000003E000
000007E000
00080FE000
000FFFC000
000FFFC000
000FFF8000
0007FC0000
ENDCHAR
STARTCHAR Egrave
ENCODING 200
SWIDTH 602 0
DWIDTH 43 0
BBX 32 66 7 0
BITMAP
01FC0000
00FC0000
007E0000
003F0000
001F8000
000F8000
0007C000
0007E000
0003F000
00000000
00000000
00000000
00000000
00000000
FFFFFFFE
FFFFFFFE
FFFFFFFE
FFFFFFFE
FFFFFFFE
FFFFFFFE
FE000000
FE000000
FE000000
FE000000
FE000000
FE000000
FE000000
FE000000
FE000000
FE000000
FE000000
FE000000
FE000000
FE000000
FE000000
FFFFFFFC
FFFFFFFC
FFFFFFFC
FFFFFFFC
FFFFFFFC
FFFFFFFC
FE000000
FE000000
FE000000
FE000000
FE000000
FE000000
FE000000
FE000000
FE000000
FE000000
FE000000
FE000000
FE000000
FE000000
FE000000
FE000000
FE000000
FE000000
FE000000
FFFFFFFF
FFFFFFFF
FFFFFFFF
FFFFFFFF
FFFFFFFF
FFFFFFFF
ENDCHAR
STARTCHAR Eacute
ENCODING 201
SWIDTH 602 0
DWIDTH 43 0
BBX 32 66 7 0
BITMAP
00007F00
00007E00
0000FC00
0001F800
0003F000
0003E000
0007C000
000FC000
001F8000
00000000
00000000
00000000
00000000
00000000
FFFFFFFE
FFFFFFFE
FFFFFFFE
FFFFFFFE
FFFFFFFE
FFFFFFFE
FE000000
FE000000
FE000000
FE000000
FE000000
FE000000
FE000000
FE000000
FE000000
FE000000
FE000000
FE000000
FE000000
FE000000
FE000000
FFFFFFFC
FFFFFFFC
FFFFFFFC
FFFFFFFC
FFFFFFFC
FFFFFFFC
FE000000
FE000000
FE000000
FE000000
FE000000
FE000000
FE000000
FE000000
FE000000
FE000000
FE000000
FE000000
FE000000
FE000000
FE000000
FE000000
FE000000
FE000000
FE000000
FFFFFFFF
FFFFFFFF
FFFFFFFF
FFFFFFFF
FFFFFFFF
FFFFFFFF
ENDCHAR
STARTCHAR Ecircumflex
ENCODING 202
SWIDTH 602 0
DWIDTH 43 0
BBX 32 66 7 0
BITMAP
000FE000
001FF000
003FF800
007EFC00
007C7C00
00F83E00
01F01F00
03E00F80
07C007C0
00000000
00000000
00000000
00000000
00000000
FFFFFFFE
FFFFFFFE
FFFFFFFE
FFFFFFFE
FFFFFFFE
FFFFFFFE
FE000000
FE000000
FE000000
FE000000
FE000000
FE000000
FE000000
FE000000
FE000000
FE000000
FE000000
FE000000
FE000000
FE000000
FE000000
FFFFFFFC
FFFFFFFC
FFFFFFFC
FFFFFFFC
FFFFFFFC
FFFFFFFC
FE000000
FE000000
FE000000
FE000000
FE000000
FE000000
FE000000
FE000000
FE000000
FE000000
FE000000
FE000000
FE000000
FE000000
FE000000
FE000000
FE000000
FE000000
FE000000
FFFFFFFF
FFFFFFFF
FFFFFFFF
FFFFFFFF
FFFFFFFF
FFFFFFFF
ENDCHAR
STARTCHAR Edieresis
ENCODING 203
SWIDTH 602 0
DWIDTH 43 0
BBX 32 66 7 0
BITMAP
07F01FC0
07F01FC0
07F01FC0
07F01FC0
07F01FC0
07F01FC0
07F01FC0
00000000
00000000
00000000
00000000
00000000
00000000
00000000
FFFFFFFE
FFFFFFFE
FFFFFFFE
FFFFFFFE
FFFFFFFE
FFFFFFFE
FE000000
FE000000
FE000000
FE000000
FE000000
FE000000
FE000000
FE000000
FE000000
FE000000
FE000000
FE000000
FE000000
FE000000
FE000000
FFFFFFFC
FFFFFFFC
FFFFFFFC
FFFFFFFC
FFFFFFFC
FFFFFFFC
FE000000
FE000000
FE000000
FE000000
FE000000
FE000000
FE000000
FE000000
FE000000
FE000000
FE000000
FE000000
FE000000
FE000000
FE000000
FE000000
FE000000
FE000000
FE000000
FFFFFFFF
FFFFFFFF
FFFFFFFF
FFFFFFFF
FFFFFFFF
FFFFFFFF
ENDCHAR
STARTCHAR Igrave
ENCODING 204
SWIDTH 602 0
DWIDTH 43 0
BBX 29 66 7 0
BITMAP
03F80000
01F80000
00FC0000
007E0000
003F0000
001F0000
000F8000
000FC000
0007E000
00000000
00000000
00000000
00000000
00000000
FFFFFFF8
FFFFFFF8
FFFFFFF8
FFFFFFF8
FFFFFFF8
FFFFFFF8
001FC000
001FC000
001FC000
001FC000
001FC000
001FC000
001FC000
001FC000
001FC000
001FC000
001FC000
001FC000
001FC000
001FC000
001FC000
001FC000
001FC000
001FC000
001FC000
001FC000
001FC000
001FC000
001FC000
001FC000
001FC000
001FC000
001FC000
001FC000
001FC000
001FC000
001FC000
001FC000
001FC000
001FC000
001FC000
001FC000
001FC000
001FC000
001FC000
001FC000
FFFFFFF8
FFFFFFF8
FFFFFFF8
FFFFFFF8
FFFFFFF8
FFFFFFF8
ENDCHAR
STARTCHAR Iacute
ENCODING 205
SWIDTH 602 0
DWIDTH 43 0
BBX 29 66 7 0
BITMAP
0000FE00
0000FC00
0001F800
0003F000
0007E000
0007C000
000F8000
001F8000
003F0000
00000000
00000000
00000000
00000000
00000000
FFFFFFF8
FFFFFFF8
FFFFFFF8
FFFFFFF8
FFFFFFF8
FFFFFFF8
001FC000
001FC000
001FC000
001FC000
001FC000
001FC000
001FC000
001FC000
001FC000
001FC000
001FC000
001FC000
001FC000
001FC000
001FC000
001FC000
001FC000
001FC000
001FC000
001FC000
001FC000
001FC000
001FC000
001FC000
001FC000
001FC000
001FC000
001FC000
001FC000
001FC000
001FC000
001FC000
001FC000
001FC000
001FC000
001FC000
001FC000
001FC000
001FC000
001FC000
FFFFFFF8
FFFFFFF8
FFFFFFF8
FFFFFFF8
FFFFFFF8
FFFFFFF8
ENDCHAR
STARTCHAR Icircumflex
ENCODING 206
SWIDTH 602 0
DWIDTH 43 0
BBX 29 66 7 0
BITMAP
001FC000
003FE000
007FF000
00FDF800
00F8F800
01F07C00
03E03E00
07C01F00
0F800F80
00000000
00000000
00000000
00000000
00000000
FFFFFFF8
FFFFFFF8
FFFFFFF8
FFFFFFF8
FFFFFFF8
FFFFFFF8
001FC000
001FC000
001FC000
001FC000
001FC000
001FC000
001FC000
001FC000
001FC000
001FC000
001FC000
001FC000
001FC000
001FC000
001FC000
001FC000
001FC000
001FC000
001FC000
001FC000
001FC000
001FC000
001FC000
001FC000
001FC000
001FC000
001FC000
001FC000
001FC000
001FC000
001FC000
001FC000
001FC000
001FC000
001FC000
001FC000
001FC000
001FC000
001FC000
001FC000
FFFFFFF8
FFFFFFF8
FFFFFFF8
FFFFFFF8
FFFFFFF8
FFFFFFF8
ENDCHAR
STARTCHAR Idieresis
ENCODING 207
SWIDTH 602 0
DWIDTH 43 0
BBX 29 66 7 0
BITMAP
0FE03F80
0FE03F80
0FE03F80
0FE03F80
0FE03F80
0FE03F80
0FE03F80
00000000
00000000
00000000
00000000
00000000
00000000
00000000
FFFFFFF8
FFFFFFF8
FFFFFFF8
FFFFFFF8
FFFFFFF8
FFFFFFF8
001FC000
001FC000
001FC000
001FC000
001FC000
001FC000
001FC000
001FC000
001FC000
001FC000
001FC000
001FC000
001FC000
001FC000
001FC000
001FC000
001FC000
001FC000
001FC000
001FC000
001FC000
001FC000
001FC000
001FC000
001FC000
001FC000
001FC000
001FC000
001FC000
001FC000
001FC000
001FC000
001FC000
001FC000
001FC000
001FC000
001FC000
001FC000
001FC000
001FC000
FFFFFFF8
FFFFFFF8
FFFFFFF8
FFFFFFF8
FFFFFFF8
FFFFFFF8
ENDCHAR
STARTCHAR Eth
ENCODING 208
SWIDTH 602 0
DWIDTH 43 0
BBX 38 52 1 0
BITMAP
0FFFF80000
0FFFFF8000
0FFFFFE000
0FFFFFF800
0FFFFFFC00
0FFFFFFE00
0FE00FFF00
0FE001FF80
0FE0007FC0
0FE0003FC0
0FE0001FE0
0FE0000FE0
0FE00007F0
0FE00007F0
0FE00003F8
0FE00003F8
0FE00003F8
0FE00003F8
0FE00003F8
0FE00001FC
0FE00001FC
0FE00001FC
FFFFF001FC
FFFFF001FC
FFFFF001FC
FFFFF001FC
FFFFF001FC
0FE00001FC
0FE00001FC
0FE00001FC
0FE00001FC
0FE00001FC
0FE00001FC
0FE00003F8
0FE00003F8
0FE00003F8
0FE00003F8
0FE00003F8
0FE00007F0
0FE00007F0
0FE0000FE0
0FE0001FE0
0FE0003FC0
0FE0007FC0
0FE001FF80
0FE00FFF00
0FFFFFFE00
0FFFFFFC00
0FFFFFF800
0FFFFFE000
0FFFFF8000
0FFFF00000
ENDCHAR
STARTCHAR Ntilde
ENCODING 209
SWIDTH 602 0
DWIDTH 43 0
BBX 34 66 5 0
BITMAP
00FC01E000
03FF01E000
07FFC3E000
07FFFFC000
0F87FFC000
0F01FF8000
0F007E0000
0000000000
0000000000
0000000000
0000000000
0000000000
0000000000
0000000000
FF80001FC0
FFC0001FC0
FFC0001FC0
FFE0001FC0
FFE0001FC0
FFE0001FC0
FFF0001FC0
FFF0001FC0
FFF8001FC0
FFF8001FC0
FEFC001FC0
FEFC001FC0
FEFC001FC0
FE7E001FC0
FE7E001FC0
FE3F001FC0
FE3F001FC0
FE3F001FC0
FE1F801FC0
FE1F801FC0
FE0FC01FC0
FE0FC01FC0
FE07E01FC0
FE07E01FC0
FE07E01FC0
FE03F01FC0
FE03F01FC0
FE01F81FC0
FE01F81FC0
FE01F81FC0
FE00FC1FC0
FE00FC1FC0
FE007E1FC0
FE007E1FC0
FE003F1FC0
FE003F1FC0
FE003F1FC0
FE001F9FC0
FE001F9FC0
FE000FDFC0
FE000FDFC0
FE000FDFC0
FE0007FFC0
FE0007FFC0
FE0003FFC0
FE0003FFC0
FE0001FFC0
FE0001FFC0
FE0001FFC0
FE0000FFC0
FE0000FFC0
FE00007FC0
ENDCHAR
STARTCHAR Ograve
ENCODING 210
SWIDTH 602 0
DWIDTH 43 0
BBX 35 67 4 -1
BITMAP
007F000000
003F000000
001F800000
000FC00000
0007E00000
0003E00000
0001F00000
0001F80000
0000FC0000
0000000000
0000000000
0000000000
0000000000
0007FC0000
003FFF8000
00FFFFE000
01FFFFF000
03FFFFF800
07FFFFFC00
0FFC07FE00
0FF001FE00
1FE000FF00
1FC0007F00
3FC0007F80
3F80003F80
3F80003F80
7F00001F80
7F00001FC0
7F00001FC0
7F00001FC0
7F00001FC0
FF00000FC0
FE00000FE0
FE00000FE0
FE00000FE0
FE00000FE0
FE00000FE0
FE00000FE0
FE00000FE0
FE00000FE0
FE00000FE0
FE00000FE0
FE00000FE0
FE00000FE0
FE00000FE0
FE00000FE0
FE00000FE0
FE00000FE0
FE00000FC0
7F00001FC0
7F00001FC0
7F00001FC0
7F00001FC0
7F00001FC0
3F80003F80
3F80003F80
3FC0007F80
1FC0007F00
1FE000FF00
0FF001FE00
0FFC07FE00
07FFFFFC00
03FFFFF800
01FFFFF000
00FFFFE000
003FFF8000
0007FC0000
ENDCHAR
STARTCHAR Oacute
ENCODING 211
SWIDTH 602 0
DWIDTH 43 0
BBX 35 67 4 -1
BITMAP
00001FC000
00001F8000
00003F0000
00007E0000
0000FC0000
0000F80000
0001F00000
0003F00000
0007E00000
0000000000
0000000000
0000000000
0000000000
0007FC0000
003FFF8000
00FFFFE000
01FFFFF000
03FFFFF800
07FFFFFC00
0FFC07FE00
0FF001FE00
1FE000FF00
1FC0007F00
3FC0007F80
3F80003F80
3F80003F80
7F00001F80
7F00001FC0
7F00001FC0
7F00001FC0
7F00001FC0
FF00000FC0
FE00000FE0
FE00000FE0
FE00000FE0
FE00000FE0
FE00000FE0
FE00000FE0
FE00000FE0
FE00000FE0
FE00000FE0
FE00000FE0
FE00000FE0
FE00000FE0
FE00000FE0
FE00000FE0
FE00000FE0
FE00000FE0
FE00000FC0
7F00001FC0
7F00001FC0
7F00001FC0
7F00001FC0
7F00001FC0
3F80003F80
3F80003F80
3FC0007F80
1FC0007F00
1FE000FF00
0FF001FE00
0FFC07FE00
07FFFFFC00
03FFFFF800
01FFFFF000
00FFFFE000
003FFF8000
0007FC0000
ENDCHAR
STARTCHAR Ocircumflex
ENCODING 212
SWIDTH 602 0
DWIDTH 43 0
BBX 35 67 4 -1
BITMAP
0003F80000
0007FC0000
000FFE0000
001FBF0000
001F1F0000
003E0F8000
007C07C000
00F803E000
01F001F000
0000000000
0000000000
0000000000
0000000000
0007FC0000
003FFF8000
00FFFFE000
01FFFFF000
03FFFFF800
07FFFFFC00
0FFC07FE00
0FF001FE00
1FE000FF00
1FC0007F00
3FC0007F80
3F80003F80
3F80003F80
7F00001F80
7F00001FC0
7F00001FC0
7F00001FC0
7F00001FC0
FF00000FC0
FE00000FE0
FE00000FE0
FE00000FE0
FE00000FE0
FE00000FE0
FE00000FE0
FE00000FE0
FE00000FE0
FE00000FE0
FE00000FE0
FE00000FE0
FE00000FE0
FE00000FE0
FE00000FE0
FE00000FE0
FE00000FE0
FE00000FC0
7F00001FC0
7F00001FC0
7F00001FC0
7F00001FC0
7F00001FC0
3F80003F80
3F80003F80
3FC0007F80
1FC0007F00
1FE000FF00
0FF001FE00
0FFC07FE00
07FFFFFC00
03FFFFF800
01FFFFF000
00FFFFE000
003FFF8000
0007FC0000
ENDCHAR
STARTCHAR Otilde
ENCODING 213
SWIDTH 602 0
DWIDTH 43 0
BBX 35 67 4 -1
BITMAP
003F007800
00FFC07800
01FFF0F800
01FFFFF000
03E1FFF000
03C07FE000
03C01F8000
0000000000
0000000000
0000000000
0000000000
0000000000
0000000000
0007FC0000
003FFF8000
00FFFFE000
01FFFFF000
03FFFFF800
07FFFFFC00
0FFC07FE00
0FF001FE00
1FE000FF00
1FC0007F00
3FC0007F80
3F80003F80
3F80003F80
7F00001F80
7F00001FC0
7F00001FC0
7F00001FC0
7F00001FC0
FF00000FC0
FE00000FE0
FE00000FE0
FE00000FE0
FE00000FE0
FE00000FE0
FE00000FE0
FE00000FE0
FE00000FE0
FE00000FE0
FE00000FE0
FE00000FE0
FE00000FE0
FE00000FE0
FE00000FE0
FE00000FE0
FE00000FE0
FE00000FC0
7F00001FC0
7F00001FC0
7F00001FC0
7F00001FC0
7F00001FC0
3F80003F80
3F80003F80
3FC0007F80
1FC0007F00
1FE000FF00
0FF001FE00
0FFC07FE00
07FFFFFC00
03FFFFF800
01FFFFF000
00FFFFE000
003FFF8000
0007FC0000
ENDCHAR
STARTCHAR Odieresis
ENCODING 214
SWIDTH 602 0
DWIDTH 43 0
BBX 35 67 4 -1
BITMAP
01FC07F000
01FC07F000
01FC07F000
01FC07F000
01FC07F000
01FC07F000
01FC07F000
0000000000
0000000000
0000000000
0000000000
0000000000
0000000000
0007FC0000
003FFF8000
00FFFFE000
01FFFFF000
03FFFFF800
07FFFFFC00
0FFC07FE00
0FF001FE00
1FE000FF00
1FC0007F00
3FC0007F80
3F80003F80
3F80003F80
7F00001F80
7F00001FC0
7F00001FC0
7F00001FC0
7F00001FC0
FF00000FC0
FE00000FE0
FE00000FE0
FE00000FE0
FE00000FE0
FE00000FE0
FE00000FE0
FE00000FE0
FE00000FE0
FE00000FE0
FE00000FE0
FE00000FE0
FE00000FE0
FE00000FE0
FE00000FE0
FE00000FE0
FE00000FE0
FE00000FC0
7F00001FC0
7F00001FC0
7F00001FC0
7F00001FC0
7F00001FC0
3F80003F80
3F80003F80
3FC0007F80
1FC0007F00
1FE000FF00
0FF001FE00
0FFC07FE00
07FFFFFC00
03FFFFF800
01FFFFF000
00FFFFE000
003FFF8000
0007FC0000
ENDCHAR
STARTCHAR multiply
ENCODING 215
SWIDTH 602 0
DWIDTH 43 0
BBX 33 33 5 6
BITMAP
0800000800
1C00001C00
3E00003E00
7F00007F00
FF8000FF80
7FC001FF00
3FE003FE00
1FF007FC00
0FF80FF800
07FC1FF000
03FE3FE000
01FF7FC000
00FFFF8000
007FFF0000
003FFE0000
001FFC0000
000FF80000
001FFC0000
003FFE0000
007FFF0000
00FFFF8000
01FF7FC000
03FE3FE000
07FC1FF000
0FF80FF800
1FF007FC00
3FE003FE00
7FC001FF00
FF8000FF80
7F00007F00
3E00003E00
1C00001C00
0800000800
ENDCHAR
STARTCHAR Oslash
ENCODING 216
SWIDTH 602 0
DWIDTH 43 0
BBX 41 56 1 -2
BITMAP
000000000600
0000FF800F00
0007FFF00F80
001FFFF81F00
003FFFFE3E00
007FFFFF3E00
00FFFFFFFC00
01FF80FFF800
01FE003FF800
03FC001FF000
03F8000FE000
07F8000FF000
07F00007F000
07F0000FF000
0FE0001FF800
0FE0001FF800
0FE0003FF800
0FE0007FF800
0FE000FFF800
1FE000F9F800
1FC001F1FC00
1FC003F1FC00
1FC007E1FC00
1FC007C1FC00
1FC00F81FC00
1FC01F81FC00
1FC03F01FC00
1FC03E01FC00
1FC07C01FC00
1FC0FC01FC00
1FC1F801FC00
1FC1F001FC00
1FC3F001FC00
1FC7E001FC00
1FC7C001FC00
1FCF8001FC00
1FDF8001FC00
0FFF0003F800
0FFE0003F800
0FFC0003F800
0FFC0003F800
0FF80003F800
0FF00007F000
07F00007F000
07F0000FF000
07F8000FE000
0FFC001FE000
0FFE003FC000
1FFF80FFC000
3EFFFFFF8000
3E7FFFFF0000
7C3FFFFE0000
F81FFFFC0000
F807FFF00000
F000FF800000
600000000000
ENDCHAR
STARTCHAR Ugrave
ENCODING 217
SWIDTH 602 0
DWIDTH 43 0
BBX 33 67 5 -1
BITMAP
00FE000000
007E000000
003F000000
001F800000
000FC00000
0007C00000
0003E00000
0003F00000
0001F80000
0000000000
0000000000
0000000000
0000000000
0000000000
FE00003F80
FE00003F80
FE00003F80
FE00003F80
FE00003F80
FE00003F80
FE00003F80
FE00003F80
FE00003F80
FE00003F80
FE00003F80
FE00003F80
FE00003F80
FE00003F80
FE00003F80
FE00003F80
FE00003F80
FE00003F80
FE00003F80
FE00003F80
FE00003F80
FE00003F80
FE00003F80
FE00003F80
FE00003F80
FE00003F80
FE00003F80
FE00003F80
FE00003F80
FE00003F80
FE00003F80
FE00003F80
FE00003F80
FE00003F80
FE00003F80
FE00003F80
FE00003F80
FE00003F80
FE00003F80
FE00003F80
FE00003F80
7E00003F00
7F00007F00
7F00007F00
7F8000FF00
3FC001FE00
3FF80FFE00
1FFFFFFC00
0FFFFFF800
07FFFFF000
01FFFFC000
007FFF8000
000FF80000
ENDCHAR
STARTCHAR Uacute
ENCODING 218
SWIDTH 602 0
DWIDTH 43 0
BBX 33 67 5 -1
BITMAP
00003F8000
00003F0000
00007E0000
0000FC0000
0001F80000
0001F00000
0003E00000
0007E00000
000FC00000
0000000000
0000000000
0000000000
0000000000
0000000000
FE00003F80
FE00003F80
FE00003F80
FE00003F80
FE00003F80
FE00003F80
FE00003F80
FE00003F80
FE00003F80
FE00003F80
FE00003F80
FE00003F80
FE00003F80
FE00003F80
FE00003F80
FE00003F80
FE00003F80
FE00003F80
FE00003F80
FE00003F80
FE00003F80
FE00003F80
FE00003F80
FE00003F80
FE00003F80
FE00003F80
FE00003F80
FE00003F80
FE00003F80
FE00003F80
FE00003F80
FE00003F80
FE00003F80
FE00003F80
FE00003F80
FE00003F80
FE00003F80
FE00003F80
FE00003F80
FE00003F80
FE00003F80
7E00003F00
7F00007F00
7F00007F00
7F8000FF00
3FC001FE00
3FF80FFE00
1FFFFFFC00
0FFFFFF800
07FFFFF000
01FFFFC000
007FFF8000
000FF80000
ENDCHAR
STARTCHAR Ucircumflex
ENCODING 219
SWIDTH 602 0
DWIDTH 43 0
BBX 33 67 5 -1
BITMAP
0007F00000
000FF80000
001FFC0000
003F7E0000
003E3E0000
007C1F0000
00F80F8000
01F007C000
03E003E000
0000000000
0000000000
0000000000
0000000000
0000000000
FE00003F80
FE00003F80
FE00003F80
FE00003F80
FE00003F80
FE00003F80
FE00003F80
FE00003F80
FE00003F80
FE00003F80
FE00003F80
FE00003F80
FE00003F80
FE00003F80
FE00003F80
FE00003F80
FE00003F80
FE00003F80
FE00003F80
FE00003F80
FE00003F80
FE00003F80
FE00003F80
FE00003F80
FE00003F80
FE00003F80
FE00003F80
FE00003F80
FE00003F80
FE00003F80
FE00003F80
FE00003F80
FE00003F80
FE00003F80
FE00003F80
FE00003F80
FE00003F80
FE00003F80
FE00003F80
FE00003F80
FE00003F80
7E00003F00
7F00007F00
7F00007F00
7F8000FF00
3FC001FE00
3FF80FFE00
1FFFFFFC00
0FFFFFF800
07FFFFF000
01FFFFC000
007FFF8000
000FF80000
ENDCHAR
STARTCHAR Udieresis
ENCODING 220
SWIDTH 602 0
DWIDTH 43 0
BBX 33 67 5 -1
BITMAP
03F80FE000
03F80FE000
03F80FE000
03F80FE000
03F80FE000
03F80FE000
03F80FE000
0000000000
0000000000
0000000000
0000000000
0000000000
0000000000
0000000000
FE00003F80
FE00003F80
FE00003F80
FE00003F80
FE00003F80
FE00003F80
FE00003F80
FE00003F80
FE00003F80
FE00003F80
FE00003F80
FE00003F80
FE00003F80
FE00003F80
FE00003F80
FE00003F80
FE00003F80
FE00003F80
FE00003F80
FE00003F80
FE00003F80
FE00003F80
FE00003F80
FE00003F80
FE00003F80
FE00003F80
FE00003F80
FE00003F80
FE00003F80
FE00003F80
FE00003F80
FE00003F80
FE00003F80
FE00003F80
FE00003F80
FE00003F80
FE00003F80
FE00003F80
FE00003F80
FE00003F80
FE00003F80
7E00003F00
7F00007F00
7F00007F00
7F8000FF00
3FC001FE00
3FF80FFE00
1FFFFFFC00
0FFFFFF800
07FFFFF000
01FFFFC000
007FFF8000
000FF80000
ENDCHAR
STARTCHAR Yacute
ENCODING 221
SWIDTH 602 0
DWIDTH 43 0
BBX 41 66 1 0
BITMAP
000003F80000
000003F00000
000007E00000
00000FC00000
00001F800000
00001F000000
00003E000000
00007E000000
0000FC000000
000000000000
000000000000
000000000000
000000000000
000000000000
FF0000007F80
7F800000FF00
7F800000FF00
3FC00001FE00
1FC00001FC00
1FE00003FC00
0FE00003F800
0FF00007F800
07F00007F000
03F8000FE000
03FC001FE000
01FC001FC000
01FE003FC000
00FE003F8000
007F007F0000
007F007F0000
003F80FE0000
003F80FE0000
001FC1FC0000
000FE3F80000
000FE3F80000
0007F7F00000
0007F7F00000
0003FFE00000
0001FFC00000
0001FFC00000
0000FF800000
0000FF800000
00007F000000
00007F000000
00007F000000
00007F000000
00007F000000
00007F000000
00007F000000
00007F000000
00007F000000
00007F000000
00007F000000
00007F000000
00007F000000
00007F000000
00007F000000
00007F000000
00007F000000
00007F000000
00007F000000
00007F000000
00007F000000
00007F000000
00007F000000
00007F000000
ENDCHAR
STARTCHAR Thorn
ENCODING 222
SWIDTH 602 0
DWIDTH 43 0
BBX 34 52 7 0
BITMAP
FE00000000
FE00000000
FE00000000
FE00000000
FE00000000
FE00000000
FE00000000
FE00000000
FE00000000
FFFFFC0000
FFFFFFC000
FFFFFFF000
FFFFFFF800
FFFFFFFE00
FFFFFFFE00
FE000FFF00
FE0001FF80
FE0000FF80
FE00007F80
FE00003FC0
FE00003FC0
FE00001FC0
FE00001FC0
FE00001FC0
FE00001FC0
FE00001FC0
FE00001FC0
FE00003FC0
FE00003FC0
FE00007F80
FE0000FF80
FE0001FF80
FE000FFF00
FFFFFFFE00
FFFFFFFE00
FFFFFFF800
FFFFFFF000
FFFFFFC000
FFFFFC0000
FE00000000
FE00000000
FE00000000
FE00000000
FE00000000
FE00000000
FE00000000
FE00000000
FE00000000
FE00000000
FE00000000
FE00000000
FE00000000
ENDCHAR
STARTCHAR germandbls
ENCODING 223
SWIDTH 602 0
DWIDTH 43 0
BBX 34 56 7 -1
BITMAP
003FF00000
01FFFE0000
07FFFF8000
0FFFFFC000
1FFFFFE000
3FE01FE000
3F8007F000
7F0003F800
7E0001F800
7E0001F800
FE0000F800
FC0000FC00
FC0000FC00
FC0003FC00
FC001FFC00
FC007FF000
FC00FF0000
FC01FC0000
FC03F80000
FC07E00000
FC07E00000
FC0FC00000
FC0FC00000
FC0FC00000
FC0FC00000
FC0FC00000
FC0FE00000
FC0FF00000
FC07F80000
FC07FE0000
FC03FF0000
FC03FFC000
FC01FFE000
FC00FFF800
FC003FFC00
FC000FFE00
FC0003FF00
FC0001FF00
FC00007F80
FC00003F80
FC00001FC0
FC00001FC0
FC00000FC0
FC00000FC0
FC00000FC0
FC00000FC0
FC00000FC0
FC00001FC0
FC00003F80
FC40007F80
FC7C01FF00
FC7FFFFE00
FC7FFFFC00
FC7FFFF800
FC7FFFE000
000FFF0000
ENDCHAR
STARTCHAR agrave
ENCODING 224
SWIDTH 602 0
DWIDTH 43 0
BBX 33 59 5 -1
BITMAP
07F0000000
03F8000000
01FC000000
00FE000000
007E000000
003F000000
001F800000
000FC00000
0007E00000
0007E00000
0003F00000
0001F80000
0000FC0000
0000000000
0000000000
0000000000
0000000000
0000000000
001FFC0000
01FFFF8000
0FFFFFE000
1FFFFFF000
1FFFFFFC00
1FF007FC00
1F0000FE00
1C00007F00
1000003F00
0000003F00
0000001F80
0000001F80
0000001F80
0000001F80
0000001F80
000FFFFF80
00FFFFFF80
03FFFFFF80
0FFFFFFF80
1FFFFFFF80
3FF8001F80
3FC0001F80
7F80001F80
7E00001F80
FE00001F80
FC00001F80
FC00003F80
FC00003F80
FC00003F80
FC00007F80
FC00007F80
FE0000FF80
7E0001FF80
7F0003FF80
7F8007FF80
3FE03FDF80
1FFFFFDF80
0FFFFF1F80
07FFFE1F80
03FFF81F80
007FE00000
ENDCHAR
STARTCHAR aacute
ENCODING 225
SWIDTH 602 0
DWIDTH 43 0
BBX 33 59 5 -1
BITMAP
000003F800
000007F000
00000FE000
00001FC000
00001F8000
00003F0000
00007E0000
0000FC0000
0001F80000
0001F80000
0003F00000
0007E00000
000FC00000
0000000000
0000000000
0000000000
0000000000
0000000000
001FFC0000
01FFFF8000
0FFFFFE000
1FFFFFF000
1FFFFFFC00
1FF007FC00
1F0000FE00
1C00007F00
1000003F00
0000003F00
0000001F80
0000001F80
0000001F80
0000001F80
0000001F80
000FFFFF80
00FFFFFF80
03FFFFFF80
0FFFFFFF80
1FFFFFFF80
3FF8001F80
3FC0001F80
7F80001F80
7E00001F80
FE00001F80
FC00001F80
FC00003F80
FC00003F80
FC00003F80
FC00007F80
FC00007F80
FE0000FF80
7E0001FF80
7F0003FF80
7F8007FF80
3FE03FDF80
1FFFFFDF80
0FFFFF1F80
07FFFE1F80
03FFF81F80
007FE00000
ENDCHAR
STARTCHAR acircumflex
ENCODING 226
SWIDTH 602 0
DWIDTH 43 0
BBX 33 59 5 -1
BITMAP
0007E00000
000FF00000
000FF00000
001FF80000
001FF80000
003E7C0000
007E7E0000
007C3E0000
00F81F0000
01F00F8000
01F00F8000
03E007C000
07C003E000
0000000000
0000000000
0000000000
0000000000
0000000000
001FFC0000
01FFFF8000
0FFFFFE000
1FFFFFF000
1FFFFFFC00
1FF007FC00
1F0000FE00
1C00007F00
1000003F00
0000003F00
0000001F80
0000001F80
0000001F80
0000001F80
0000001F80
000FFFFF80
00FFFFFF80
03FFFFFF80
0FFFFFFF80
1FFFFFFF80
3FF8001F80
3FC0001F80
7F80001F80
7E00001F80
FE00001F80
FC00001F80
FC00003F80
FC00003F80
FC00003F80
FC00007F80
FC00007F80
FE0000FF80
7E0001FF80
7F0003FF80
7F8007FF80
3FE03FDF80
1FFFFFDF80
0FFFFF1F80
07FFFE1F80
03FFF81F80
007FE00000
ENDCHAR
STARTCHAR atilde
ENCODING 227
SWIDTH 602 0
DWIDTH 43 0
BBX 33 57 5 -1
BITMAP
007C00F000
00FF00F000
01FF80F000
03FFE1F000
03C7F1E000
07C3FFE000
0780FFC000
07807F8000
07801F0000
0000000000
0000000000
0000000000
0000000000
0000000000
0000000000
0000000000
001FFC0000
01FFFF8000
0FFFFFE000
1FFFFFF000
1FFFFFFC00
1FF007FC00
1F0000FE00
1C00007F00
1000003F00
0000003F00
0000001F80
0000001F80
0000001F80
0000001F80
0000001F80
000FFFFF80
00FFFFFF80
03FFFFFF80
0FFFFFFF80
1FFFFFFF80
3FF8001F80
3FC0001F80
7F80001F80
7E00001F80
FE00001F80
FC00001F80
FC00003F80
FC00003F80
FC00003F80
FC00007F80
FC00007F80
FE0000FF80
7E0001FF80
7F0003FF80
7F8007FF80
3FE03FDF80
1FFFFFDF80
0FFFFF1F80
07FFFE1F80
03FFF81F80
007FE00000
ENDCHAR
STARTCHAR adieresis
ENCODING 228
SWIDTH 602 0
DWIDTH 43 0
BBX 33 56 5 -1
BITMAP
03F80FE000
03F80FE000
03F80FE000
03F80FE000
03F80FE000
03F80FE000
03F80FE000
0000000000
0000000000
0000000000
0000000000
0000000000
0000000000
0000000000
0000000000
001FFC0000
01FFFF8000
0FFFFFE000
1FFFFFF000
1FFFFFFC00
1FF007FC00
1F0000FE00
1C00007F00
1000003F00
0000003F00
0000001F80
0000001F80
0000001F80
0000001F80
0000001F80
000FFFFF80
00FFFFFF80
03FFFFFF80
0FFFFFFF80
1FFFFFFF80
3FF8001F80
3FC0001F80
7F80001F80
7E00001F80
FE00001F80
FC00001F80
FC00003F80
FC00003F80
FC00003F80
FC00007F80
FC00007F80
FE0000FF80
7E0001FF80
7F0003FF80
7F8007FF80
3FE03FDF80
1FFFFFDF80
0FFFFF1F80
07FFFE1F80
03FFF81F80
007FE00000
ENDCHAR
STARTCHAR aring
ENCODING 229
SWIDTH 602 0
DWIDTH 43 0
BBX 33 64 5 -1
BITMAP
0007F00000
001FFC0000
003FFE0000
007FFF0000
00FC1F8000
00F80F8000
01F007C000
01E003C000
01E003C000
01E003C000
01E003C000
01E003C000
01F007C000
00F80F8000
00FC1F8000
007FFF0000
003FFE0000
001FFC0000
0007F00000
0000000000
0000000000
0000000000
0000000000
001FFC0000
01FFFF8000
0FFFFFE000
1FFFFFF000
1FFFFFFC00
1FF007FC00
1F0000FE00
1C00007F00
1000003F00
0000003F00
0000001F80
0000001F80
0000001F80
0000001F80
0000001F80
000FFFFF80
00FFFFFF80
03FFFFFF80
0FFFFFFF80
1FFFFFFF80
3FF8001F80
3FC0001F80
7F80001F80
7E00001F80
FE00001F80
FC00001F80
FC00003F80
FC00003F80
FC00003F80
FC00007F80
FC00007F80
FE0000FF80
7E0001FF80
7F0003FF80
7F8007FF80
3FE03FDF80
1FFFFFDF80
0FFFFF1F80
07FFFE1F80
03FFF81F80
007FE00000
ENDCHAR
STARTCHAR ae
ENCODING 230
SWIDTH 602 0
DWIDTH 43 0
BBX 41 41 1 -1
BITMAP
01FF003FC000
1FFFC0FFF000
3FFFF3FFF800
3FFFFFFFFC00
3FFFFFFFFE00
3F03FFE0FE00
3801FFC07F00
2000FF803F00
00007F803F00
00007F803F00
00003F001F00
00003F001F80
00003F001F80
00003F001F80
00003F001F80
00003F001F80
00003F001F80
007FFFFFFF80
03FFFFFFFF80
0FFFFFFFFF80
1FFFFFFFFF80
3FFFFFFFFF80
3FE03F000000
7F003F000000
7E003F000000
FE003F000000
FC003F000000
FC003F000000
FC003F000000
FC003F000000
FC003F000000
FC007F800000
FE007F800000
FE007FC00300
7F00FFE00700
7F81FFF01F00
3FFFFFFFFF00
3FFFF3FFFF00
1FFFE1FFFE00
07FFC0FFFC00
01FE001FE000
ENDCHAR
STARTCHAR ccedilla
ENCODING 231
SWIDTH 602 0
DWIDTH 43 0
BBX 30 54 7 -14
BITMAP
0003FF80
001FFFF8
007FFFFC
01FFFFFC
03FFFFFC
07FF01FC
0FF8003C
1FF0000C
1FE00004
3FC00000
3F800000
7F800000
7F000000
7F000000
7F000000
FE000000
FE000000
FE000000
FE000000
FE000000
FE000000
FE000000
FE000000
FE000000
FE000000
FE000000
7F000000
7F000000
7F000000
7F800000
3F800000
3FC00000
1FE00004
1FF0000C
0FF8003C
07FF00FC
03FFFFFC
01FFFFFC
007FFFFC
001FFFF8
0003FF80
00003C00
00001E00
00001F00
00000F00
00000F80
00000F80
00000F80
00001F80
00203F80
003FFF00
003FFF00
003FFE00
001FF000
ENDCHAR
STARTCHAR egrave
ENCODING 232
SWIDTH 602 0
DWIDTH 43 0
BBX 35 59 4 -1
BITMAP
01FC000000
00FE000000
007F000000
003F800000
001F800000
000FC00000
0007E00000
0003F00000
0001F80000
0001F80000
0000FC0000
00007E0000
00003F0000
0000000000
0000000000
0000000000
0000000000
0000000000
0003FE0000
001FFFC000
007FFFF000
01FFFFF800
03FFFFFC00
07FE03FE00
0FF800FF00
0FE0003F00
1FC0001F80
3FC0001F80
3F80000FC0
7F00000FC0
7F00000FC0
7F000007E0
7E000007E0
FE000007E0
FE000007E0
FFFFFFFFE0
FFFFFFFFE0
FFFFFFFFE0
FFFFFFFFE0
FFFFFFFFE0
FE00000000
FE00000000
FE00000000
FE00000000
7E00000000
7E00000000
7F00000000
7F00000000
3F80000000
3F80000000
1FC0000080
1FE0000380
0FF8001F80
07FE00FF80
03FFFFFF80
01FFFFFF80
007FFFFF00
001FFFF800
0003FF8000
ENDCHAR
STARTCHAR eacute
ENCODING 233
SWIDTH 602 0
DWIDTH 43 0
BBX 35 59 4 -1
BITMAP
000000FE00
000001FC00
000003F800
000007F000
000007E000
00000FC000
00001F8000
00003F0000
00007E0000
00007E0000
0000FC0000
0001F80000
0003F00000
0000000000
0000000000
0000000000
0000000000
0000000000
0003FE0000
001FFFC000
007FFFF000
01FFFFF800
03FFFFFC00
07FE03FE00
0FF800FF00
0FE0003F00
1FC0001F80
3FC0001F80
3F80000FC0
7F00000FC0
7F00000FC0
7F000007E0
7E000007E0
FE000007E0
FE000007E0
FFFFFFFFE0
FFFFFFFFE0
FFFFFFFFE0
FFFFFFFFE0
FFFFFFFFE0
FE00000000
FE00000000
FE00000000
FE00000000
7E00000000
7E00000000
7F00000000
7F00000000
3F80000000
3F80000000
1FC0000080
1FE0000380
0FF8001F80
07FE00FF80
03FFFFFF80
01FFFFFF80
007FFFFF00
001FFFF800
0003FF8000
ENDCHAR
STARTCHAR ecircumflex
ENCODING 234
SWIDTH 602 0
DWIDTH 43 0
BBX 35 59 4 -1
BITMAP
0001F80000
0003FC0000
0003FC0000
0007FE0000
0007FE0000
000F9F0000
001F9F8000
001F0F8000
003E07C000
007C03E000
007C03E000
00F801F000
01F000F800
0000000000
0000000000
0000000000
0000000000
0000000000
0003FE0000
001FFFC000
007FFFF000
01FFFFF800
03FFFFFC00
07FE03FE00
0FF800FF00
0FE0003F00
1FC0001F80
3FC0001F80
3F80000FC0
7F00000FC0
7F00000FC0
7F000007E0
7E000007E0
FE000007E0
FE000007E0
FFFFFFFFE0
FFFFFFFFE0
FFFFFFFFE0
FFFFFFFFE0
FFFFFFFFE0
FE00000000
FE00000000
FE00000000
FE00000000
7E00000000
7E00000000
7F00000000
7F00000000
3F80000000
3F80000000
1FC0000080
1FE0000380
0FF8001F80
07FE00FF80
03FFFFFF80
01FFFFFF80
007FFFFF00
001FFFF800
0003FF8000
ENDCHAR
STARTCHAR edieresis
ENCODING 235
SWIDTH 602 0
DWIDTH 43 0
BBX 35 56 4 -1
BITMAP
00FE03F800
00FE03F800
00FE03F800
00FE03F800
00FE03F800
00FE03F800
00FE03F800
0000000000
0000000000
0000000000
0000000000
0000000000
0000000000
0000000000
0000000000
0003FE0000
001FFFC000
007FFFF000
01FFFFF800
03FFFFFC00
07FE03FE00
0FF800FF00
0FE0003F00
1FC0001F80
3FC0001F80
3F80000FC0
7F00000FC0
7F00000FC0
7F000007E0
7E000007E0
FE000007E0
FE000007E0
FFFFFFFFE0
FFFFFFFFE0
FFFFFFFFE0
FFFFFFFFE0
FFFFFFFFE0
FE00000000
FE00000000
FE00000000
FE00000000
7E00000000
7E00000000
7F00000000
7F00000000
3F80000000
3F80000000
1FC0000080
1FE0000380
0FF8001F80
07FE00FF80
03FFFFFF80
01FFFFFF80
007FFFFF00
001FFFF800
0003FF8000
ENDCHAR
STARTCHAR igrave
ENCODING 236
SWIDTH 602 0
DWIDTH 43 0
BBX 32 58 6 0
BITMAP
0FE00000
07F00000
03F80000
01FC0000
00FC0000
007E0000
003F0000
001F8000
000FC000
000FC000
0007E000
0003F000
0001F800
00000000
00000000
00000000
00000000
00000000
00000000
1FFFE000
1FFFE000
1FFFE000
1FFFE000
1FFFE000
0007E000
0007E000
0007E000
0007E000
0007E000
0007E000
0007E000
0007E000
0007E000
0007E000
0007E000
0007E000
0007E000
0007E000
0007E000
0007E000
0007E000
0007E000
0007E000
0007E000
0007E000
0007E000
0007E000
0007E000
0007E000
0007E000
0007E000
0007E000
0007E000
FFFFFFFF
FFFFFFFF
FFFFFFFF
FFFFFFFF
FFFFFFFF
ENDCHAR
STARTCHAR iacute
ENCODING 237
SWIDTH 602 0
DWIDTH 43 0
BBX 32 58 6 0
BITMAP
000007F0
00000FE0
00001FC0
00003F80
00003F00
00007E00
0000FC00
0001F800
0003F000
0003F000
0007E000
000FC000
001F8000
00000000
00000000
00000000
00000000
00000000
00000000
1FFFE000
1FFFE000
1FFFE000
1FFFE000
1FFFE000
0007E000
0007E000
0007E000
0007E000
0007E000
0007E000
0007E000
0007E000
0007E000
0007E000
0007E000
0007E000
0007E000
0007E000
0007E000
0007E000
0007E000
0007E000
0007E000
0007E000
0007E000
0007E000
0007E000
0007E000
0007E000
0007E000
0007E000
0007E000
0007E000
FFFFFFFF
FFFFFFFF
FFFFFFFF
FFFFFFFF
FFFFFFFF
ENDCHAR
STARTCHAR icircumflex
ENCODING 238
SWIDTH 602 0
DWIDTH 43 0
BBX 32 58 6 0
BITMAP
000FC000
001FE000
001FE000
003FF000
003FF000
007CF800
00FCFC00
00F87C00
01F03E00
03E01F00
03E01F00
07C00F80
0F8007C0
00000000
00000000
00000000
00000000
00000000
00000000
1FFFE000
1FFFE000
1FFFE000
1FFFE000
1FFFE000
0007E000
0007E000
0007E000
0007E000
0007E000
0007E000
0007E000
0007E000
0007E000
0007E000
0007E000
0007E000
0007E000
0007E000
0007E000
0007E000
0007E000
0007E000
0007E000
0007E000
0007E000
0007E000
0007E000
0007E000
0007E000
0007E000
0007E000
0007E000
0007E000
FFFFFFFF
FFFFFFFF
FFFFFFFF
FFFFFFFF
FFFFFFFF
ENDCHAR
STARTCHAR idieresis
ENCODING 239
SWIDTH 602 0
DWIDTH 43 0
BBX 32 55 6 0
BITMAP
07F01FC0
07F01FC0
07F01FC0
07F01FC0
07F01FC0
07F01FC0
07F01FC0
00000000
00000000
00000000
00000000
00000000
00000000
00000000
00000000
00000000
1FFFE000
1FFFE000
1FFFE000
1FFFE000
1FFFE000
0007E000
0007E000
0007E000
0007E000
0007E000
0007E000
0007E000
0007E000
0007E000
0007E000
0007E000
0007E000
0007E000
0007E000
0007E000
0007E000
0007E000
0007E000
0007E000
0007E000
0007E000
0007E000
0007E000
0007E000
0007E000
0007E000
0007E000
0007E000
0007E000
FFFFFFFF
FFFFFFFF
FFFFFFFF
FFFFFFFF
FFFFFFFF
ENDCHAR
STARTCHAR eth
ENCODING 240
SWIDTH 602 0
DWIDTH 43 0
BBX 34 56 5 -1
BITMAP
03FC000000
01FE000000
00FF003000
007F81F800
003FCFF800
001FFFF000
000FFF8000
001FFC0000
00FFF80000
07FFFC0000
0FF9FE0000
0FC0FF0000
06007F0000
00003F8000
00001FC000
00001FE000
000FFFE000
007FFFF000
00FFFFF800
03FFFFF800
07FFFFFC00
0FFC03FC00
1FF000FE00
1FE000FE00
3FC0007F00
3F80007F00
7F80007F00
7F00003F80
7F00003F80
7F00003F80
FE00003F80
FE00001FC0
FE00001FC0
FE00001FC0
FE00001FC0
FE00001FC0
FE00001FC0
FE00001FC0
FE00001FC0
FE00001FC0
FE00001FC0
FE00001FC0
7F00003F80
7F00003F80
7F00003F80
7F80007F80
3F80007F00
3FC000FF00
1FE001FE00
1FF003FE00
0FFC0FFC00
07FFFFF800
03FFFFF000
00FFFFE000
007FFF8000
000FFC0000
ENDCHAR
STARTCHAR ntilde
ENCODING 241
SWIDTH 602 0
DWIDTH 43 0
BBX 30 56 7 0
BITMAP
01F003C0
03FC03C0
07FE03C0
0FFF87C0
0F1FC780
1F0FFF80
1E03FF00
1E01FE00
1E007C00
00000000
00000000
00000000
00000000
00000000
00000000
00000000
0003FC00
FC1FFF00
FC7FFFC0
FCFFFFE0
FDFFFFE0
FFF81FF0
FFC007F8
FF8003F8
FF0001F8
FF0001F8
FE0001FC
FE0000FC
FE0000FC
FC0000FC
FC0000FC
FC0000FC
FC0000FC
FC0000FC
FC0000FC
FC0000FC
FC0000FC
FC0000FC
FC0000FC
FC0000FC
FC0000FC
FC0000FC
FC0000FC
FC0000FC
FC0000FC
FC0000FC
FC0000FC
FC0000FC
FC0000FC
FC0000FC
FC0000FC
FC0000FC
FC0000FC
FC0000FC
FC0000FC
FC0000FC
ENDCHAR
STARTCHAR ograve
ENCODING 242
SWIDTH 602 0
DWIDTH 43 0
BBX 34 59 5 -1
BITMAP
07F0000000
03F8000000
01FC000000
00FE000000
007E000000
003F000000
001F800000
000FC00000
0007E00000
0007E00000
0003F00000
0001F80000
0000FC0000
0000000000
0000000000
0000000000
0000000000
0000000000
000FFC0000
007FFF8000
01FFFFE000
03FFFFF000
07FFFFF800
0FFC0FFC00
1FF003FE00
1FE001FE00
3FC000FF00
3F80007F00
7F80007F80
7F00003F80
7F00003F80
7F00003F80
FE00003FC0
FE00001FC0
FE00001FC0
FE00001FC0
FE00001FC0
FE00001FC0
FE00001FC0
FE00001FC0
FE00001FC0
FE00001FC0
FE00001FC0
FE00001FC0
FE00003FC0
7F00003F80
7F00003F80
7F00003F80
7F80007F80
3F80007F00
3FC000FF00
1FE001FE00
1FF003FE00
0FFC0FFC00
07FFFFF800
03FFFFF000
01FFFFE000
007FFF8000
000FFC0000
ENDCHAR
STARTCHAR oacute
ENCODING 243
SWIDTH 602 0
DWIDTH 43 0
BBX 34 59 5 -1
BITMAP
000003F800
000007F000
00000FE000
00001FC000
00001F8000
00003F0000
00007E0000
0000FC0000
0001F80000
0001F80000
0003F00000
0007E00000
000FC00000
0000000000
0000000000
0000000000
0000000000
0000000000
000FFC0000
007FFF8000
01FFFFE000
03FFFFF000
07FFFFF800
0FFC0FFC00
1FF003FE00
1FE001FE00
3FC000FF00
3F80007F00
7F80007F80
7F00003F80
7F00003F80
7F00003F80
FE00003FC0
FE00001FC0
FE00001FC0
FE00001FC0
FE00001FC0
FE00001FC0
FE00001FC0
FE00001FC0
FE00001FC0
FE00001FC0
FE00001FC0
FE00001FC0
FE00003FC0
7F00003F80
7F00003F80
7F00003F80
7F80007F80
3F80007F00
3FC000FF00
1FE001FE00
1FF003FE00
0FFC0FFC00
07FFFFF800
03FFFFF000
01FFFFE000
007FFF8000
000FFC0000
ENDCHAR
STARTCHAR ocircumflex
ENCODING 244
SWIDTH 602 0
DWIDTH 43 0
BBX 34 59 5 -1
BITMAP
0007E00000
000FF00000
000FF00000
001FF80000
001FF80000
003E7C0000
007E7E0000
007C3E0000
00F81F0000
01F00F8000
01F00F8000
03E007C000
07C003E000
0000000000
0000000000
0000000000
0000000000
0000000000
000FFC0000
007FFF8000
01FFFFE000
03FFFFF000
07FFFFF800
0FFC0FFC00
1FF003FE00
1FE001FE00
3FC000FF00
3F80007F00
7F80007F80
7F00003F80
7F00003F80
7F00003F80
FE00003FC0
FE00001FC0
FE00001FC0
FE00001FC0
FE00001FC0
FE00001FC0
FE00001FC0
FE00001FC0
FE00001FC0
FE00001FC0
FE00001FC0
FE00001FC0
FE00003FC0
7F00003F80
7F00003F80
7F00003F80
7F80007F80
3F80007F00
3FC000FF00
1FE001FE00
1FF003FE00
0FFC0FFC00
07FFFFF800
03FFFFF000
01FFFFE000
007FFF8000
000FFC0000
ENDCHAR
STARTCHAR otilde
ENCODING 245
SWIDTH 602 0
DWIDTH 43 0
BBX 34 57 5 -1
BITMAP
007C00F000
00FF00F000
01FF80F000
03FFE1F000
03C7F1E000
07C3FFE000
0780FFC000
07807F8000
07801F0000
0000000000
0000000000
0000000000
0000000000
0000000000
0000000000
0000000000
000FFC0000
007FFF8000
01FFFFE000
03FFFFF000
07FFFFF800
0FFC0FFC00
1FF003FE00
1FE001FE00
3FC000FF00
3F80007F00
7F80007F80
7F00003F80
7F00003F80
7F00003F80
FE00003FC0
FE00001FC0
FE00001FC0
FE00001FC0
FE00001FC0
FE00001FC0
FE00001FC0
FE00001FC0
FE00001FC0
FE00001FC0
FE00001FC0
FE00001FC0
FE00003FC0
7F00003F80
7F00003F80
7F00003F80
7F80007F80
3F80007F00
3FC000FF00
1FE001FE00
1FF003FE00
0FFC0FFC00
07FFFFF800
03FFFFF000
01FFFFE000
007FFF8000
000FFC0000
ENDCHAR
STARTCHAR odieresis
ENCODING 246
SWIDTH 602 0
DWIDTH 43 0
BBX 34 56 5 -1
BITMAP
03F80FE000
03F80FE000
03F80FE000
03F80FE000
03F80FE000
03F80FE000
03F80FE000
0000000000
0000000000
0000000000
0000000000
0000000000
0000000000
0000000000
0000000000
000FFC0000
007FFF8000
01FFFFE000
03FFFFF000
07FFFFF800
0FFC0FFC00
1FF003FE00
1FE001FE00
3FC000FF00
3F80007F00
7F80007F80
7F00003F80
7F00003F80
7F00003F80
FE00003FC0
FE00001FC0
FE00001FC0
FE00001FC0
FE00001FC0
FE00001FC0
FE00001FC0
FE00001FC0
FE00001FC0
FE00001FC0
FE00001FC0
FE00001FC0
FE00003FC0
7F00003F80
7F00003F80
7F00003F80
7F80007F80
3F80007F00
3FC000FF00
1FE001FE00
1FF003FE00
0FFC0FFC00
07FFFFF800
03FFFFF000
01FFFFE000
007FFF8000
000FFC0000
ENDCHAR
STARTCHAR divide
ENCODING 247
SWIDTH 602 0
DWIDTH 43 0
BBX 37 36 3 5
BITMAP
0003FE0000
0003FE0000
0003FE0000
0003FE0000
0003FE0000
0003FE0000
0003FE0000
0003FE0000
0003FE0000
0000000000
0000000000
0000000000
0000000000
0000000000
0000000000
FFFFFFFFF8
FFFFFFFFF8
FFFFFFFFF8
FFFFFFFFF8
FFFFFFFFF8
FFFFFFFFF8
0000000000
0000000000
0000000000
0000000000
0000000000
0000000000
0003FE0000
0003FE0000
0003FE0000
0003FE0000
0003FE0000
0003FE0000
0003FE0000
0003FE0000
0003FE0000
ENDCHAR
STARTCHAR oslash
ENCODING 248
SWIDTH 602 0
DWIDTH 43 0
BBX 40 45 2 -3
BITMAP
0000000008
000000001E
0001FF803F
000FFFF07E
003FFFFCFC
007FFFFFF8
00FFFFFFF0
01FF81FFE0
03FE007FC0
03FC003FC0
07F8001FE0
07F0003FE0
0FF0007FF0
0FE0007FF0
0FE000FFF0
0FE001F7F0
1FC003F7F8
1FC007E3F8
1FC007C3F8
1FC00F83F8
1FC01F03F8
1FC03F03F8
1FC07E03F8
1FC0FC03F8
1FC0F803F8
1FC1F003F8
1FC3F003F8
1FC7E003F8
1FEFC007F8
0FEF8007F0
0FFF0007F0
0FFF0007F0
0FFE000FE0
07FC000FE0
07F8001FE0
03FC003FC0
03FE007FC0
07FF81FF80
0FFFFFFF00
1FFFFFFE00
3F1FFFFC00
7E0FFFF000
FC01FF8000
7800000000
3000000000
ENDCHAR
STARTCHAR ugrave
ENCODING 249
SWIDTH 602 0
DWIDTH 43 0
BBX 30 59 7 -1
BITMAP
1FC00000
0FE00000
07F00000
03F80000
01F80000
00FC0000
007E0000
003F0000
001F8000
001F8000
000FC000
0007E000
0003F000
00000000
00000000
00000000
00000000
00000000
00000000
FC0000FC
FC0000FC
FC0000FC
FC0000FC
FC0000FC
FC0000FC
FC0000FC
FC0000FC
FC0000FC
FC0000FC
FC0000FC
FC0000FC
FC0000FC
FC0000FC
FC0000FC
FC0000FC
FC0000FC
FC0000FC
FC0000FC
FC0000FC
FC0000FC
FC0000FC
FC0000FC
FC0000FC
FC0000FC
FC0000FC
FC0000FC
FC0001FC
FC0001FC
FE0001FC
7E0003FC
7E0003FC
7F0007FC
7F800FFC
3FE03EFC
3FFFFEFC
1FFFFCFC
0FFFF8FC
03FFE0FC
00FF0000
ENDCHAR
STARTCHAR uacute
ENCODING 250
SWIDTH 602 0
DWIDTH 43 0
BBX 30 59 7 -1
BITMAP
00000FE0
00001FC0
00003F80
00007F00
00007E00
0000FC00
0001F800
0003F000
0007E000
0007E000
000FC000
001F8000
003F0000
00000000
00000000
00000000
00000000
00000000
00000000
FC0000FC
FC0000FC
FC0000FC
FC0000FC
FC0000FC
FC0000FC
FC0000FC
FC0000FC
FC0000FC
FC0000FC
FC0000FC
FC0000FC
FC0000FC
FC0000FC
FC0000FC
FC0000FC
FC0000FC
FC0000FC
FC0000FC
FC0000FC
FC0000FC
FC0000FC
FC0000FC
FC0000FC
FC0000FC
FC0000FC
FC0000FC
FC0001FC
FC0001FC
FE0001FC
7E0003FC
7E0003FC
7F0007FC
7F800FFC
3FE03EFC
3FFFFEFC
1FFFFCFC
0FFFF8FC
03FFE0FC
00FF0000
ENDCHAR
STARTCHAR ucircumflex
ENCODING 251
SWIDTH 602 0
DWIDTH 43 0
BBX 30 59 7 -1
BITMAP
001F8000
003FC000
003FC000
007FE000
007FE000
00F9F000
01F9F800
01F0F800
03E07C00
07C03E00
07C03E00
0F801F00
1F000F80
00000000
00000000
00000000
00000000
00000000
00000000
FC0000FC
FC0000FC
FC0000FC
FC0000FC
FC0000FC
FC0000FC
FC0000FC
FC0000FC
FC0000FC
FC0000FC
FC0000FC
FC0000FC
FC0000FC
FC0000FC
FC0000FC
FC0000FC
FC0000FC
FC0000FC
FC0000FC
FC0000FC
FC0000FC
FC0000FC
FC0000FC
FC0000FC
FC0000FC
FC0000FC
FC0000FC
FC0001FC
FC0001FC
FE0001FC
7E0003FC
7E0003FC
7F0007FC
7F800FFC
3FE03EFC
3FFFFEFC
1FFFFCFC
0FFFF8FC
03FFE0FC
00FF0000
ENDCHAR
STARTCHAR udieresis
ENCODING 252
SWIDTH 602 0
DWIDTH 43 0
BBX 30 56 7 -1
BITMAP
0FE03F80
0FE03F80
0FE03F80
0FE03F80
0FE03F80
0FE03F80
0FE03F80
00000000
00000000
00000000
00000000
00000000
00000000
00000000
00000000
00000000
FC0000FC
FC0000FC
FC0000FC
FC0000FC
FC0000FC
FC0000FC
FC0000FC
FC0000FC
FC0000FC
FC0000FC
FC0000FC
FC0000FC
FC0000FC
FC0000FC
FC0000FC
FC0000FC
FC0000FC
FC0000FC
FC0000FC
FC0000FC
FC0000FC
FC0000FC
FC0000FC
FC0000FC
FC0000FC
FC0000FC
FC0000FC
FC0001FC
FC0001FC
FE0001FC
7E0003FC
7E0003FC
7F0007FC
7F800FFC
3FE03EFC
3FFFFEFC
1FFFFCFC
0FFFF8FC
03FFE0FC
00FF0000
ENDCHAR
STARTCHAR yacute
ENCODING 253
SWIDTH 602 0
DWIDTH 43 0
BBX 37 73 4 -15
BITMAP
000001FC00
000003F800
000007F000
00000FE000
00000FC000
00001F8000
00003F0000
00007E0000
0000FC0000
0000FC0000
0001F80000
0003F00000
0007E00000
0000000000
0000000000
0000000000
0000000000
0000000000
0000000000
FE000003F8
7F000003F0
7F000007F0
7F000007F0
3F80000FE0
3F80000FE0
1FC0000FE0
1FC0001FC0
1FC0001FC0
0FE0001F80
0FE0003F80
07E0003F80
07F0007F00
07F0007F00
03F8007E00
03F800FE00
01F800FE00
01FC00FC00
01FC01FC00
00FC01F800
00FE03F800
007E03F800
007F03F000
007F07F000
003F07F000
003F87E000
001F8FE000
001FCFC000
001FDFC000
000FDFC000
000FFF8000
000FFF8000
0007FF0000
0007FF0000
0003FF0000
0003FE0000
0003FE0000
0001FE0000
0001FC0000
0001FC0000
0001F80000
0003F80000
0003F80000
0007F00000
0007F00000
0007E00000
000FE00000
001FC00000
003FC00000
1FFF800000
1FFF000000
1FFE000000
1FFC000000
1FF0000000
ENDCHAR
STARTCHAR thorn
ENCODING 254
SWIDTH 602 0
DWIDTH 43 0
BBX 34 70 7 -15
BITMAP
FC00000000
FC00000000
FC00000000
FC00000000
FC00000000
FC00000000
FC00000000
FC00000000
FC00000000
FC00000000
FC00000000
FC00000000
FC00000000
FC00000000
FC00000000
FC07FC0000
FC3FFF8000
FC7FFFC000
FCFFFFF000
FDFFFFF800
FFF80FFC00
FFE003FC00
FFC001FE00
FF8000FF00
FF00007F00
FF00007F00
FE00003F80
FE00003F80
FE00003F80
FE00003F80
FC00001FC0
FC00001FC0
FC00001FC0
FC00001FC0
FC00001FC0
FC00001FC0
FC00001FC0
FC00001FC0
FC00001FC0
FC00001FC0
FC00001FC0
FC00003FC0
FE00003F80
FE00003F80
FE00003F80
FF00007F00
FF00007F00
FF8000FF00
FFC001FE00
FFE003FC00
FFF80FFC00
FDFFFFF800
FCFFFFF000
FC7FFFC000
FC3FFF8000
FC07FC0000
FC00000000
FC00000000
FC00000000
FC00000000
FC00000000
FC00000000
FC00000000
FC00000000
FC00000000
FC00000000
FC00000000
FC00000000
FC00000000
FC00000000
ENDCHAR
STARTCHAR ydieresis
ENCODING 255
SWIDTH 602 0
DWIDTH 43 0
BBX 37 70 4 -15
BITMAP
01FC07F000
01FC07F000
01FC07F000
01FC07F000
01FC07F000
01FC07F000
01FC07F000
0000000000
0000000000
0000000000
0000000000
0000000000
0000000000
0000000000
0000000000
0000000000
FE000003F8
7F000003F0
7F000007F0
7F000007F0
3F80000FE0
3F80000FE0
1FC0000FE0
1FC0001FC0
1FC0001FC0
0FE0001F80
0FE0003F80
07E0003F80
07F0007F00
07F0007F00
03F8007E00
03F800FE00
01F800FE00
01FC00FC00
01FC01FC00
00FC01F800
00FE03F800
007E03F800
007F03F000
007F07F000
003F07F000
003F87E000
001F8FE000
001FCFC000
001FDFC000
000FDFC000
000FFF8000
000FFF8000
0007FF0000
0007FF0000
0003FF0000
0003FE0000
0003FE0000
0001FE0000
0001FC0000
0001FC0000
0001F80000
0003F80000
0003F80000
0007F00000
0007F00000
0007E00000
000FE00000
001FC00000
003FC00000
1FFF800000
1FFF000000
1FFE000000
1FFC000000
1FF0000000
ENDCHAR
STARTCHAR .notdef
ENCODING -1
SWIDTH 602 0
DWIDTH 43 0
BBX 36 64 4 -13
BITMAP
FFFFFFFFF0
FFFFFFFFF0
FFFFFFFFF0
FFFFFFFFF0
F0000000F0
F0000000F0
F0000000F0
F0000000F0
F0000000F0
F0000000F0
F0000000F0
F0000000F0
F0000000F0
F0000000F0
F0000000F0
F0000000F0
F0000000F0
F0000000F0
F0000000F0
F0000000F0
F0000000F0
F0000000F0
F0000000F0
F0000000F0
F0000000F0
F0000000F0
F0000000F0
F0000000F0
F0000000F0
F0000000F0
F0000000F0
F0000000F0
F0000000F0
F0000000F0
F0000000F0
F0000000F0
F0000000F0
F0000000F0
F0000000F0
F0000000F0
F0000000F0
F0000000F0
F0000000F0
F0000000F0
F0000000F0
F0000000F0
F0000000F0
F0000000F0
F0000000F0
F0000000F0
F0000000F0
F0000000F0
F0000000F0
F0000000F0
F0000000F0
F0000000F0
F0000000F0
F0000000F0
F0000000F0
F0000000F0
FFFFFFFFF0
FFFFFFFFF0
FFFFFFFFF0
FFFFFFFFF0
ENDCHAR
STARTCHAR .null
ENCODING -1
SWIDTH 0 0
DWIDTH 0 0
BBX 1 1 0 0
BITMAP
00
ENDCHAR
STARTCHAR nonmarkingreturn
ENCODING -1
SWIDTH 602 0
DWIDTH 43 0
BBX 1 1 0 0
BITMAP
00
ENDCHAR
STARTCHAR dagger
ENCODING -1
SWIDTH 602 0
DWIDTH 43 0
BBX 32 59 6 -7
BITMAP
0007E000
0007E000
0007E000
0007E000
0007E000
0007E000
0007E000
0007E000
0007E000
0007E000
0007E000
0007E000
0007E000
0007E000
0007E000
FFFFFFFF
FFFFFFFF
FFFFFFFF
FFFFFFFF
FFFFFFFF
0007E000
0007E000
0007E000
0007E000
0007E000
0007E000
0007E000
0007E000
0007E000
0007E000
0007E000
0007E000
0007E000
0007E000
0007E000
0007E000
0007E000
0007E000
0007E000
0007E000
0007E000
0007E000
0007E000
0007E000
0007E000
0007E000
0007E000
0007E000
0007E000
0007E000
0007E000
0007E000
0007E000
0007E000
0007E000
0007E000
0007E000
0007E000
0007E000
ENDCHAR
STARTCHAR bullet
ENCODING -1
SWIDTH 602 0
DWIDTH 43 0
BBX 21 21 11 16
BITMAP
01FC00
07FF00
0FFF80
1FFFC0
3FFFE0
7FFFF0
7FFFF0
FFFFF8
FFFFF8
FFFFF8
FFFFF8
FFFFF8
FFFFF8
FFFFF8
7FFFF0
7FFFF0
3FFFE0
1FFFC0
0FFF80
07FF00
01FC00
ENDCHAR
STARTCHAR trademark
ENCODING -1
SWIDTH 602 0
DWIDTH 43 0
BBX 40 20 0 32
BITMAP
FFFF1F803F
FFFF1FC07F
FFFF1FC07F
FFFF1FE0FF
03C01FE0FF
03C01EF1EF
03C01EF1EF
03C01E79CF
03C01E3BCF
03C01E3F8F
03C01E1F8F
03C01E1F0F
03C01E0E0F
03C01E0E0F
03C01E000F
03C01E000F
03C01E000F
03C01E000F
03C01E000F
03C01E000F
ENDCHAR
STARTCHAR notequal
ENCODING -1
SWIDTH 602 0
DWIDTH 43 0
BBX 37 42 3 1
BITMAP
0000000100
0000000380
00000007C0
00000007F0
0000000FE0
0000001FC0
0000003F80
0000007F80
0000007F00
000000FE00
000001FC00
FFFFFFFFF8
FFFFFFFFF8
FFFFFFFFF8
FFFFFFFFF8
FFFFFFFFF8
FFFFFFFFF8
00003F8000
00007F0000
0000FE0000
0001FE0000
0003FC0000
0003F80000
0007F00000
000FE00000
FFFFFFFFF8
FFFFFFFFF8
FFFFFFFFF8
FFFFFFFFF8
FFFFFFFFF8
FFFFFFFFF8
01FC000000
03F8000000
07F0000000
0FF0000000
0FE0000000
1FC0000000
3F80000000
7F00000000
1F00000000
0E00000000
0400000000
ENDCHAR
STARTCHAR infinity
ENCODING -1
SWIDTH 602 0
DWIDTH 43 0
BBX 40 27 1 9
BITMAP
01F8001F80
07FE007FE0
0FFF00FFF0
1FFF81FFF8
3FFFC3FFF8
3F0FC3F0FC
7E03E7C07E
7C01E7C03E
7C01FF803E
FC00FF001F
F800FF001F
F8007E001F
F8007E001F
F8007E001F
F8007E001F
F8007E001F
F800FF001F
F800FF003F
7C01FF803E
7C03FF803E
7E07E7C07E
3F0FC3F0FC
3FFFC3FFFC
1FFF81FFF8
0FFF00FFF0
07FE007FE0
01F8001F80
ENDCHAR
STARTCHAR lessequal
ENCODING -1
SWIDTH 602 0
DWIDTH 43 0
BBX 37 38 3 0
BITMAP
0000000018
00000000F8
00000007F8
0000003FF8
000001FFF8
00001FFFF8
0000FFFFF8
0007FFFF80
003FFFFC00
01FFFFC000
1FFFFE0000
FFFFE00000
FFFF000000
FFF0000000
FF80000000
FFF8000000
FFFF000000
FFFFE00000
1FFFFE0000
01FFFFC000
003FFFFC00
0007FFFF80
0000FFFFF8
00001FFFF8
000001FFF8
0000003FF8
00000007F8
00000000F8
0000000018
0000000000
0000000000
0000000000
FFFFFFFFF8
FFFFFFFFF8
FFFFFFFFF8
FFFFFFFFF8
FFFFFFFFF8
FFFFFFFFF8
ENDCHAR
STARTCHAR greaterequal
ENCODING -1
SWIDTH 602 0
DWIDTH 43 0
BBX 37 38 3 0
BITMAP
C000000000
F800000000
FF00000000
FFE0000000
FFFC000000
FFFFC00000
FFFFF80000
0FFFFF0000
01FFFFE000
001FFFFC00
0003FFFFC0
00003FFFF8
000007FFF8
0000007FF8
0000000FF8
0000007FF8
000007FFF8
00003FFFF8
0003FFFFC0
001FFFFC00
01FFFFE000
0FFFFF0000
7FFFF80000
FFFFC00000
FFFC000000
FFE0000000
FF00000000
F800000000
C000000000
0000000000
0000000000
0000000000
FFFFFFFFF8
FFFFFFFFF8
FFFFFFFFF8
FFFFFFFFF8
FFFFFFFFF8
FFFFFFFFF8
ENDCHAR
STARTCHAR partialdiff
ENCODING -1
SWIDTH 602 0
DWIDTH 43 0
BBX 30 48 7 -1
BITMAP
0007F000
001FFC00
003FFF00
007FFF80
00FF87C0
00FE03C0
00FC01E0
007801E0
000001F0
000001F0
000000F8
000000F8
000000F8
000000F8
000000FC
000000FC
000000FC
000000FC
000000FC
003F80FC
01FFE1FC
03FFF1FC
07F839FC
0FF01DFC
1FE00DFC
3FC00FFC
3F8007FC
7F8007F8
7F0007F8
7F0007F8
FF0007F8
FF0007F8
FE0007F0
FE0007F0
FE0007F0
FE0007E0
FE000FE0
FE000FC0
FE000FC0
7E000F80
7E001F80
3E001F00
3F003E00
1F007C00
0F80F800
07C1F000
03FFC000
007F0000
ENDCHAR
STARTCHAR summation
ENCODING -1
SWIDTH 602 0
DWIDTH 43 0
BBX 33 68 5 -15
BITMAP
FFFFFFFF00
FFFFFFFF00
FFFFFFFF00
FFFFFFFF00
7FFFFFFF00
7E00000000
3F00000000
1F00000000
1F80000000
0FC0000000
07C0000000
07E0000000
03F0000000
01F0000000
01F8000000
00F8000000
007C000000
007E000000
003E000000
001F000000
001F800000
000F800000
000FC00000
0007E00000
0003E00000
0003F00000
0001F80000
0000F80000
0000FC0000
00007E0000
00003E0000
00003F0000
00001F8000
00001F8000
00003F0000
00003E0000
00007E0000
0000FC0000
0000FC0000
0001F80000
0001F00000
0003F00000
0007E00000
0007E00000
000FC00000
000F800000
001F800000
003F000000
003E000000
007E000000
007C000000
00FC000000
01F8000000
01F0000000
03F0000000
03E0000000
07E0000000
0FC0000000
0F80000000
1F80000000
1F00000000
3F00000000
7E00000000
7FFFFFFF80
FFFFFFFF80
FFFFFFFF80
FFFFFFFF80
FFFFFFFF80
ENDCHAR
STARTCHAR product
ENCODING -1
SWIDTH 602 0
DWIDTH 43 0
BBX 33 68 5 -15
BITMAP
FFFFFFFF80
FFFFFFFF80
FFFFFFFF80
FFFFFFFF80
FFFFFFFF80
F800000F80
F800000F80
F800000F80
F800000F80
F800000F80
F800000F80
F800000F80
F800000F80
F800000F80
F800000F80
F800000F80
F800000F80
F800000F80
F800000F80
F800000F80
F800000F80
F800000F80
F800000F80
F800000F80
F800000F80
F800000F80
F800000F80
F800000F80
F800000F80
F800000F80
F800000F80
F800000F80
F800000F80
F800000F80
F800000F80
F800000F80
F800000F80
F800000F80
F800000F80
F800000F80
F800000F80
F800000F80
F800000F80
F800000F80
F800000F80
F800000F80
F800000F80
F800000F80
F800000F80
F800000F80
F800000F80
F800000F80
F800000F80
F800000F80
F800000F80
F800000F80
F800000F80
F800000F80
F800000F80
F800000F80
F800000F80
F800000F80
F800000F80
F800000F80
F800000F80
F800000F80
F800000F80
F800000F80
ENDCHAR
STARTCHAR pi
ENCODING -1
SWIDTH 602 0
DWIDTH 43 0
BBX 39 40 3 -1
BITMAP
FFFFFFFFFC
FFFFFFFFFC
FFFFFFFFFC
FFFFFFFFFC
FFFFFFFFFC
07E0001F80
07E0001F80
07E0001F80
07E0001F80
07E0001F80
07E0001F80
07E0001F80
07E0001F80
07E0001F80
07E0001F80
07E0001F80
07E0001F80
07E0001F80
07E0001F80
07E0001F80
07E0001F80
07E0001F80
07E0001F80
07E0001F80
07E0001F80
07E0001F80
07E0001F80
07E0001F80
07E0001F80
07E0001F80
07E0001F80
07E0001F80
07E0001F80
07E0001FC0
07E0001FE0
07E0000FFE
07E0000FFE
07E0000FFE
07E00007FE
00000001FE
ENDCHAR
STARTCHAR integral
ENCODING -1
SWIDTH 602 0
DWIDTH 43 0
BBX 35 67 4 -12
BITMAP
0000007E00
000001FF80
000007FFC0
00000FFFE0
00000FBFE0
00001F3FE0
00003E1FE0
00003E1FE0
00007E1FC0
00007E0F80
00007C0000
0000FC0000
0000FC0000
0000FC0000
0000FC0000
0000FC0000
0001FC0000
0001FC0000
0001FC0000
0001FC0000
0001F80000
0001F80000
0001F80000
0003F80000
0003F80000
0003F80000
0003F80000
0003F80000
0003F80000
0003F80000
0003F80000
0003F80000
0003F80000
0003F80000
0003F80000
0003F80000
0003F80000
0003F80000
0003F80000
0003F80000
0003F80000
0003F80000
0003F80000
0003F80000
0003F00000
0003F00000
0003F00000
0003F00000
0007F00000
0007F00000
0007F00000
0007E00000
0007E00000
0007E00000
0007E00000
0007E00000
0007C00000
3E0FC00000
7F0FC00000
FF0F800000
FF8F800000
FF9F000000
FF9E000000
FFFE000000
7FFC000000
3FF0000000
0FC0000000
ENDCHAR
STARTCHAR Omega
ENCODING -1
SWIDTH 602 0
DWIDTH 43 0
BBX 39 51 2 0
BITMAP
0001FF0000
000FFFE000
003FFFF800
007FFFFC00
00FFFFFE00
01FFFFFF00
03FF01FF80
07FC007FC0
07F8003FC0
0FF0001FE0
0FE0000FE0
1FE0000FF0
1FC00007F0
3FC00007F8
3F800003F8
3F800003F8
3F800003F8
7F000001FC
7F000001FC
7F000001FC
7F000001FC
7F000001FC
7F000001FC
7F000001FC
7F000001FC
7F000001FC
7F000001FC
7F000001FC
7F000001FC
7F000001FC
3F800003F8
3F800003F8
3F800003F8
3F800003F8
1FC00007F0
1FC00007F0
1FC00007F0
0FE0000FE0
0FE0000FC0
07F0001FC0
03F0001F80
03F8003F80
01FC007F00
00FE00FE00
007F01FC00
FFFF83FFFE
FFFF83FFFE
FFFF83FFFE
FFFF83FFFE
FFFF83FFFE
FFFF83FFFE
ENDCHAR
STARTCHAR radical
ENCODING -1
SWIDTH 602 0
DWIDTH 43 0
BBX 40 61 2 -1
BITMAP
000000001F
000000003F
000000003F
000000003F
000000007F
000000007C
000000007C
00000000FC
00000000F8
00000000F8
00000001F8
00000001F0
00000001F0
00000001F0
00000003E0
00000003E0
00000003E0
00000007C0
00000007C0
00000007C0
0000000F80
0000000F80
0000000F80
0000001F00
0000001F00
0000001F00
0000003E00
01E0003E00
0FE0003E00
7FE0007C00
FFF0007C00
7FF0007C00
7FF000FC00
71F800F800
00F800F800
00F801F800
00F801F000
007C01F000
007C01F000
007C03E000
003E03E000
003E03E000
003E07C000
001F07C000
001F07C000
001F0F8000
001F0F8000
000F8F8000
000F9F0000
000F9F0000
0007DF0000
0007FE0000
0007FE0000
0003FE0000
0003FC0000
0003FC0000
0001FC0000
0001FC0000
0001F80000
0001F80000
0000F80000
ENDCHAR
STARTCHAR florin
ENCODING -1
SWIDTH 602 0
DWIDTH 43 0
BBX 42 70 0 -15
BITMAP
00000001FF00
00000007FFC0
0000000FFFC0
0000003FFFC0
0000003FFFC0
0000007F81C0
000000FF0040
000000FC0000
000001FC0000
000001F80000
000001F80000
000003F80000
000003F00000
000003F00000
000003F00000
000003F00000
000003F00000
000007F00000
000007E00000
000007E00000
000007E00000
000007E00000
000007E00000
000007E00000
00000FE00000
001FFFFFF800
001FFFFFF800
001FFFFFF800
001FFFFFF800
001FFFFFF800
00001FC00000
00001F800000
00001F800000
00001F800000
00001F800000
00001F800000
00003F800000
00003F000000
00003F000000
00003F000000
00003F000000
00003F000000
00007F000000
00007F000000
00007E000000
00007E000000
00007E000000
0000FE000000
0000FE000000
0000FE000000
0000FC000000
0000FC000000
0000FC000000
0001FC000000
0001FC000000
0001FC000000
0001F8000000
0001F8000000
0003F8000000
0003F0000000
0007F0000000
0007F0000000
800FE0000000
C01FE0000000
F07FC0000000
FFFF80000000
FFFF80000000
FFFE00000000
7FFC00000000
1FE000000000
ENDCHAR
STARTCHAR approxequal
ENCODING -1
SWIDTH 602 0
DWIDTH 43 0
BBX 37 23 3 11
BITMAP
01FE000008
0FFFC00018
3FFFF00078
FFFFFF01F8
FFFFFFFFF8
FFFFFFFFF8
FC03FFFFF8
F0007FFFE0
C0000FFF80
800001FE00
0000000000
0000000000
0000000000
01FE000008
0FFFC00018
3FFFF00078
FFFFFF01F8
FFFFFFFFF8
FFFFFFFFF8
FE03FFFFF8
F0007FFFE0
C0000FFF80
800001FE00
ENDCHAR
STARTCHAR Delta
ENCODING -1
SWIDTH 602 0
DWIDTH 43 0
BBX 44 50 0 0
BITMAP
00003FC00000
00003FC00000
00007FC00000
00007FE00000
00007FE00000
0000FFF00000
0000FFF00000
0001FFF00000
0001FBF80000
0001F9F80000
0003F9F80000
0003F1FC0000
0003F0FC0000
0007F0FE0000
0007E0FE0000
0007E07E0000
000FE07F0000
000FC03F0000
001FC03F0000
001F803F8000
001F801F8000
003F801F8000
003F001FC000
003F000FC000
007F000FE000
007E000FE000
007E0007E000
00FE0007F000
00FC0007F000
01FC0003F000
01FC0003F800
01F80003F800
03F80001FC00
03F80001FC00
03F00000FC00
07F00000FE00
07E00000FE00
07E000007E00
0FE000007F00
0FC000007F00
1FC000003F80
1FC000003F80
1F8000003F80
3F8000001FC0
3FFFFFFFFFC0
3FFFFFFFFFC0
7FFFFFFFFFE0
7FFFFFFFFFE0
7FFFFFFFFFE0
FFFFFFFFFFF0
ENDCHAR
STARTCHAR ellipsis
ENCODING -1
SWIDTH 602 0
DWIDTH 43 0
BBX 37 11 3 0
BITMAP
FF83FE0FF8
FF83FE0FF8
FF83FE0FF8
FF83FE0FF8
FF83FE0FF8
FF83FE0FF8
FF83FE0FF8
FF83FE0FF8
FF83FE0FF8
FF83FE0FF8
FF83FE0FF8
ENDCHAR
STARTCHAR OE
ENCODING -1
SWIDTH 602 0
DWIDTH 43 0
BBX 40 52 3 0
BITMAP
0007FFFFFF
003FFFFFFF
00FFFFFFFF
03FFFFFFFF
07FFFFFFFF
0FFFFFFFFF
0FFC0FE000
1FF00FE000
1FE00FE000
3FC00FE000
3F800FE000
3F800FE000
7F000FE000
7F000FE000
7F000FE000
7F000FE000
7F000FE000
FE000FE000
FE000FE000
FE000FE000
FE000FE000
FE000FFFFE
FE000FFFFE
FE000FFFFE
FE000FFFFE
FE000FFFFE
FE000FFFFE
FE000FE000
FE000FE000
FE000FE000
FE000FE000
FE000FE000
FE000FE000
FE000FE000
FE000FE000
7F000FE000
7F000FE000
7F000FE000
7F000FE000
7F000FE000
3F800FE000
3F800FE000
3FC00FE000
1FE00FE000
1FF00FE000
0FFC0FE000
0FFFFFFFFF
07FFFFFFFF
03FFFFFFFF
00FFFFFFFF
003FFFFFFF
0007FFFFFF
ENDCHAR
STARTCHAR oe
ENCODING -1
SWIDTH 602 0
DWIDTH 43 0
BBX 42 41 1 -1
BITMAP
007F801FE000
03FFE07FF800
07FFF1FFFC00
0FFFFBFFFE00
1FFFFFFFFF00
1FC1FFF07F00
3F00FFE03F80
3F007FC01F80
7E003FC01F80
7E003FC01F80
7E003F800F80
7C003F800FC0
FC001F800FC0
FC001F800FC0
FC001F800FC0
FC001F800FC0
FC001F800FC0
FC001FFFFFC0
FC001FFFFFC0
FC001FFFFFC0
FC001FFFFFC0
FC001FFFFFC0
FC001F800000
FC001F800000
FC001F800000
FC001F800000
FC001F800000
FC001F800000
7C001F800000
7C003F800000
7E003FC00000
7E003FC00000
7E003FC00000
3F007FE00080
3F00FFF00380
1FC1FFF80F80
1FFFFFFFFF80
0FFFF9FFFF80
07FFF0FFFF00
03FFE07FFE00
007F000FF000
ENDCHAR
STARTCHAR endash
ENCODING -1
SWIDTH 602 0
DWIDTH 43 0
BBX 43 5 0 17
BITMAP
FFFFFFFFFFE0
FFFFFFFFFFE0
FFFFFFFFFFE0
FFFFFFFFFFE0
FFFFFFFFFFE0
ENDCHAR
STARTCHAR emdash
ENCODING -1
SWIDTH 602 0
DWIDTH 43 0
BBX 43 5 0 17
BITMAP
FFFFFFFFFFE0
FFFFFFFFFFE0
FFFFFFFFFFE0
FFFFFFFFFFE0
FFFFFFFFFFE0
ENDCHAR
STARTCHAR quotedblleft
ENCODING -1
SWIDTH 602 0
DWIDTH 43 0
BBX 28 21 8 34
BITMAP
01F001F0
03F003F0
03E003E0
07E007E0
07E007E0
0FE00FE0
0FE00FE0
1FC01FC0
1FC01FC0
3FC03FC0
3FC03FC0
7F807F80
7F807F80
FF80FF80
FF80FF80
FF80FF80
FF80FF80
FF80FF80
FF80FF80
FF80FF80
FF80FF80
ENDCHAR
STARTCHAR quotedblright
ENCODING -1
SWIDTH 602 0
DWIDTH 43 0
BBX 28 21 8 34
BITMAP
1FF01FF0
1FF01FF0
1FF01FF0
1FF01FF0
1FF01FF0
1FF01FF0
1FF01FF0
1FF01FF0
1FE01FE0
1FE01FE0
3FC03FC0
3FC03FC0
3F803F80
3F803F80
7F007F00
7F007F00
7E007E00
7E007E00
7C007C00
FC00FC00
F800F800
ENDCHAR
STARTCHAR quoteleft
ENCODING -1
SWIDTH 602 0
DWIDTH 43 0
BBX 12 21 16 34
BITMAP
01F0
03F0
03E0
07E0
07E0
0FE0
0FE0
1FC0
1FC0
3FC0
3FC0
7F80
7F80
FF80
FF80
FF80
FF80
FF80
FF80
FF80
FF80
ENDCHAR
STARTCHAR quoteright
ENCODING -1
SWIDTH 602 0
DWIDTH 43 0
BBX 12 21 17 34
BITMAP
1FF0
1FF0
1FF0
1FF0
1FF0
1FF0
1FF0
1FF0
1FE0
1FE0
3FC0
3FC0
3F80
3F80
7F00
7F00
7E00
7E00
7C00
FC00
F800
ENDCHAR
STARTCHAR lozenge
ENCODING -1
SWIDTH 602 0
DWIDTH 43 0
BBX 35 75 4 -17
BITMAP
0000400000
0000400000
0000E00000
0000E00000
0001F00000
0001F00000
0003F80000
0003F80000
0007F80000
0007BC0000
0007BC0000
000F1E0000
000F1E0000
001E0F0000
001E0F0000
003C078000
003C078000
007803C000
007803C000
00F001E000
00F001E000
01E000F000
01E000F000
03C0007800
03C0007800
03C0007800
0780003C00
0780003C00
0F00001E00
0F00001E00
1E00000F00
1E00000F00
3C00000780
3C00000780
78000003C0
78000003C0
F0000001E0
F0000001E0
78000003C0
78000003C0
7C000007C0
3C00000780
3C00000780
1E00000F00
1E00000F00
0F00001E00
0F00001E00
0780003C00
0780003C00
03C0007800
03C0007800
01E000F000
01E000F000
01F001F000
00F001E000
00F003E000
007803C000
007803C000
003C078000
003C078000
001E0F0000
001E0F0000
000F1E0000
000F1E0000
0007BC0000
0007BC0000
0003F80000
0003F80000
0003F80000
0001F00000
0001F00000
0000E00000
0000E00000
0000400000
0000400000
ENDCHAR
STARTCHAR Ydieresis
ENCODING -1
SWIDTH 602 0
DWIDTH 43 0
BBX 41 66 1 0
BITMAP
003F80FE0000
003F80FE0000
003F80FE0000
003F80FE0000
003F80FE0000
003F80FE0000
003F80FE0000
000000000000
000000000000
000000000000
000000000000
000000000000
000000000000
000000000000
FF0000007F80
7F800000FF00
7F800000FF00
3FC00001FE00
1FC00001FC00
1FE00003FC00
0FE00003F800
0FF00007F800
07F00007F000
03F8000FE000
03FC001FE000
01FC001FC000
01FE003FC000
00FE003F8000
007F007F0000
007F007F0000
003F80FE0000
003F80FE0000
001FC1FC0000
000FE3F80000
000FE3F80000
0007F7F00000
0007F7F00000
0003FFE00000
0001FFC00000
0001FFC00000
0000FF800000
0000FF800000
00007F000000
00007F000000
00007F000000
00007F000000
00007F000000
00007F000000
00007F000000
00007F000000
00007F000000
00007F000000
00007F000000
00007F000000
00007F000000
00007F000000
00007F000000
00007F000000
00007F000000
00007F000000
00007F000000
00007F000000
00007F000000
00007F000000
00007F000000
00007F000000
ENDCHAR
STARTCHAR fraction
ENCODING -1
SWIDTH 602 0
DWIDTH 43 0
BBX 35 59 4 -7
BITMAP
0000000FE0
0000001FC0
0000001FC0
0000003F80
0000003F80
0000007F00
0000007F00
000000FE00
000000FE00
000001FE00
000001FC00
000001FC00
000003F800
000003F800
000007F000
000007F000
00000FE000
00000FE000
00001FC000
00001FC000
00003F8000
00003F8000
00007F0000
00007F0000
0000FE0000
0000FE0000
0001FC0000
0001FC0000
0003F80000
0003F80000
0003F80000
0007F00000
0007F00000
000FE00000
000FE00000
001FC00000
001FC00000
003F800000
003F800000
007F000000
007F000000
00FE000000
00FE000000
01FC000000
01FC000000
03F8000000
03F8000000
07F0000000
07F0000000
0FF0000000
0FE0000000
0FE0000000
1FC0000000
1FC0000000
3F80000000
3F80000000
7F00000000
7F00000000
FE00000000
ENDCHAR
STARTCHAR guilsinglleft
ENCODING -1
SWIDTH 602 0
DWIDTH 43 0
BBX 16 32 12 5
BITMAP
0001
0003
0007
000F
001F
003F
007F
00FE
01FC
03F8
0FF0
1FE0
3FC0
7F80
FE00
FC00
FC00
FE00
7F00
3FC0
1FE0
0FF0
03F8
01FC
00FE
007F
003F
001F
000F
0007
0003
0001
ENDCHAR
STARTCHAR guilsinglright
ENCODING -1
SWIDTH 602 0
DWIDTH 43 0
BBX 16 32 15 5
BITMAP
8000
C000
E000
F000
F800
FC00
FE00
7F00
3F80
1FC0
0FF0
07F8
03FC
00FE
007F
003F
003F
007F
01FE
03FC
07F8
0FF0
1FC0
3F80
7F00
FE00
FC00
F800
F000
E000
C000
8000
ENDCHAR
STARTCHAR fi
ENCODING -1
SWIDTH 602 0
DWIDTH 43 0
BBX 37 55 1 0
BITMAP
0001FFC1F8
000FFFC1F8
001FFFC1F8
003FFFC1F8
007FFFC1F8
00FF0001F8
00FC0001F8
00FC0001F8
01F8000000
01F8000000
01F8000000
01F8000000
01F8000000
01F8000000
01F8000000
01F8000000
FFFFFFFFF8
FFFFFFFFF8
FFFFFFFFF8
FFFFFFFFF8
FFFFFFFFF8
01F80001F8
01F80001F8
01F80001F8
01F80001F8
01F80001F8
01F80001F8
01F80001F8
01F80001F8
01F80001F8
01F80001F8
01F80001F8
01F80001F8
01F80001F8
01F80001F8
01F80001F8
01F80001F8
01F80001F8
01F80001F8
01F80001F8
01F80001F8
01F80001F8
01F80001F8
01F80001F8
01F80001F8
01F80001F8
01F80001F8
01F80001F8
01F80001F8
01F80001F8
01F80001F8
01F80001F8
01F80001F8
01F80001F8
01F80001F8
ENDCHAR
STARTCHAR fl
ENCODING -1
SWIDTH 602 0
DWIDTH 43 0
BBX 37 55 1 0
BITMAP
0003FFFFF8
000FFFFFF8
003FFFFFF8
007FFFFFF8
007FFFFFF8
00FF0001F8
00FC0001F8
00FC0001F8
01F80001F8
01F80001F8
01F80001F8
01F80001F8
01F80001F8
01F80001F8
01F80001F8
01F80001F8
FFFFFE01F8
FFFFFE01F8
FFFFFE01F8
FFFFFE01F8
FFFFFE01F8
01F80001F8
01F80001F8
01F80001F8
01F80001F8
01F80001F8
01F80001F8
01F80001F8
01F80001F8
01F80001F8
01F80001F8
01F80001F8
01F80001F8
01F80001F8
01F80001F8
01F80001F8
01F80001F8
01F80001F8
01F80001F8
01F80001F8
01F80001F8
01F80001F8
01F80001F8
01F80001F8
01F80001F8
01F80001F8
01F80001F8
01F80001F8
01F80001F8
01F80001F8
01F80001F8
01F80001F8
01F80001F8
01F80001F8
01F80001F8
ENDCHAR
STARTCHAR daggerdbl
ENCODING -1
SWIDTH 602 0
DWIDTH 43 0
BBX 32 59 6 -7
BITMAP
0007E000
0007E000
0007E000
0007E000
0007E000
0007E000
0007E000
0007E000
0007E000
0007E000
0007E000
0007E000
0007E000
0007E000
0007E000
FFFFFFFF
FFFFFFFF
FFFFFFFF
FFFFFFFF
FFFFFFFF
0007E000
0007E000
0007E000
0007E000
0007E000
0007E000
0007E000
0007E000
0007E000
0007E000
0007E000
0007E000
0007E000
0007E000
0007E000
0007E000
0007E000
0007E000
0007E000
FFFFFFFF
FFFFFFFF
FFFFFFFF
FFFFFFFF
FFFFFFFF
0007E000
0007E000
0007E000
0007E000
0007E000
0007E000
0007E000
0007E000
0007E000
0007E000
0007E000
0007E000
0007E000
0007E000
0007E000
ENDCHAR
STARTCHAR quotesinglbase
ENCODING -1
SWIDTH 602 0
DWIDTH 43 0
BBX 12 21 15 -10
BITMAP
1FF0
1FF0
1FF0
1FF0
1FF0
1FF0
1FF0
1FF0
1FE0
1FE0
3FC0
3FC0
3F80
3F80
7F00
7F00
7E00
7E00
7C00
FC00
F800
ENDCHAR
STARTCHAR quotedblbase
ENCODING -1
SWIDTH 602 0
DWIDTH 43 0
BBX 28 21 8 -10
BITMAP
1FF01FF0
1FF01FF0
1FF01FF0
1FF01FF0
1FF01FF0
1FF01FF0
1FF01FF0
1FF01FF0
1FE01FE0
1FE01FE0
3FC03FC0
3FC03FC0
3F803F80
3F803F80
7F007F00
7F007F00
7E007E00
7E007E00
7C007C00
FC00FC00
F800F800
ENDCHAR
STARTCHAR perthousand
ENCODING -1
SWIDTH 602 0
DWIDTH 43 0
BBX 43 50 0 0
BITMAP
01F800000000
07FE00000000
1FFF80000000
3FFFC0000000
3F0FC0000000
7C03E0000000
7801E0000000
F801F0000000
F000F0000000
F000F0000000
F000F0000000
F000F0000000
F801F0000000
7801E0001C00
7C03E0007E00
3F0FC003FE00
3FFFC01FFC00
1FFF807FE000
07FE03FF8000
01F80FFC0000
00007FE00000
0001FF800000
000FFC000000
003FF0000000
01FF80000000
07FE00000000
3FF000000000
3FC000000000
3E0000000000
380000000000
007E0003F000
01FF800FFC00
07FFE03FFF00
0FFFF07FFF80
0FC3F07E1F80
1F00F8F807C0
1E0078F003C0
3E007DF003E0
3C003DE001E0
3C003DE001E0
3C003DE001E0
3C003DE001E0
3E007DF003E0
1E0078F003C0
1F00F8F807C0
0FC3F07E1F80
0FFFF07FFF80
07FFE03FFF00
01FF800FFC00
007E0003F000
ENDCHAR
STARTCHAR dotlessi
ENCODING -1
SWIDTH 602 0
DWIDTH 43 0
BBX 32 39 6 0
BITMAP
1FFFE000
1FFFE000
1FFFE000
1FFFE000
1FFFE000
0007E000
0007E000
0007E000
0007E000
0007E000
0007E000
0007E000
0007E000
0007E000
0007E000
0007E000
0007E000
0007E000
0007E000
0007E000
0007E000
0007E000
0007E000
0007E000
0007E000
0007E000
0007E000
0007E000
0007E000
0007E000
0007E000
0007E000
0007E000
0007E000
FFFFFFFF
FFFFFFFF
FFFFFFFF
FFFFFFFF
FFFFFFFF
ENDCHAR
STARTCHAR circumflex
ENCODING -1
SWIDTH 602 0
DWIDTH 43 0
BBX 22 13 10 45
BITMAP
00FC00
01FE00
01FE00
03FF00
03FF00
07CF80
0FCFC0
0F87C0
1F03E0
3E01F0
3E01F0
7C00F8
F8007C
ENDCHAR
STARTCHAR tilde
ENCODING -1
SWIDTH 602 0
DWIDTH 43 0
BBX 23 9 10 47
BITMAP
0F801E
1FE01E
3FF01E
7FFC3E
78FE3C
F87FFC
F01FF8
F00FF0
F003E0
ENDCHAR
STARTCHAR breve
ENCODING -1
SWIDTH 602 0
DWIDTH 43 0
BBX 22 10 11 48
BITMAP
F0003C
F0003C
F8007C
7C00F8
7F03F8
3FFFF0
3FFFF0
1FFFE0
07FF80
01FE00
ENDCHAR
STARTCHAR dotaccent
ENCODING -1
SWIDTH 602 0
DWIDTH 43 0
BBX 7 7 18 48
BITMAP
FE
FE
FE
FE
FE
FE
FE
ENDCHAR
STARTCHAR ring
ENCODING -1
SWIDTH 602 0
DWIDTH 43 0
BBX 19 19 12 44
BITMAP
03F800
0FFE00
1FFF00
3FFF80
7E0FC0
7C07C0
F803E0
F001E0
F001E0
F001E0
F001E0
F001E0
F803E0
7C07C0
7E0FC0
3FFF80
1FFF00
0FFE00
03F800
ENDCHAR
STARTCHAR hungarumlaut
ENCODING -1
SWIDTH 602 0
DWIDTH 43 0
BBX 25 13 12 45
BITMAP
01F83F80
03F03F00
03E07E00
07E07E00
07C0FC00
0FC0F800
0F81F800
1F01F000
3F03F000
3E03E000
7E07C000
7C07C000
F80F8000
ENDCHAR
STARTCHAR ogonek
ENCODING -1
SWIDTH 602 0
DWIDTH 43 0
BBX 13 14 15 -14
BITMAP
0F00
1E00
3C00
7C00
7800
F800
F800
F800
F800
FC08
7FF8
7FF8
3FF8
0FF0
ENDCHAR
STARTCHAR caron
ENCODING -1
SWIDTH 602 0
DWIDTH 43 0
BBX 22 13 10 45
BITMAP
F8007C
7C00F8
3E01F0
3E01F0
1F03E0
0F87C0
0FCFC0
07CF80
03FF00
03FF00
01FE00
01FE00
00FC00
ENDCHAR
STARTCHAR Lslash
ENCODING -1
SWIDTH 602 0
DWIDTH 43 0
BBX 40 52 0 0
BITMAP
00FE000000
00FE000000
00FE000000
00FE000000
00FE000000
00FE000000
00FE000000
00FE000000
00FE000000
00FE000000
00FE000000
00FE000000
00FE000000
00FE000000
00FE004000
00FE01E000
00FE03F000
00FE07F800
00FE1FE000
00FE3FC000
00FEFF8000
00FFFE0000
00FFFC0000
00FFF00000
00FFE00000
00FF800000
00FF000000
03FE000000
07FE000000
1FFE000000
3FFE000000
FFFE000000
FEFE000000
7CFE000000
30FE000000
20FE000000
00FE000000
00FE000000
00FE000000
00FE000000
00FE000000
00FE000000
00FE000000
00FE000000
00FE000000
00FE000000
00FFFFFFFF
00FFFFFFFF
00FFFFFFFF
00FFFFFFFF
00FFFFFFFF
00FFFFFFFF
ENDCHAR
STARTCHAR lslash
ENCODING -1
SWIDTH 602 0
DWIDTH 43 0
BBX 33 55 3 0
BITMAP
1FFFE00000
1FFFE00000
1FFFE00000
1FFFE00000
1FFFE00000
0007E00000
0007E00000
0007E00000
0007E00000
0007E00000
0007E00000
0007E00000
0007E00000
0007E00600
0007E01F00
0007E03F00
0007E07F80
0007E1FF00
0007E3FC00
0007EFF800
0007FFE000
0007FFC000
0007FF0000
0007FE0000
0007FC0000
000FF00000
001FE00000
007FE00000
00FFE00000
03FFE00000
07FFE00000
0FF7E00000
3FE7E00000
7F87E00000
FF07E00000
7E07E00000
3807E00000
3007E00000
0007E00000
0007E00000
0007E00000
0007E00000
0007E00000
0007E00000
0007E00000
0007F00000
0003F00000
0003F00000
0003F80000
0001FE0000
0001FFFF80
0000FFFF80
00007FFF80
00001FFF80
000007FF80
ENDCHAR
STARTCHAR Scaron
ENCODING -1
SWIDTH 602 0
DWIDTH 43 0
BBX 34 67 5 -1
BITMAP
03E003E000
01F007C000
00F80F8000
007C1F0000
003E3E0000
003F7E0000
001FFC0000
000FF80000
0007F00000
0000000000
0000000000
0000000000
0000000000
0007FE0000
007FFFE000
01FFFFFC00
03FFFFFE00
0FFFFFFE00
0FFFFFFE00
1FFC03FE00
3FE0003E00
3FC0000E00
7F80000200
7F00000000
FF00000000
FE00000000
FE00000000
FE00000000
FE00000000
FE00000000
FE00000000
FF00000000
FF80000000
7FC0000000
7FF0000000
3FFC000000
3FFFE00000
1FFFFC0000
0FFFFF8000
03FFFFE000
00FFFFF800
003FFFFC00
0007FFFE00
00003FFF00
000007FF00
000001FF80
0000007F80
0000003F80
0000003FC0
0000001FC0
0000001FC0
0000001FC0
0000001FC0
0000001FC0
0000001FC0
0000003FC0
0000003F80
4000007F80
700000FF80
7E0001FF00
7FE00FFF00
7FFFFFFE00
7FFFFFFC00
7FFFFFF800
3FFFFFE000
07FFFF8000
003FFC0000
ENDCHAR
STARTCHAR scaron
ENCODING -1
SWIDTH 602 0
DWIDTH 43 0
BBX 29 59 8 -1
BITMAP
3E001F00
1F003E00
0F807C00
0F807C00
07C0F800
03E1F000
03F3F000
01F3E000
00FFC000
00FFC000
007F8000
007F8000
003F0000
00000000
00000000
00000000
00000000
00000000
003FF800
01FFFF80
07FFFFE0
1FFFFFE0
3FFFFFE0
3FE00FE0
7F0000E0
7E000020
FC000000
FC000000
FC000000
FC000000
FC000000
FE000000
FF000000
7FC00000
7FF80000
3FFFE000
3FFFFC00
0FFFFF00
07FFFFC0
00FFFFE0
000FFFE0
00007FF0
00001FF0
000007F8
000003F8
000001F8
000001F8
000001F8
000001F8
000001F8
800003F0
E00007F0
FC000FF0
FF803FE0
FFFFFFC0
FFFFFF80
FFFFFF00
3FFFFC00
01FFE000
ENDCHAR
STARTCHAR Zcaron
ENCODING -1
SWIDTH 602 0
DWIDTH 43 0
BBX 36 66 5 0
BITMAP
03E003E000
01F007C000
00F80F8000
007C1F0000
003E3E0000
003F7E0000
001FFC0000
000FF80000
0007F00000
0000000000
0000000000
0000000000
0000000000
0000000000
7FFFFFFFE0
7FFFFFFFE0
7FFFFFFFE0
7FFFFFFFE0
7FFFFFFFE0
7FFFFFFFE0
0000001FC0
0000003FC0
0000007F80
0000007F00
000000FF00
000001FE00
000001FC00
000003FC00
000007F800
000007F000
00000FF000
00001FE000
00001FC000
00003F8000
00007F8000
00007F0000
0000FE0000
0001FE0000
0001FC0000
0003F80000
0007F80000
0007F00000
000FE00000
001FE00000
001FC00000
003F800000
007F800000
007F000000
00FE000000
01FE000000
01FC000000
03F8000000
07F8000000
07F0000000
0FE0000000
1FE0000000
1FC0000000
3F80000000
7F80000000
7F00000000
FFFFFFFFF0
FFFFFFFFF0
FFFFFFFFF0
FFFFFFFFF0
FFFFFFFFF0
FFFFFFFFF0
ENDCHAR
STARTCHAR zcaron
ENCODING -1
SWIDTH 602 0
DWIDTH 43 0
BBX 29 58 7 0
BITMAP
1F000F80
0F801F00
07C03E00
07C03E00
03E07C00
01F0F800
01F9F800
00F9F000
007FE000
007FE000
003FC000
003FC000
001F8000
00000000
00000000
00000000
00000000
00000000
00000000
7FFFFFF8
7FFFFFF8
7FFFFFF8
7FFFFFF8
7FFFFFF8
000003F8
000007F8
00000FF0
00000FE0
00001FC0
00003F80
00007F80
0000FF00
0000FE00
0001FC00
0003F800
0007F800
000FF000
000FE000
001FC000
003FC000
007F8000
00FF0000
00FE0000
01FC0000
03FC0000
07F80000
0FF00000
0FE00000
1FC00000
3FC00000
7F800000
FF000000
FE000000
FFFFFFF8
FFFFFFF8
FFFFFFF8
FFFFFFF8
FFFFFFF8
ENDCHAR
STARTCHAR minus
ENCODING -1
SWIDTH 602 0
DWIDTH 43 0
BBX 37 6 3 20
BITMAP
FFFFFFFFF8
FFFFFFFFF8
FFFFFFFFF8
FFFFFFFFF8
FFFFFFFFF8
FFFFFFFFF8
ENDCHAR
STARTCHAR Gbreve
ENCODING -1
SWIDTH 602 0
DWIDTH 43 0
BBX 35 68 4 -1
BITMAP
01E0007800
01F000F800
01F801F800
00FC03F000
00FFFFF000
007FFFE000
003FFFC000
001FFF8000
0003FC0000
0000000000
0000000000
0000000000
0000000000
0000000000
0000FF8000
0007FFF800
001FFFFE00
007FFFFF00
00FFFFFF80
01FFFFFF80
03FF807F80
07FC000F80
07F8000380
0FF0000180
1FE0000080
1FC0000000
3FC0000000
3F80000000
3F80000000
7F00000000
7F00000000
7F00000000
7F00000000
7F00000000
FE00000000
FE00000000
FE00000000
FE00000000
FE00000000
FE00000000
FE000FFFE0
FE000FFFE0
FE000FFFE0
FE000FFFE0
FE000FFFE0
FE000FFFE0
FE00000FE0
FE00000FE0
7E00000FE0
7F00000FE0
7F00000FE0
7F00000FE0
7F00000FE0
3F80000FE0
3F80000FE0
3FC0000FE0
1FC0000FE0
1FE0000FE0
0FF0000FE0
0FF8000FE0
07FC001FE0
03FF807FE0
01FFFFFFE0
00FFFFFFC0
007FFFFF00
001FFFFE00
0007FFF800
0000FFC000
ENDCHAR
STARTCHAR gbreve
ENCODING -1
SWIDTH 602 0
DWIDTH 43 0
BBX 34 73 4 -15
BITMAP
01E0007800
01E0007800
01F000F800
00F801F000
00FE07F000
007FFFE000
007FFFE000
003FFFC000
000FFF0000
0003FC0000
0000000000
0000000000
0000000000
0000000000
0000000000
0000000000
0000000000
0000000000
000FF80000
007FFF0FC0
00FFFF8FC0
03FFFFCFC0
07FFFFEFC0
0FFC07FFC0
0FF001FFC0
1FE000FFC0
3FC0007FC0
3F80003FC0
3F80003FC0
7F00001FC0
7F00001FC0
7F00001FC0
FE00000FC0
FE00000FC0
FE00000FC0
FE00000FC0
FE00000FC0
FE00000FC0
FE00000FC0
FE00000FC0
FE00000FC0
FE00000FC0
FE00000FC0
FE00000FC0
7F00001FC0
7F00001FC0
7F00001FC0
3F80003FC0
3F80003FC0
3FC0007FC0
1FE000FFC0
0FF001FFC0
0FFC07FFC0
07FFFFEFC0
03FFFFCFC0
00FFFF8FC0
007FFE0FC0
000FF80FC0
0000000FC0
0000000FC0
0000000FC0
0000001F80
0000001F80
0000001F80
0000003F00
0800007F00
0F0000FE00
0FF007FC00
0FFFFFFC00
0FFFFFF000
0FFFFFE000
03FFFF8000
003FFC0000
ENDCHAR
STARTCHAR Idotaccent
ENCODING -1
SWIDTH 602 0
DWIDTH 43 0
BBX 29 66 7 0
BITMAP
001FC000
001FC000
001FC000
001FC000
001FC000
001FC000
001FC000
00000000
00000000
00000000
00000000
00000000
00000000
00000000
FFFFFFF8
FFFFFFF8
FFFFFFF8
FFFFFFF8
FFFFFFF8
FFFFFFF8
001FC000
001FC000
001FC000
001FC000
001FC000
001FC000
001FC000
001FC000
001FC000
001FC000
001FC000
001FC000
001FC000
001FC000
001FC000
001FC000
001FC000
001FC000
001FC000
001FC000
001FC000
001FC000
001FC000
001FC000
001FC000
001FC000
001FC000
001FC000
001FC000
001FC000
001FC000
001FC000
001FC000
001FC000
001FC000
001FC000
001FC000
001FC000
001FC000
001FC000
FFFFFFF8
FFFFFFF8
FFFFFFF8
FFFFFFF8
FFFFFFF8
FFFFFFF8
ENDCHAR
STARTCHAR Scedilla
ENCODING -1
SWIDTH 602 0
DWIDTH 43 0
BBX 34 67 5 -14
BITMAP
0007FE0000
007FFFE000
01FFFFFC00
03FFFFFE00
0FFFFFFE00
0FFFFFFE00
1FFC03FE00
3FE0003E00
3FC0000E00
7F80000200
7F00000000
FF00000000
FE00000000
FE00000000
FE00000000
FE00000000
FE00000000
FE00000000
FF00000000
FF80000000
7FC0000000
7FF0000000
3FFC000000
3FFFE00000
1FFFFC0000
0FFFFF8000
03FFFFE000
00FFFFF800
003FFFFC00
0007FFFE00
00003FFF00
000007FF00
000001FF80
0000007F80
0000003F80
0000003FC0
0000001FC0
0000001FC0
0000001FC0
0000001FC0
0000001FC0
0000001FC0
0000003FC0
0000003F80
4000007F80
700000FF80
7E0001FF00
7FE00FFF00
7FFFFFFE00
7FFFFFFC00
7FFFFFF800
3FFFFFE000
07FFFF8000
003FFC0000
0000F00000
0000780000
00007C0000
00003C0000
00003E0000
00003E0000
00003E0000
00007E0000
0080FE0000
00FFFC0000
00FFFC0000
00FFF80000
007FC00000
ENDCHAR
STARTCHAR scedilla
ENCODING -1
SWIDTH 602 0
DWIDTH 43 0
BBX 29 54 8 -14
BITMAP
003FF800
01FFFF80
07FFFFE0
1FFFFFE0
3FFFFFE0
3FE00FE0
7F0000E0
7E000020
FC000000
FC000000
FC000000
FC000000
FC000000
FE000000
FF000000
7FC00000
7FF80000
3FFFE000
3FFFFC00
0FFFFF00
07FFFFC0
00FFFFE0
000FFFE0
00007FF0
00001FF0
000007F8
000003F8
000001F8
000001F8
000001F8
000001F8
000001F8
800003F0
E00007F0
FC000FF0
FF803FE0
FFFFFFC0
FFFFFF80
FFFFFF00
3FFFFC00
01FFE000
00078000
0003C000
0003E000
0001E000
0001F000
0001F000
0001F000
0003F000
0407F000
07FFE000
07FFE000
07FFC000
03FE0000
ENDCHAR
STARTCHAR Cacute
ENCODING -1
SWIDTH 602 0
DWIDTH 43 0
BBX 33 67 5 -1
BITMAP
000007F000
000007E000
00000FC000
00001F8000
00003F0000
00003E0000
00007C0000
0000FC0000
0001F80000
0000000000
0000000000
0000000000
0000000000
0000FFC000
0007FFF800
001FFFFE00
007FFFFF00
00FFFFFF80
01FFFFFF80
03FF807F80
07FE000F80
07F8000380
0FF0000180
1FE0000080
1FC0000000
3FC0000000
3F80000000
3F80000000
7F00000000
7F00000000
7F00000000
7F00000000
7F00000000
FE00000000
FE00000000
FE00000000
FE00000000
FE00000000
FE00000000
FE00000000
FE00000000
FE00000000
FE00000000
FE00000000
FE00000000
FE00000000
FE00000000
7F00000000
7F00000000
7F00000000
7F00000000
7F00000000
3F80000000
3F80000000
3FC0000000
1FC0000000
1FE0000080
0FF0000180
07F8000380
07FE000F80
03FF807F80
01FFFFFF80
00FFFFFF80
007FFFFF00
001FFFFE00
0007FFF800
0000FFC000
ENDCHAR
STARTCHAR cacute
ENCODING -1
SWIDTH 602 0
DWIDTH 43 0
BBX 30 59 7 -1
BITMAP
000001FC
000003F8
000007F0
00000FE0
00000FC0
00001F80
00003F00
00007E00
0000FC00
0000FC00
0001F800
0003F000
0007E000
00000000
00000000
00000000
00000000
00000000
0003FF80
001FFFF8
007FFFFC
01FFFFFC
03FFFFFC
07FF01FC
0FF8003C
1FF0000C
1FE00004
3FC00000
3F800000
7F800000
7F000000
7F000000
7F000000
FE000000
FE000000
FE000000
FE000000
FE000000
FE000000
FE000000
FE000000
FE000000
FE000000
FE000000
7F000000
7F000000
7F000000
7F800000
3F800000
3FC00000
1FE00004
1FF0000C
0FF8003C
07FF00FC
03FFFFFC
01FFFFFC
007FFFFC
001FFFF8
0003FF80
ENDCHAR
STARTCHAR Ccaron
ENCODING -1
SWIDTH 602 0
DWIDTH 43 0
BBX 33 67 5 -1
BITMAP
007C007C00
003E00F800
001F01F000
000F83E000
0007C7C000
0007EFC000
0003FF8000
0001FF0000
0000FE0000
0000000000
0000000000
0000000000
0000000000
0000FFC000
0007FFF800
001FFFFE00
007FFFFF00
00FFFFFF80
01FFFFFF80
03FF807F80
07FE000F80
07F8000380
0FF0000180
1FE0000080
1FC0000000
3FC0000000
3F80000000
3F80000000
7F00000000
7F00000000
7F00000000
7F00000000
7F00000000
FE00000000
FE00000000
FE00000000
FE00000000
FE00000000
FE00000000
FE00000000
FE00000000
FE00000000
FE00000000
FE00000000
FE00000000
FE00000000
FE00000000
7F00000000
7F00000000
7F00000000
7F00000000
7F00000000
3F80000000
3F80000000
3FC0000000
1FC0000000
1FE0000080
0FF0000180
07F8000380
07FE000F80
03FF807F80
01FFFFFF80
00FFFFFF80
007FFFFF00
001FFFFE00
0007FFF800
0000FFC000
ENDCHAR
STARTCHAR ccaron
ENCODING -1
SWIDTH 602 0
DWIDTH 43 0
BBX 30 59 7 -1
BITMAP
03E001F0
01F003E0
00F807C0
00F807C0
007C0F80
003E1F00
003F3F00
001F3E00
000FFC00
000FFC00
0007F800
0007F800
0003F000
00000000
00000000
00000000
00000000
00000000
0003FF80
001FFFF8
007FFFFC
01FFFFFC
03FFFFFC
07FF01FC
0FF8003C
1FF0000C
1FE00004
3FC00000
3F800000
7F800000
7F000000
7F000000
7F000000
FE000000
FE000000
FE000000
FE000000
FE000000
FE000000
FE000000
FE000000
FE000000
FE000000
FE000000
7F000000
7F000000
7F000000
7F800000
3F800000
3FC00000
1FE00004
1FF0000C
0FF8003C
07FF00FC
03FFFFFC
01FFFFFC
007FFFFC
001FFFF8
0003FF80
ENDCHAR
STARTCHAR dcroat
ENCODING -1
SWIDTH 602 0
DWIDTH 43 0
BBX 41 56 4 -1
BITMAP
0000000FC000
0000000FC000
0000000FC000
0000000FC000
0000000FC000
0000000FC000
00007FFFFF80
00007FFFFF80
00007FFFFF80
00007FFFFF80
0000000FC000
0000000FC000
0000000FC000
0000000FC000
0000000FC000
000FF80FC000
007FFF0FC000
00FFFF8FC000
03FFFFCFC000
07FFFFEFC000
0FFC07FFC000
0FF001FFC000
1FE000FFC000
3FC0007FC000
3F80003FC000
3F80003FC000
7F00001FC000
7F00001FC000
7F00001FC000
FE00001FC000
FE00000FC000
FE00000FC000
FE00000FC000
FE00000FC000
FE00000FC000
FE00000FC000
FE00000FC000
FE00000FC000
FE00000FC000
FE00000FC000
FE00000FC000
FE00001FC000
7F00001FC000
7F00001FC000
7F00001FC000
3F80003FC000
3F80003FC000
3FC0007FC000
1FE000FFC000
0FF001FFC000
0FFC07FFC000
07FFFFEFC000
03FFFFCFC000
00FFFF8FC000
007FFF0FC000
000FF8000000
ENDCHAR
STARTCHAR periodcentered
ENCODING -1
SWIDTH 602 0
DWIDTH 43 0
BBX 9 11 17 19
BITMAP
FF80
FF80
FF80
FF80
FF80
FF80
FF80
FF80
FF80
FF80
FF80
ENDCHAR
STARTCHAR Euro
ENCODING -1
SWIDTH 602 0
DWIDTH 43 0
BBX 36 54 1 -1
BITMAP
000007F800
00003FFF00
0000FFFFC0
0003FFFFE0
0007FFFFF0
000FFFFFF0
001FFC07F0
001FE001F0
003FC00070
007F800030
007F000010
007F000000
00FE000000
00FE000000
01FC000000
01FC000000
01FC000000
01FC000000
03FC000000
3FFFFFFC00
7FFFFFF800
7FFFFFF800
FFFFFFF800
03F8000000
03F8000000
03F8000000
03F8000000
03F8000000
03F8000000
03F8000000
3FFFFFC000
7FFFFF8000
7FFFFF8000
FFFFFF0000
03FC000000
01FC000000
01FC000000
01FC000000
01FC000000
00FE000000
00FE000000
00FE000000
007F000000
007F800010
003F800030
003FC00070
001FF001F0
001FFC07F0
000FFFFFF0
0007FFFFF0
0003FFFFE0
0000FFFFC0
00003FFF00
000007FC00
ENDCHAR
STARTCHAR c6459
ENCODING -1
SWIDTH 602 0
DWIDTH 43 0
BBX 21 7 11 46
BITMAP
FE03F8
FE03F8
FE03F8
FE03F8
FE03F8
FE03F8
FE03F8
ENDCHAR
STARTCHAR c6460
ENCODING -1
SWIDTH 602 0
DWIDTH 43 0
BBX 13 9 17 44
BITMAP
03F8
03F0
07E0
0FC0
1F80
1F00
3E00
7E00
FC00
ENDCHAR
STARTCHAR c6461
ENCODING -1
SWIDTH 602 0
DWIDTH 43 0
BBX 23 7 10 46
BITMAP
0FC01E
3FF01E
7FFC3E
7FFFFC
F87FFC
F01FF8
F007E0
ENDCHAR
STARTCHAR c6468
ENCODING -1
SWIDTH 602 0
DWIDTH 43 0
BBX 13 9 13 44
BITMAP
FE00
7E00
3F00
1F80
0FC0
07C0
03E0
03F0
01F8
ENDCHAR
STARTCHAR c6470
ENCODING -1
SWIDTH 602 0
DWIDTH 43 0
BBX 21 9 11 44
BITMAP
01FC00
03FE00
07FF00
0FDF80
0F8F80
1F07C0
3E03E0
7C01F0
F800F8
ENDCHAR
STARTCHAR c6472
ENCODING -1
SWIDTH 602 0
DWIDTH 43 0
BBX 21 9 11 44
BITMAP
F800F8
7C01F0
3E03E0
1F07C0
0F8F80
0FDF80
07FF00
03FE00
01FC00
ENDCHAR
STARTCHAR c6477
ENCODING -1
SWIDTH 602 0
DWIDTH 43 0
BBX 38 13 1 18
BITMAP
0000000018
00000001F8
0000001FFC
000001FFFC
00001FFFF0
0003FFFF00
003FFFF000
03FFFF0000
3FFFE00000
FFFE000000
FFE0000000
7E00000000
6000000000
ENDCHAR
STARTCHAR c6478
ENCODING -1
SWIDTH 602 0
DWIDTH 43 0
BBX 22 29 9 24
BITMAP
000FC0
001FC0
001FC0
003FC0
007FC0
0077C0
00E7C0
01E7C0
01C7C0
0387C0
0787C0
0F07C0
0E07C0
1E07C0
3C07C0
3807C0
7807C0
F007C0
FFFFFC
FFFFFC
FFFFFC
FFFFFC
0007C0
0007C0
0007C0
0007C0
0007C0
0007C0
0007C0
ENDCHAR
STARTCHAR c6475
ENCODING -1
SWIDTH 602 0
DWIDTH 43 0
BBX 22 9 11 45
BITMAP
F0003C
F8007C
FC00FC
7E01F8
7FFFF8
3FFFF0
1FFFE0
0FFFC0
01FE00
ENDCHAR
STARTCHAR c6476
ENCODING -1
SWIDTH 602 0
DWIDTH 43 0
BBX 7 7 18 46
BITMAP
FE
FE
FE
FE
FE
FE
FE
ENDCHAR
ENDFONT
